<?xml version="1.0" encoding="UTF-8"?>
<!DOCTYPE svg PUBLIC "-//W3C//DTD SVG 1.1//EN" "http://www.w3.org/Graphics/SVG/1.1/DTD/svg11.dtd">
<svg xmlns="http://www.w3.org/2000/svg" version="1.1" width="512px" height="512px" style="shape-rendering:geometricPrecision; text-rendering:geometricPrecision; image-rendering:optimizeQuality; fill-rule:evenodd; clip-rule:evenodd" xmlns:xlink="http://www.w3.org/1999/xlink">
<g><path style="opacity:0.963" fill="#010202" d="M 511.5,208.5 C 511.5,218.5 511.5,228.5 511.5,238.5C 500.781,290.718 469.114,321.551 416.5,331C 407.833,331.667 399.167,331.667 390.5,331C 383.762,330.387 377.262,328.887 371,326.5C 373.922,359.145 366.922,389.479 350,417.5C 346.96,421.483 343.126,422.483 338.5,420.5C 335.857,417.66 335.024,414.327 336,410.5C 357.067,375.169 361.4,337.836 349,298.5C 336.442,265.369 318.776,235.369 296,208.5C 277.538,187.036 258.705,165.869 239.5,145C 233.831,141.407 227.831,140.74 221.5,143C 213.984,150.016 206.984,157.516 200.5,165.5C 172.986,193.212 148.819,223.545 128,256.5C 116.656,275.857 108.656,296.524 104,318.5C 96.8246,368.952 112.658,410.452 151.5,443C 201.122,477.211 251.456,478.211 302.5,446C 307.317,441.76 312.317,437.76 317.5,434C 321.021,433.309 324.355,433.809 327.5,435.5C 328.987,438.913 328.82,442.247 327,445.5C 285.977,482.176 238.811,493.01 185.5,478C 122.982,454.344 89.9818,409.01 86.5,342C 87.3255,313.865 94.3255,287.365 107.5,262.5C 66.4973,265.797 34.664,250.464 12,216.5C 6.11511,205.667 1.94845,194.334 -0.5,182.5C -0.5,172.833 -0.5,163.167 -0.5,153.5C 6.23282,122.867 20.2328,96.0341 41.5,73C 44.4161,71.1825 47.4161,71.0158 50.5,72.5C 50.6854,74.1958 51.5187,75.5291 53,76.5C 53.6667,78.5 53.6667,80.5 53,82.5C 38.8169,99.7097 27.4836,118.71 19,139.5C 8.25584,175.803 17.0892,206.303 45.5,231C 68.4806,247.6 93.3139,251.1 120,241.5C 124.057,235.616 127.89,229.616 131.5,223.5C 139.803,212.858 148.136,202.191 156.5,191.5C 159.138,188.526 161.805,185.526 164.5,182.5C 166.767,179.729 169.267,177.062 172,174.5C 173.18,154.887 168.847,136.554 159,119.5C 153.413,109.32 147.079,99.6537 140,90.5C 125.87,74.0352 111.37,57.8685 96.5,42C 93.6967,41.245 91.0301,41.5783 88.5,43C 83.3008,49.0292 77.9674,54.8625 72.5,60.5C 69.2153,60.7896 66.2153,60.123 63.5,58.5C 61.1575,55.2829 60.9908,51.9496 63,48.5C 68.1667,42.6667 73.3333,36.8333 78.5,31C 89.3737,24.599 99.8737,25.099 110,32.5C 118.63,42.7984 127.63,52.7984 137,62.5C 153.801,80.651 167.467,100.984 178,123.5C 182.28,133.839 185.446,144.506 187.5,155.5C 195.346,147.154 203.346,138.987 211.5,131C 224.589,123.345 237.255,124.012 249.5,133C 266.333,151.833 283.167,170.667 300,189.5C 305.729,173.375 313.063,158.042 322,143.5C 342.308,115.188 364.808,88.6879 389.5,64C 403.596,56.8861 415.763,59.3861 426,71.5C 447.889,94.3787 467.889,118.712 486,144.5C 498.723,164.26 507.223,185.594 511.5,208.5 Z"/></g>
<g><path style="opacity:1" fill="#a2dcfc" d="M 164.5,182.5 C 165.459,172.624 161.125,166.457 151.5,164C 148.183,163.502 144.85,163.335 141.5,163.5C 141.854,159.363 141.354,155.363 140,151.5C 131.19,147.295 126.69,150.128 126.5,160C 126.109,163.671 127.109,166.838 129.5,169.5C 123.708,183.884 128.708,191.884 144.5,193.5C 148.624,193.467 152.624,192.801 156.5,191.5C 148.136,202.191 139.803,212.858 131.5,223.5C 96.2524,224.862 72.5857,209.195 60.5,176.5C 59.6876,174.055 58.6876,171.722 57.5,169.5C 59.5099,164.046 60.0099,158.38 59,152.5C 57.955,151.627 57.1217,150.627 56.5,149.5C 55.918,118.746 61.2514,89.0789 72.5,60.5C 77.9674,54.8625 83.3008,49.0292 88.5,43C 91.0301,41.5783 93.6967,41.245 96.5,42C 111.37,57.8685 125.87,74.0352 140,90.5C 147.079,99.6537 153.413,109.32 159,119.5C 168.847,136.554 173.18,154.887 172,174.5C 169.267,177.062 166.767,179.729 164.5,182.5 Z"/></g>
<g><path style="opacity:1" fill="#79ccf8" d="M 63.5,58.5 C 66.2153,60.123 69.2153,60.7896 72.5,60.5C 61.2514,89.0789 55.918,118.746 56.5,149.5C 46.3333,148.689 42.6666,153.356 45.5,163.5C 35.8247,162.09 28.3247,165.424 23,173.5C 20.92,183.432 24.7533,189.932 34.5,193C 43.5633,194.945 51.3967,192.778 58,186.5C 60.0063,183.464 60.8396,180.131 60.5,176.5C 72.5857,209.195 96.2524,224.862 131.5,223.5C 127.89,229.616 124.057,235.616 120,241.5C 93.3139,251.1 68.4806,247.6 45.5,231C 17.0892,206.303 8.25584,175.803 19,139.5C 27.4836,118.71 38.8169,99.7097 53,82.5C 53.6667,80.5 53.6667,78.5 53,76.5C 51.5187,75.5291 50.6854,74.1958 50.5,72.5C 54.8241,67.8749 59.1574,63.2082 63.5,58.5 Z"/></g>
<g><path style="opacity:1" fill="#a2ddfd" d="M 470.5,287.5 C 444.027,291.754 419.027,287.588 395.5,275C 382.038,265.424 372.705,252.757 367.5,237C 367.164,235.97 366.497,235.47 365.5,235.5C 368.856,228.972 367.856,223.305 362.5,218.5C 363.122,217.373 363.955,216.373 365,215.5C 365.667,210.5 365.667,205.5 365,200.5C 363.871,198.859 362.371,197.859 360.5,197.5C 360.766,162.502 367.433,128.835 380.5,96.5C 386.26,89.2359 392.593,82.4026 399.5,76C 402.928,75.2989 406.262,75.6323 409.5,77C 426.076,94.2387 441.909,112.072 457,130.5C 474.941,152.38 487.607,177.046 495,204.5C 500.225,236.308 492.058,263.974 470.5,287.5 Z"/></g>
<g><path style="opacity:1" fill="#79ccf7" d="M 380.5,96.5 C 367.433,128.835 360.766,162.502 360.5,197.5C 357.03,196.875 354.196,197.875 352,200.5C 351.501,204.486 351.334,208.486 351.5,212.5C 342.98,211.05 335.48,213.05 329,218.5C 327.906,220.078 327.072,221.745 326.5,223.5C 321.11,217.728 316.443,211.394 312.5,204.5C 318.432,181.092 328.598,159.759 343,140.5C 354.807,125.204 367.307,110.537 380.5,96.5 Z"/></g>
<g><path style="opacity:1" fill="#a2ddfd" d="M 338.5,420.5 C 337.876,422.754 336.543,424.421 334.5,425.5C 220.522,444.679 166.355,396.679 172,281.5C 175.852,241.425 185.352,202.758 200.5,165.5C 206.984,157.516 213.984,150.016 221.5,143C 227.831,140.74 233.831,141.407 239.5,145C 258.705,165.869 277.538,187.036 296,208.5C 318.776,235.369 336.442,265.369 349,298.5C 361.4,337.836 357.067,375.169 336,410.5C 335.024,414.327 335.857,417.66 338.5,420.5 Z"/></g>
<g><path style="opacity:1" fill="#030404" d="M 56.5,149.5 C 57.1217,150.627 57.955,151.627 59,152.5C 60.0099,158.38 59.5099,164.046 57.5,169.5C 50.9084,172.205 46.9084,170.205 45.5,163.5C 42.6666,153.356 46.3333,148.689 56.5,149.5 Z"/></g>
<g><path style="opacity:1" fill="#070809" d="M 141.5,163.5 C 140.061,170.216 136.061,172.216 129.5,169.5C 127.109,166.838 126.109,163.671 126.5,160C 126.69,150.128 131.19,147.295 140,151.5C 141.354,155.363 141.854,159.363 141.5,163.5 Z"/></g>
<g><path style="opacity:1" fill="#040607" d="M 79.5,156.5 C 83.5963,155.715 86.9296,156.882 89.5,160C 93.8088,161.198 97.4755,160.198 100.5,157C 108.791,155.045 112.291,158.212 111,166.5C 104.843,174.665 96.6764,177.499 86.5,175C 78.935,172.811 75.435,167.977 76,160.5C 76.6897,158.65 77.8564,157.316 79.5,156.5 Z"/></g>
<g><path style="opacity:1" fill="#fcfdfe" d="M 45.5,163.5 C 46.9084,170.205 50.9084,172.205 57.5,169.5C 58.6876,171.722 59.6876,174.055 60.5,176.5C 60.8396,180.131 60.0063,183.464 58,186.5C 51.3967,192.778 43.5633,194.945 34.5,193C 24.7533,189.932 20.92,183.432 23,173.5C 28.3247,165.424 35.8247,162.09 45.5,163.5 Z"/></g>
<g><path style="opacity:1" fill="#fdfdfe" d="M 141.5,163.5 C 144.85,163.335 148.183,163.502 151.5,164C 161.125,166.457 165.459,172.624 164.5,182.5C 161.805,185.526 159.138,188.526 156.5,191.5C 152.624,192.801 148.624,193.467 144.5,193.5C 128.708,191.884 123.708,183.884 129.5,169.5C 136.061,172.216 140.061,170.216 141.5,163.5 Z"/></g>
<g><path style="opacity:1" fill="#79ccf8" d="M 200.5,165.5 C 185.352,202.758 175.852,241.425 172,281.5C 166.355,396.679 220.522,444.679 334.5,425.5C 332.167,428.833 329.833,432.167 327.5,435.5C 324.355,433.809 321.021,433.309 317.5,434C 312.317,437.76 307.317,441.76 302.5,446C 251.456,478.211 201.122,477.211 151.5,443C 112.658,410.452 96.8246,368.952 104,318.5C 108.656,296.524 116.656,275.857 128,256.5C 148.819,223.545 172.986,193.212 200.5,165.5 Z"/></g>
<g><path style="opacity:1" fill="#030304" d="M 360.5,197.5 C 362.371,197.859 363.871,198.859 365,200.5C 365.667,205.5 365.667,210.5 365,215.5C 363.955,216.373 363.122,217.373 362.5,218.5C 356.463,220.79 352.797,218.79 351.5,212.5C 351.334,208.486 351.501,204.486 352,200.5C 354.196,197.875 357.03,196.875 360.5,197.5 Z"/></g>
<g><path style="opacity:1" fill="#050606" d="M 456.5,212.5 C 454.599,218.477 450.599,220.477 444.5,218.5C 442.062,215.493 441.062,211.993 441.5,208C 441.246,198.128 445.579,195.294 454.5,199.5C 456.359,203.557 457.026,207.891 456.5,212.5 Z"/></g>
<g><path style="opacity:1" fill="#07090a" d="M 389.5,204.5 C 391.199,204.34 392.866,204.506 394.5,205C 397.188,207.694 400.355,209.527 404,210.5C 407.514,209.324 410.681,207.491 413.5,205C 420,204.833 423.167,208 423,214.5C 416.997,222.841 408.83,226.341 398.5,225C 392.889,223.386 388.389,220.219 385,215.5C 383.776,210.626 385.276,206.959 389.5,204.5 Z"/></g>
<g><path style="opacity:1" fill="#fcfdfd" d="M 351.5,212.5 C 352.797,218.79 356.463,220.79 362.5,218.5C 367.856,223.305 368.856,228.972 365.5,235.5C 359.387,243.804 351.054,247.137 340.5,245.5C 335.823,238.138 331.156,230.805 326.5,223.5C 327.072,221.745 327.906,220.078 329,218.5C 335.48,213.05 342.98,211.05 351.5,212.5 Z"/></g>
<g><path style="opacity:1" fill="#fdfefe" d="M 456.5,212.5 C 467.977,210.491 476.477,214.491 482,224.5C 482.432,238.899 475.266,245.899 460.5,245.5C 446.311,244.818 439.811,237.485 441,223.5C 441.997,221.677 443.164,220.01 444.5,218.5C 450.599,220.477 454.599,218.477 456.5,212.5 Z"/></g>
<g><path style="opacity:1" fill="#79ccf8" d="M 365.5,235.5 C 366.497,235.47 367.164,235.97 367.5,237C 372.705,252.757 382.038,265.424 395.5,275C 419.027,287.588 444.027,291.754 470.5,287.5C 452.147,306.355 429.647,316.022 403,316.5C 390.382,316.512 378.382,313.845 367,308.5C 361.369,286.093 352.535,265.093 340.5,245.5C 351.054,247.137 359.387,243.804 365.5,235.5 Z"/></g>
<g><path style="opacity:1" fill="#030405" d="M 155.5,338.5 C 151.61,340.054 147.943,339.721 144.5,337.5C 143.37,330.246 143.204,322.913 144,315.5C 148.333,310.167 152.667,310.167 157,315.5C 157.667,322.5 157.667,329.5 157,336.5C 156.283,337.044 155.783,337.711 155.5,338.5 Z"/></g>
<g><path style="opacity:1" fill="#080a0c" d="M 313.5,337.5 C 310.057,339.721 306.39,340.054 302.5,338.5C 301.496,337.317 300.662,335.984 300,334.5C 299.333,328.833 299.333,323.167 300,317.5C 303.846,310.534 308.513,309.867 314,315.5C 314.796,322.913 314.63,330.246 313.5,337.5 Z"/></g>
<g><path style="opacity:1" fill="#020304" d="M 216.5,318.5 C 225.884,318.184 235.218,318.684 244.5,320C 255.686,323.028 261.353,330.361 261.5,342C 258.337,370.231 243.003,381.231 215.5,375C 199.133,364.236 193.633,349.403 199,330.5C 203.39,324.258 209.223,320.258 216.5,318.5 Z"/></g>
<g><path style="opacity:1" fill="#4c545e" d="M 218.5,333.5 C 224.842,333.334 231.175,333.5 237.5,334C 245.7,334.872 248.534,339.372 246,347.5C 243.102,359.53 235.602,364.363 223.5,362C 213.501,356.17 210.001,347.67 213,336.5C 214.876,335.391 216.709,334.391 218.5,333.5 Z"/></g>
<g><path style="opacity:1" fill="#fdfefe" d="M 144.5,337.5 C 147.943,339.721 151.61,340.054 155.5,338.5C 173.331,343.832 179.165,355.165 173,372.5C 165.909,381.795 156.409,386.462 144.5,386.5C 132.914,385.793 123.747,380.793 117,371.5C 111.736,355.857 116.903,345.024 132.5,339C 136.44,337.985 140.44,337.485 144.5,337.5 Z"/></g>
<g><path style="opacity:1" fill="#fdfefe" d="M 313.5,337.5 C 327.707,337.232 337.541,343.565 343,356.5C 344.545,367.2 340.712,375.366 331.5,381C 314.709,389.95 299.542,387.783 286,374.5C 278.116,356.591 283.616,344.591 302.5,338.5C 306.39,340.054 310.057,339.721 313.5,337.5 Z"/></g>
</svg>
