<svg width="512" height="512" viewBox="0 0 512 512" fill="none" xmlns="http://www.w3.org/2000/svg">
<g clip-path="url(#clip0_133_181)">
<path opacity="0.977" fill-rule="evenodd" clip-rule="evenodd" d="M38.5 -0.5C126.5 -0.5 214.5 -0.5 302.5 -0.5C318.919 4.08773 329.085 14.7544 333 31.5C333.667 43.5 333.667 55.5 333 67.5C331.429 69.9229 329.263 71.2562 326.5 71.5C323.383 71.3577 320.883 70.0244 319 67.5C318.667 56.5 318.333 45.5 318 34.5C315.609 24.442 309.443 17.942 299.5 15C294.511 14.5007 289.511 14.3341 284.5 14.5C203.499 14.3333 122.499 14.5 41.5 15C32 17.8333 25.8333 24 23 33.5C22.3333 101.167 22.3333 168.833 23 236.5C25.2346 245.737 30.7346 252.237 39.5 256C52.7731 257.425 66.1065 257.925 79.5 257.5C79.0863 248.418 79.5863 239.418 81 230.5C83.7996 223.2 88.9662 218.533 96.5 216.5C66.1622 186.504 55.3289 150.504 64 108.5C78.1973 62.9665 108.697 35.7998 155.5 27C210.928 23.1163 250.095 46.283 273 96.5C285.858 135.504 280.191 171.504 256 204.5C252.388 208.734 248.555 212.734 244.5 216.5C253.318 218.982 258.651 224.648 260.5 233.5C260.5 241.5 260.5 249.5 260.5 257.5C273.011 257.829 285.345 257.495 297.5 256.5C308.393 254.108 315.227 247.441 318 236.5C318.333 189.5 318.667 142.5 319 95.5C320.715 92.6026 323.215 91.2693 326.5 91.5C329.561 91.4443 331.728 92.7776 333 95.5C333.667 143.5 333.667 191.5 333 239.5C329.179 257.321 318.346 268.154 300.5 272C287.504 272.5 274.504 272.667 261.5 272.5C261.667 290.17 261.5 307.836 261 325.5C255.932 353.233 240.099 371.733 213.5 381C206.923 382.596 200.256 383.43 193.5 383.5C193.333 409.502 193.5 435.502 194 461.5C194.465 462.931 195.299 464.097 196.5 465C210.5 465.667 224.5 465.667 238.5 465C241.785 464.241 244.785 462.908 247.5 461C271.167 437.333 294.833 413.667 318.5 390C343.154 369.727 370.154 366.06 399.5 379C403.5 381.667 407.5 384.333 411.5 387C441.695 416.861 471.528 447.028 501 477.5C506.7 493.076 502.2 504.409 487.5 511.5C482.833 511.5 478.167 511.5 473.5 511.5C470.766 510.295 468.099 508.795 465.5 507C437.167 478.667 408.833 450.333 380.5 422C371.486 416.107 362.486 416.107 353.5 422C328.139 447.695 302.472 473.028 276.5 498C267.037 504.737 256.704 509.237 245.5 511.5C226.5 511.5 207.5 511.5 188.5 511.5C166.739 505.57 153.239 491.57 148 469.5C147.333 448.833 147.333 428.167 148 407.5C149.159 404.507 151.325 402.84 154.5 402.5C156.389 403.322 158.389 404.155 160.5 405C161.126 405.75 161.626 406.584 162 407.5C162.071 428.537 162.737 449.537 164 470.5C168.076 482.243 175.909 490.41 187.5 495C204.78 496.61 222.114 496.943 239.5 496C248.034 494.933 256.034 492.266 263.5 488C290.5 461.667 317.5 435.333 344.5 409C360.034 400.096 375.368 400.429 390.5 410C416.368 436.035 442.368 461.868 468.5 487.5C471.385 492.061 475.385 495.061 480.5 496.5C484.104 496.451 486.604 494.784 488 491.5C488.706 489.029 488.373 486.695 487 484.5C458.5 456 430 427.5 401.5 399C388.895 389.513 374.895 385.679 359.5 387.5C349.85 388.55 341.184 392.05 333.5 398C309.833 421.667 286.167 445.333 262.5 469C255.606 475.114 247.606 479.114 238.5 481C223.833 481.667 209.167 481.667 194.5 481C185.394 478.063 180.061 471.897 178.5 462.5C178.5 435.833 178.5 409.167 178.5 382.5C170.648 382.175 162.982 382.508 155.5 383.5C155.167 383.5 154.833 383.5 154.5 383.5C123.909 385.127 101.076 372.794 86 346.5C83.193 340.079 81.193 333.412 80 326.5C79.5001 308.503 79.3334 290.503 79.5 272.5C66.4957 272.667 53.4957 272.5 40.5 272C22.7727 268.606 11.9394 258.106 8 240.5C7.33333 170.5 7.33333 100.5 8 30.5C12.3489 14.3186 22.5156 3.98523 38.5 -0.5Z" fill="#010202"/>
<path opacity="0.961" fill-rule="evenodd" clip-rule="evenodd" d="M410.5 -0.5C414.167 -0.5 417.833 -0.5 421.5 -0.5C425.287 1.79717 427.787 5.13051 429 9.5C429.5 29.8306 429.667 50.1639 429.5 70.5C441.505 70.3335 453.505 70.5001 465.5 71C476.867 75.2241 481.367 83.3908 479 95.5C465.576 128.779 451.576 161.779 437 194.5C427.494 200.955 419.827 199.288 414 189.5C413.5 168.503 413.333 147.503 413.5 126.5C400.093 126.944 386.76 126.444 373.5 125C366.667 121.17 363 115.336 362.5 107.5C375.156 73.8511 388.656 40.5178 403 7.5C404.69 3.97911 407.19 1.31244 410.5 -0.5Z" fill="black"/>
<path fill-rule="evenodd" clip-rule="evenodd" d="M284.5 14.5C289.519 19.1991 293.019 24.8657 295 31.5C295.667 100.833 295.667 170.167 295 239.5C293.37 246.1 290.203 251.767 285.5 256.5C277.5 256.5 269.5 256.5 261.5 256.5C261.825 248.648 261.492 240.982 260.5 233.5C258.651 224.648 253.318 218.982 244.5 216.5C248.555 212.734 252.388 208.734 256 204.5C280.191 171.504 285.858 135.504 273 96.5C250.095 46.283 210.928 23.1163 155.5 27C108.697 35.7998 78.1973 62.9665 64 108.5C55.3289 150.504 66.1622 186.504 96.5 216.5C88.9662 218.533 83.7996 223.2 81 230.5C79.5863 239.418 79.0863 248.418 79.5 257.5C66.1065 257.925 52.7731 257.425 39.5 256C30.7346 252.237 25.2346 245.737 23 236.5C22.3333 168.833 22.3333 101.167 23 33.5C25.8333 24 32 17.8333 41.5 15C122.499 14.5 203.499 14.3333 284.5 14.5Z" fill="#B3ABB4"/>
<path fill-rule="evenodd" clip-rule="evenodd" d="M284.5 14.4996C289.511 14.3337 294.511 14.5003 299.5 14.9996C309.443 17.9416 315.609 24.4416 318 34.4996C318.333 45.4996 318.667 56.4996 319 67.4996C320.883 70.024 323.383 71.3573 326.5 71.4996C326.5 78.1663 326.5 84.8329 326.5 91.4996C323.215 91.2689 320.715 92.6022 319 95.4996C318.667 142.5 318.333 189.5 318 236.5C315.227 247.441 308.393 254.108 297.5 256.5C293.5 256.5 289.5 256.5 285.5 256.5C290.203 251.767 293.37 246.1 295 239.5C295.667 170.167 295.667 100.833 295 31.4996C293.019 24.8653 289.519 19.1987 284.5 14.4996Z" fill="#A499A4"/>
<path fill-rule="evenodd" clip-rule="evenodd" d="M414.5 80.5C413.833 61.8333 413.167 43.1667 412.5 24.5C412.783 23.7109 413.283 23.0442 414 22.5C414.5 41.8305 414.667 61.1638 414.5 80.5Z" fill="#615930"/>
<path fill-rule="evenodd" clip-rule="evenodd" d="M412.5 24.5C413.167 43.1667 413.833 61.8333 414.5 80.5C414.859 82.371 415.859 83.871 417.5 85C432.339 85.1687 447.006 85.6687 461.5 86.5C456.5 86.5 451.5 86.5 446.5 86.5C446.699 89.941 446.199 93.2744 445 96.5C440.101 108.393 434.934 120.06 429.5 131.5C429.819 126.637 429.486 121.97 428.5 117.5C427.797 115.284 426.464 113.451 424.5 112C409.833 111.667 395.167 111.333 380.5 111C379.196 110.196 378.529 109.029 378.5 107.5C389.567 79.7032 400.9 52.0365 412.5 24.5Z" fill="#F9E47A"/>
<path fill-rule="evenodd" clip-rule="evenodd" d="M180.501 41.5007C224.167 63.0802 244.667 98.4136 242.001 147.501C240.019 162.285 235.186 175.952 227.501 188.501C227.667 182.825 227.5 177.158 227.001 171.501C223.409 165.782 219.075 165.115 214.001 169.501C212.532 185.072 212.032 200.738 212.501 216.501C184.501 216.501 156.501 216.501 128.501 216.501C128.668 201.497 128.501 186.497 128.001 171.501C123.334 164.834 118.668 164.834 114.001 171.501C113.834 184.514 113.334 197.514 112.501 210.501C81.299 184.063 70.1323 150.73 79.0008 110.501C95.8996 62.7923 129.733 39.7923 180.501 41.5007Z" fill="#A69AA6"/>
<path fill-rule="evenodd" clip-rule="evenodd" d="M180.5 41.5C225.531 49.029 253.364 75.029 264 119.5C268.541 156.4 256.708 186.733 228.5 210.5C227.503 203.197 227.169 195.863 227.5 188.5C235.185 175.951 240.018 162.284 242 147.5C244.666 98.4129 224.166 63.0795 180.5 41.5Z" fill="#908190"/>
<path fill-rule="evenodd" clip-rule="evenodd" d="M461.5 86.5C464.244 87.0717 465.077 88.7383 464 91.5C452.542 118.078 441.376 144.744 430.5 171.5C429.504 158.344 429.171 145.01 429.5 131.5C434.934 120.06 440.101 108.393 445 96.5C446.199 93.2744 446.699 89.941 446.5 86.5C451.5 86.5 456.5 86.5 461.5 86.5Z" fill="#F9DA5A"/>
<path fill-rule="evenodd" clip-rule="evenodd" d="M117.5 104.5C121.909 103.618 125.409 104.952 128 108.5C128.667 118.833 128.667 129.167 128 139.5C125.335 144.434 121.502 145.601 116.5 143C115.107 141.829 114.273 140.329 114 138.5C113.333 128.5 113.333 118.5 114 108.5C115.376 107.295 116.542 105.962 117.5 104.5Z" fill="#030303"/>
<path fill-rule="evenodd" clip-rule="evenodd" d="M216.5 104.5C221.28 103.641 224.78 105.308 227 109.5C227.667 119.167 227.667 128.833 227 138.5C222.813 146.073 218.146 146.406 213 139.5C212.333 129.167 212.333 118.833 213 108.5C214.376 107.295 215.542 105.962 216.5 104.5Z" fill="#030303"/>
<path fill-rule="evenodd" clip-rule="evenodd" d="M428.5 117.5C429.486 121.97 429.819 126.637 429.5 131.5C429.171 145.01 429.504 158.344 430.5 171.5C430.539 172.756 430.039 173.756 429 174.5C428.5 155.503 428.333 136.503 428.5 117.5Z" fill="#9B8A3D"/>
<path fill-rule="evenodd" clip-rule="evenodd" d="M167.501 152.501C175.776 151.707 178.943 155.374 177.001 163.501C172.668 168.834 168.334 168.834 164.001 163.501C162.519 158.775 163.686 155.108 167.501 152.501Z" fill="#060506"/>
<path fill-rule="evenodd" clip-rule="evenodd" d="M222.5 231.5C223.963 264.488 223.797 297.488 222 330.5C217.569 346.081 208.736 358.414 195.5 367.5C175.497 367.667 155.497 367.5 135.5 367C113.039 360.955 99.5392 346.455 95 323.5C94.3333 294.167 94.3333 264.833 95 235.5C95.5 233.667 96.6667 232.5 98.5 232C112.829 231.5 127.163 231.333 141.5 231.5C141.333 255.502 141.5 279.502 142 303.5C149.44 322.469 162.94 328.969 182.5 323C190.953 318.619 196.453 311.785 199 302.5C199.5 278.836 199.667 255.169 199.5 231.5C207.167 231.5 214.833 231.5 222.5 231.5Z" fill="#DDF4FB"/>
<path fill-rule="evenodd" clip-rule="evenodd" d="M156.5 231.5C165.833 231.5 175.167 231.5 184.5 231.5C184.667 254.169 184.5 276.836 184 299.5C180.432 309.583 173.598 312.749 163.5 309C160.243 306.98 158.076 304.146 157 300.5C156.5 277.502 156.333 254.502 156.5 231.5Z" fill="#98E5FB"/>
<path fill-rule="evenodd" clip-rule="evenodd" d="M222.5 231.5C229.175 231.334 235.842 231.5 242.5 232C244 232.833 245.167 234 246 235.5C246.667 264.5 246.667 293.5 246 322.5C242.136 344.026 229.969 358.526 209.5 366C204.915 367.225 200.248 367.725 195.5 367.5C208.736 358.414 217.569 346.081 222 330.5C223.797 297.488 223.963 264.488 222.5 231.5Z" fill="#C4EAF9"/>
<path fill-rule="evenodd" clip-rule="evenodd" d="M260.5 233.5C261.492 240.982 261.825 248.648 261.5 256.5C269.5 256.5 277.5 256.5 285.5 256.5C289.5 256.5 293.5 256.5 297.5 256.5C285.345 257.495 273.011 257.829 260.5 257.5C260.5 249.5 260.5 241.5 260.5 233.5Z" fill="#5A565A"/>
<path opacity="0.997" fill-rule="evenodd" clip-rule="evenodd" d="M154.5 383.5C154.833 383.5 155.167 383.5 155.5 383.5C162.833 383.5 170.167 383.5 177.5 383.5C177.169 410.005 177.502 436.339 178.5 462.5C180.061 471.897 185.394 478.063 194.5 481C209.167 481.667 223.833 481.667 238.5 481C247.606 479.114 255.606 475.114 262.5 469C286.167 445.333 309.833 421.667 333.5 398C341.184 392.05 349.85 388.55 359.5 387.5C367.115 386.177 373.782 388.01 379.5 393C408.333 421.833 437.167 450.667 466 479.5C467.707 481.909 468.54 484.575 468.5 487.5C442.368 461.868 416.368 436.035 390.5 410C375.368 400.429 360.034 400.096 344.5 409C317.5 435.333 290.5 461.667 263.5 488C256.034 492.266 248.034 494.933 239.5 496C222.114 496.943 204.78 496.61 187.5 495C175.909 490.41 168.076 482.243 164 470.5C162.737 449.537 162.071 428.537 162 407.5C161.626 406.584 161.126 405.75 160.5 405C158.389 404.155 156.389 403.322 154.5 402.5C154.5 396.167 154.5 389.833 154.5 383.5Z" fill="#96E3F8"/>
<path fill-rule="evenodd" clip-rule="evenodd" d="M155.5 383.499C162.982 382.507 170.648 382.174 178.5 382.499C178.5 409.166 178.5 435.832 178.5 462.499C177.502 436.338 177.169 410.004 177.5 383.499C170.167 383.499 162.833 383.499 155.5 383.499Z" fill="#6293A1"/>
<path fill-rule="evenodd" clip-rule="evenodd" d="M359.5 387.5C374.895 385.679 388.895 389.513 401.5 399C430 427.5 458.5 456 487 484.5C488.373 486.695 488.706 489.029 488 491.5C486.604 494.784 484.104 496.451 480.5 496.5C475.385 495.061 471.385 492.061 468.5 487.5C468.54 484.575 467.707 481.909 466 479.5C437.167 450.667 408.333 421.833 379.5 393C373.782 388.01 367.115 386.177 359.5 387.5Z" fill="#61D8F7"/>
</g>
<defs>
<clipPath id="clip0_133_181">
<rect width="512" height="512" fill="white"/>
</clipPath>
</defs>
</svg>
