<?xml version="1.0" encoding="UTF-8"?>
<!DOCTYPE svg PUBLIC "-//W3C//DTD SVG 1.1//EN" "http://www.w3.org/Graphics/SVG/1.1/DTD/svg11.dtd">
<svg xmlns="http://www.w3.org/2000/svg" version="1.1" width="502px" height="512px" style="shape-rendering:geometricPrecision; text-rendering:geometricPrecision; image-rendering:optimizeQuality; fill-rule:evenodd; clip-rule:evenodd" xmlns:xlink="http://www.w3.org/1999/xlink">
<g><path style="opacity:0.982" fill="#030202" d="M 358.5,-0.5 C 367.167,-0.5 375.833,-0.5 384.5,-0.5C 405.878,5.78811 420.378,19.4548 428,40.5C 429.145,115.142 429.979,189.809 430.5,264.5C 470.107,286.039 493.773,319.039 501.5,363.5C 501.5,375.167 501.5,386.833 501.5,398.5C 492.73,448.825 464.73,483.991 417.5,504C 408.28,507.469 398.946,509.969 389.5,511.5C 377.5,511.5 365.5,511.5 353.5,511.5C 327.816,507.577 304.983,497.243 285,480.5C 258.062,498.312 228.562,508.645 196.5,511.5C 181.167,511.5 165.833,511.5 150.5,511.5C 112.772,508.091 79.1053,494.591 49.5,471C 20.4447,444.056 3.77808,410.889 -0.5,371.5C -0.5,355.833 -0.5,340.167 -0.5,324.5C 9.70955,261.365 34.3762,204.531 73.5,154C 75.9964,151.884 78.6631,151.384 81.5,152.5C 83.6562,154.802 85.3228,157.469 86.5,160.5C 68.9639,186.227 53.4639,213.227 40,241.5C 30.0541,263.671 22.7208,286.671 18,310.5C 9.71876,350.649 14.7188,388.982 33,425.5C 55.1843,461.325 87.0177,483.492 128.5,492C 164.582,499.104 200.248,497.438 235.5,487C 243.941,484.274 251.941,480.774 259.5,476.5C 264.821,474.507 269.488,471.507 273.5,467.5C 236.4,420.011 231.566,369.345 259,315.5C 271.88,293.978 289.38,277.311 311.5,265.5C 313.395,263.133 313.895,260.466 313,257.5C 294.759,212.989 270.425,172.322 240,135.5C 221.604,113.433 202.104,92.266 181.5,72C 176.69,67.8806 171.69,67.5473 166.5,71C 160.964,76.3686 155.63,81.8686 150.5,87.5C 133.331,105.171 116.664,123.337 100.5,142C 97.0187,143.999 93.6854,143.832 90.5,141.5C 88.615,139.205 88.115,136.538 89,133.5C 108.273,107.549 129.773,83.3818 153.5,61C 163.607,51.6312 174.94,49.9646 187.5,56C 237.21,101.983 278.376,154.483 311,213.5C 311.342,156.473 312.342,99.4733 314,42.5C 321.217,20.1136 336.05,5.78026 358.5,-0.5 Z"/></g>
<g><path style="opacity:1" fill="#d1e6f1" d="M 326.5,273.5 C 327.302,272.048 327.802,270.382 328,268.5C 328.5,248.836 328.667,229.169 328.5,209.5C 334.833,209.5 341.167,209.5 347.5,209.5C 347.5,235.5 347.5,261.5 347.5,287.5C 297.127,305.904 273.627,341.904 277,395.5C 285.032,435.534 308.532,461.7 347.5,474C 382.566,481.396 413.066,472.896 439,448.5C 440.735,445.21 440.901,441.877 439.5,438.5C 441.338,433.335 444.338,429.001 448.5,425.5C 451.862,425.93 454.695,424.93 457,422.5C 471.636,389.53 469.303,357.863 450,327.5C 435.981,308.666 417.814,295.333 395.5,287.5C 394.667,208.169 394.167,128.835 394,49.5C 385.589,34.869 373.755,31.0357 358.5,38C 354.522,41.136 351.522,44.9694 349.5,49.5C 342.833,49.5 336.167,49.5 329.5,49.5C 329.5,48.5 329.5,47.5 329.5,46.5C 338.581,22.13 355.914,11.9633 381.5,16C 400.133,21.2956 410.966,33.4622 414,52.5C 414.333,126.167 414.667,199.833 415,273.5C 471.929,303.027 494.262,349.36 482,412.5C 463.376,466.272 425.543,494.272 368.5,496.5C 320.996,493.14 286.829,470.14 266,427.5C 245.881,374.145 257.048,328.645 299.5,291C 308.565,285.143 317.565,279.309 326.5,273.5 Z"/></g>
<g><path style="opacity:1" fill="#7c7c82" d="M 329.5,46.5 C 329.5,47.5 329.5,48.5 329.5,49.5C 336.167,49.5 342.833,49.5 349.5,49.5C 342.687,50.4912 335.687,50.8245 328.5,50.5C 328.232,48.901 328.566,47.5676 329.5,46.5 Z"/></g>
<g><path style="opacity:1" fill="#fd6d7f" d="M 448.5,425.5 C 444.338,429.001 441.338,433.335 439.5,438.5C 437.277,436.221 434.611,435.388 431.5,436C 405.169,460.662 374.835,467.328 340.5,456C 303.553,437.617 287.387,407.783 292,366.5C 296.094,346.807 305.927,330.641 321.5,318C 334.734,310.219 348.067,302.719 361.5,295.5C 362.29,294.391 362.79,293.058 363,291.5C 363.5,212.501 363.667,133.501 363.5,54.5C 368.155,48.1978 373.321,47.8645 379,53.5C 379.333,133.833 379.667,214.167 380,294.5C 382.383,297.273 385.217,299.439 388.5,301C 405.727,306.858 420.561,316.358 433,329.5C 446.883,347.485 452.883,367.819 451,390.5C 449.29,399.761 447.123,408.927 444.5,418C 444.603,419.561 444.937,421.061 445.5,422.5C 446.77,423.288 447.77,424.288 448.5,425.5 Z"/></g>
<g><path style="opacity:1" fill="#d3e9f4" d="M 328.5,65.5 C 334.833,65.5 341.167,65.5 347.5,65.5C 347.5,72.1667 347.5,78.8333 347.5,85.5C 341.167,85.5 334.833,85.5 328.5,85.5C 328.5,78.8333 328.5,72.1667 328.5,65.5 Z"/></g>
<g><path style="opacity:1" fill="#58c1e7" d="M 259.5,476.5 C 223.325,485.264 186.992,485.764 150.5,478C 88.4144,461.253 51.2478,421.419 39,358.5C 34.2502,318.963 38.9169,280.63 53,243.5C 68.0175,204.786 87.6842,168.786 112,135.5C 124.61,119.256 137.443,103.256 150.5,87.5C 155.63,81.8686 160.964,76.3686 166.5,71C 171.69,67.5473 176.69,67.8806 181.5,72C 202.104,92.266 221.604,113.433 240,135.5C 270.425,172.322 294.759,212.989 313,257.5C 313.895,260.466 313.395,263.133 311.5,265.5C 289.38,277.311 271.88,293.978 259,315.5C 231.566,369.345 236.4,420.011 273.5,467.5C 269.488,471.507 264.821,474.507 259.5,476.5 Z"/></g>
<g><path style="opacity:1" fill="#746d72" d="M 328.5,65.5 C 328.5,72.1667 328.5,78.8333 328.5,85.5C 334.833,85.5 341.167,85.5 347.5,85.5C 341.021,86.4907 334.354,86.824 327.5,86.5C 327.175,79.3134 327.509,72.3134 328.5,65.5 Z"/></g>
<g><path style="opacity:1" fill="#d3e9f4" d="M 328.5,101.5 C 334.833,101.5 341.167,101.5 347.5,101.5C 347.5,108.167 347.5,114.833 347.5,121.5C 341.167,121.5 334.833,121.5 328.5,121.5C 328.5,114.833 328.5,108.167 328.5,101.5 Z"/></g>
<g><path style="opacity:1" fill="#0295ce" d="M 150.5,87.5 C 137.443,103.256 124.61,119.256 112,135.5C 87.6842,168.786 68.0175,204.786 53,243.5C 38.9169,280.63 34.2502,318.963 39,358.5C 51.2478,421.419 88.4144,461.253 150.5,478C 186.992,485.764 223.325,485.264 259.5,476.5C 251.941,480.774 243.941,484.274 235.5,487C 200.248,497.438 164.582,499.104 128.5,492C 87.0177,483.492 55.1843,461.325 33,425.5C 14.7188,388.982 9.71876,350.649 18,310.5C 22.7208,286.671 30.0541,263.671 40,241.5C 53.4639,213.227 68.9639,186.227 86.5,160.5C 85.3228,157.469 83.6562,154.802 81.5,152.5C 85.6046,149.73 88.6046,146.063 90.5,141.5C 93.6854,143.832 97.0187,143.999 100.5,142C 116.664,123.337 133.331,105.171 150.5,87.5 Z"/></g>
<g><path style="opacity:1" fill="#746d72" d="M 328.5,101.5 C 328.5,108.167 328.5,114.833 328.5,121.5C 334.833,121.5 341.167,121.5 347.5,121.5C 341.021,122.491 334.354,122.824 327.5,122.5C 327.175,115.313 327.509,108.313 328.5,101.5 Z"/></g>
<g><path style="opacity:1" fill="#d3e9f4" d="M 328.5,137.5 C 334.833,137.5 341.167,137.5 347.5,137.5C 347.5,144.167 347.5,150.833 347.5,157.5C 341.167,157.5 334.833,157.5 328.5,157.5C 328.5,150.833 328.5,144.167 328.5,137.5 Z"/></g>
<g><path style="opacity:1" fill="#746d72" d="M 328.5,137.5 C 328.5,144.167 328.5,150.833 328.5,157.5C 334.833,157.5 341.167,157.5 347.5,157.5C 341.021,158.491 334.354,158.824 327.5,158.5C 327.175,151.313 327.509,144.313 328.5,137.5 Z"/></g>
<g><path style="opacity:1" fill="#d3e9f4" d="M 328.5,173.5 C 334.833,173.5 341.167,173.5 347.5,173.5C 347.5,180.167 347.5,186.833 347.5,193.5C 341.167,193.5 334.833,193.5 328.5,193.5C 328.5,186.833 328.5,180.167 328.5,173.5 Z"/></g>
<g><path style="opacity:1" fill="#746d72" d="M 328.5,173.5 C 328.5,180.167 328.5,186.833 328.5,193.5C 334.833,193.5 341.167,193.5 347.5,193.5C 341.021,194.491 334.354,194.824 327.5,194.5C 327.175,187.313 327.509,180.313 328.5,173.5 Z"/></g>
<g><path style="opacity:1" fill="#613d43" d="M 328.5,209.5 C 328.667,229.169 328.5,248.836 328,268.5C 327.802,270.382 327.302,272.048 326.5,273.5C 326.927,252 327.594,230.666 328.5,209.5 Z"/></g>
<g><path style="opacity:1" fill="#3b1b1f" d="M 328.5,209.5 C 334.979,208.509 341.646,208.176 348.5,208.5C 348.831,235.005 348.498,261.339 347.5,287.5C 347.5,261.5 347.5,235.5 347.5,209.5C 341.167,209.5 334.833,209.5 328.5,209.5 Z"/></g>
<g><path style="opacity:1" fill="#060608" d="M 99.5,266.5 C 103.888,265.943 107.055,267.61 109,271.5C 109.936,278.297 109.436,284.964 107.5,291.5C 104.451,293.466 101.118,293.966 97.5,293C 95.9963,291.509 95.1629,289.676 95,287.5C 94.3333,282.167 94.3333,276.833 95,271.5C 96.025,269.313 97.525,267.646 99.5,266.5 Z"/></g>
<g><path style="opacity:1" fill="#07080a" d="M 241.5,266.5 C 246.28,265.641 249.78,267.308 252,271.5C 252.667,277.5 252.667,283.5 252,289.5C 247.086,294.701 242.419,294.701 238,289.5C 237.333,283.167 237.333,276.833 238,270.5C 239.376,269.295 240.542,267.962 241.5,266.5 Z"/></g>
<g><path style="opacity:1" fill="#b74f5c" d="M 363.5,54.5 C 363.667,133.501 363.5,212.501 363,291.5C 362.79,293.058 362.29,294.391 361.5,295.5C 362.144,215.01 362.81,134.677 363.5,54.5 Z"/></g>
<g><path style="opacity:1" fill="#030405" d="M 152.5,278.5 C 158.194,279.012 163.194,281.179 167.5,285C 169.278,285.704 171.112,286.204 173,286.5C 179.415,284.623 185.415,281.956 191,278.5C 197.484,279.803 199.484,283.47 197,289.5C 185.174,301.493 171.674,303.66 156.5,296C 148.211,291.376 146.877,285.542 152.5,278.5 Z"/></g>
</svg>
