<svg width="20" height="22" viewBox="0 0 20 22" fill="none" xmlns="http://www.w3.org/2000/svg">
<path d="M2.74869 16.4965H17.097C17.5386 16.4966 17.9737 16.3902 18.3655 16.1865C18.7573 15.9828 19.0942 15.6877 19.3479 15.3262C19.6015 14.9647 19.7643 14.5474 19.8225 14.1097C19.8807 13.6719 19.8327 13.2266 19.6824 12.8114L17.0686 5.585C16.6222 3.97906 15.6621 2.56355 14.335 1.55495C13.008 0.546356 11.3871 0.000194364 9.72031 9.3234e-10C7.98518 -2.71206e-05 6.30191 0.591665 4.94842 1.67738C3.59494 2.7631 2.65218 4.27793 2.27579 5.97175L0.122074 12.937C-0.00472923 13.3482 -0.0332359 13.7834 0.0388481 14.2077C0.110932 14.6319 0.281594 15.0333 0.537102 15.3796C0.79261 15.7259 1.12583 16.0073 1.50995 16.2013C1.89407 16.3953 2.31836 16.4964 2.74869 16.4965Z" fill="#7400B8"/>
<path d="M5.52734 18.3295C5.73769 19.3654 6.29968 20.2967 7.11811 20.9656C7.93653 21.6346 8.96105 22 10.0181 22C11.0751 22 12.0996 21.6346 12.918 20.9656C13.7365 20.2967 14.2985 19.3654 14.5088 18.3295H5.52734Z" fill="#7400B8"/>
</svg>
