<svg width="22" height="22" viewBox="0 0 22 22" fill="none" xmlns="http://www.w3.org/2000/svg">
<path d="M15.5833 16.4966V22H19.25C20.7688 22 22 20.768 22 19.2483V10.8822C22.0002 10.4057 21.8151 9.94775 21.4839 9.60538L13.6941 1.17869C12.3196 -0.309387 9.99982 -0.400753 8.51267 0.974588C8.44203 1.03994 8.37396 1.108 8.30869 1.17869L0.532598 9.60263C0.19134 9.94642 -0.000128841 10.4114 6.50474e-08 10.8959V19.2483C6.50474e-08 20.768 1.23123 22 2.75 22H6.41665V16.4966C6.4338 13.9954 8.45191 11.953 10.8885 11.8942C13.4067 11.8334 15.5641 13.9106 15.5833 16.4966Z" fill="#7400B8"/>
<path d="M11 13.7448C9.48123 13.7448 8.25 14.9768 8.25 16.4966V22H13.75V16.4966C13.75 14.9768 12.5188 13.7448 11 13.7448Z" fill="#7400B8"/>
</svg>
