<svg width="22" height="22" viewBox="0 0 22 22" fill="none" xmlns="http://www.w3.org/2000/svg">
<path d="M19.7083 16.5C19.5131 16.5 19.3178 16.4258 19.1684 16.2763L18.5359 15.6438C17.8145 14.9224 17.4167 13.9636 17.4167 12.9424V2.29167C17.4167 1.02758 18.4443 0 19.7083 0C20.9724 0 22 1.02758 22 2.29167V12.9424C22 13.9627 21.6022 14.9224 20.8808 15.6438L20.2483 16.2763C20.0988 16.4258 19.9036 16.5 19.7083 16.5ZM11.9167 0H3.66667C1.64175 0 0 1.64175 0 3.66667V19.5773C0 20.7763 0.862583 21.868 2.05517 21.9881C3.4265 22.1256 4.58333 21.0522 4.58333 19.7083V19.25C4.58333 17.7311 5.81442 16.5 7.33333 16.5H15.5833V3.66667C15.5833 1.64175 13.9416 0 11.9167 0ZM8.91642 10.2731L6.919 12.2705C6.54408 12.6454 6.05183 12.8324 5.55958 12.8324C5.06733 12.8324 4.57508 12.6454 4.20017 12.2705L3.0195 11.0889C2.66108 10.7305 2.66108 10.1502 3.0195 9.79275C3.37792 9.43433 3.95725 9.43433 4.31567 9.79275L5.49633 10.9743C5.52658 11.0046 5.59258 11.0046 5.62375 10.9743L7.62117 8.97692C7.97958 8.6185 8.55892 8.6185 8.91733 8.97692C9.27575 9.33533 9.27483 9.91467 8.91642 10.2731ZM8.91642 4.77308L6.919 6.7705C6.54408 7.14542 6.05183 7.33242 5.55958 7.33242C5.06733 7.33242 4.57508 7.14542 4.20017 6.7705L3.0195 5.58892C2.66108 5.2305 2.66108 4.65025 3.0195 4.29275C3.37792 3.93433 3.95725 3.93433 4.31567 4.29275L5.49633 5.47433C5.52658 5.50458 5.59258 5.50458 5.62375 5.47433L7.62117 3.47692C7.97958 3.1185 8.55892 3.1185 8.91733 3.47692C9.27575 3.83533 9.27483 4.41467 8.91642 4.77308ZM15.5833 22H5.72C6.16 21.3437 6.41667 20.5553 6.41667 19.7083V19.25C6.41667 18.744 6.82733 18.3333 7.33333 18.3333H17.4167C17.9227 18.3333 18.3333 18.744 18.3333 19.25C18.3333 20.7689 17.1023 22 15.5833 22Z" fill="#7400B8"/>
</svg>
