<svg width="801" height="800" viewBox="0 0 801 800" fill="none" xmlns="http://www.w3.org/2000/svg">
<path fill-rule="evenodd" clip-rule="evenodd" d="M387.985 1.68975C376.135 6.03775 369.063 12.5507 362.824 24.8617L360.543 29.3617L360.043 194.362L359.543 359.362L194.543 359.862L29.543 360.362L25.043 362.643C15.784 367.335 11.021 371.386 6.55701 378.362C-7.00499 399.556 1.103 425.335 25.043 437.143L29.543 439.362L194.543 439.862L359.543 440.362L360.043 605.362L360.543 770.362L362.824 774.862C367.52 784.128 371.573 788.892 378.543 793.338C399.722 806.848 425.553 798.729 437.324 774.862L439.543 770.362L440.043 605.362L440.543 440.362L605.543 439.862C768.022 439.37 770.604 439.331 774.556 437.362C783.248 433.03 793.182 424.194 794.649 419.492C795.014 418.32 795.624 417.137 796.005 416.862C797.625 415.691 800.043 405.514 800.043 399.862C800.043 386.793 792.487 373.067 781.481 366.143C780.415 365.472 777.518 363.897 775.043 362.643L770.543 360.362L605.543 359.862L440.543 359.362L440.043 194.362L439.543 29.3617L437.324 24.8617C431.737 13.5347 422.135 4.83175 411.538 1.49175C404.983 -0.574252 393.901 -0.481252 387.985 1.68975Z" fill="black"/>
</svg>
