<svg width="7" height="7" viewBox="0 0 7 7" fill="none" xmlns="http://www.w3.org/2000/svg">
<path d="M6.6475 1.0575C6.84218 0.862819 6.84218 0.54718 6.6475 0.3525C6.45282 0.15782 6.13718 0.15782 5.9425 0.3525L3.5 2.795L1.0575 0.3525C0.86282 0.15782 0.54718 0.15782 0.3525 0.3525C0.15782 0.54718 0.15782 0.86282 0.3525 1.0575L2.795 3.5L0.3525 5.9425C0.15782 6.13718 0.15782 6.45282 0.3525 6.6475C0.54718 6.84218 0.862819 6.84218 1.0575 6.6475L3.5 4.205L5.9425 6.6475C6.13718 6.84218 6.45282 6.84218 6.6475 6.6475C6.84218 6.45282 6.84218 6.13718 6.6475 5.9425L4.205 3.5L6.6475 1.0575Z" fill="#F4F5F7"/>
</svg>
