<svg width="20" height="20" viewBox="0 0 20 20" fill="none" xmlns="http://www.w3.org/2000/svg">
<path fill-rule="evenodd" clip-rule="evenodd" d="M13.4803 0.0649559C12.877 0.225196 12.2719 0.640178 11.8884 1.15657C11.7208 1.38234 11.4052 2.00149 11.4052 2.10469C11.4052 2.14134 10.1044 2.10436 6.01791 2.10469H0.758903L0.5 2.15278C0.270252 2.26562 0.184345 2.43747 0.0771297 2.68465C-0.0655642 3.01359 0.00156289 3.37574 0.254129 3.63956C0.510017 3.90684 0.0951033 3.88809 6.01791 3.9001L11.3951 3.91101L11.4632 4.10438C11.7942 5.04499 12.6491 5.80713 13.6014 6.01068C14.9377 6.29623 16.3334 5.50561 16.8454 4.17302L16.9387 3.93005L18.1476 3.90933C19.4547 3.88694 19.5064 3.87849 19.7393 3.64965C19.884 3.50751 19.9994 3.23364 20 3.0312C20.0005 2.85082 19.8588 2.49802 19.7424 2.38995C19.7013 2.35187 19.5889 2.28332 19.4926 2.23764C19.329 2.16005 19.2394 2.15449 18.1347 2.15368L16.9519 2.15278L16.909 2.04042C16.7749 1.68914 16.5691 1.30994 16.3876 1.07984C16.0415 0.641118 15.4989 0.265563 14.9548 0.0882034C14.6274 -0.0185554 13.8412 -0.030935 13.4803 0.0649559ZM14.6696 1.8448C15.1957 2.08904 15.4864 2.66316 15.3834 3.2546C15.3328 3.54481 15.2393 3.7314 15.04 3.93981C14.7767 4.21515 14.5729 4.29788 14.1599 4.29706C13.8682 4.29649 13.7782 4.28003 13.6324 4.20081C13.3929 4.07064 13.1773 3.84813 13.0534 3.60319C12.9641 3.42657 12.95 3.34915 12.9494 3.0312C12.9485 2.59946 13.0276 2.38623 13.2906 2.11119C13.4895 1.90322 13.6289 1.82392 13.9059 1.76117C14.1742 1.70037 14.4153 1.72676 14.6696 1.8448ZM5.46617 6.97192C4.5101 7.11414 3.67171 7.74403 3.26188 8.62796C3.16798 8.83053 3.08101 9.02844 3.06862 9.06779C3.04783 9.13381 2.95379 9.13937 1.84338 9.14019C0.493567 9.14121 0.444844 9.15003 0.202905 9.43819C-0.067635 9.76035 -0.067635 10.2342 0.202905 10.5564C0.444844 10.8445 0.493567 10.8534 1.84338 10.8544C2.95379 10.8552 3.04783 10.8607 3.06862 10.9268C3.08101 10.9661 3.16798 11.164 3.26188 11.3666C3.62174 12.1428 4.31856 12.7296 5.15585 12.9615C5.46003 13.0458 6.09043 13.0562 6.42345 12.9824C7.34264 12.7787 8.13023 12.0795 8.51666 11.1241L8.61715 10.8757L14.0259 10.8553C20.0525 10.8325 19.5398 10.8594 19.798 10.552C20.0633 10.2361 20.0633 9.75847 19.798 9.44252C19.5398 9.13512 20.0525 9.16204 14.0259 9.13929L8.61715 9.11886L8.51666 8.87041C8.20545 8.10108 7.66831 7.52385 6.95574 7.19316C6.54169 7.00097 5.9057 6.9065 5.46617 6.97192ZM6.1558 8.74686C6.39422 8.81325 6.67434 9.00524 6.8159 9.19926C7.14821 9.65486 7.14724 10.341 6.81363 10.7984C6.67047 10.9946 6.34769 11.2047 6.0968 11.2648C5.08736 11.5067 4.25237 10.3729 4.72777 9.40584C5.00124 8.84957 5.57456 8.58502 6.1558 8.74686ZM13.5738 13.987C12.6426 14.194 11.7894 14.9634 11.4632 15.8902L11.3951 16.0835L6.01791 16.0945C0.0951033 16.1065 0.510017 16.0877 0.254129 16.355C0.00156289 16.6188 -0.0655642 16.981 0.0771297 17.3099C0.184345 17.5571 0.254637 17.6322 0.484385 17.745L0.679749 17.841L6.04249 17.8414C10.129 17.8417 11.4052 17.8532 11.4052 17.8899C11.4052 17.9931 11.7208 18.6122 11.8884 18.838C12.2877 19.3757 12.9402 19.8067 13.5697 19.9485C13.9411 20.0322 14.6291 20.0109 14.9548 19.9057C15.4962 19.7309 16.0411 19.354 16.3876 18.9147C16.5691 18.6846 16.7749 18.3054 16.909 17.9541L16.9519 17.8418L18.1347 17.8414C19.2941 17.841 19.3213 17.8391 19.5128 17.745C19.7426 17.6322 19.8129 17.5571 19.9201 17.3099C20.108 16.8767 19.9208 16.3774 19.4933 16.1717C19.3803 16.1174 19.1464 16.1023 18.1476 16.0852L16.9387 16.0645L16.8454 15.8215C16.3309 14.4826 14.9153 13.6888 13.5738 13.987ZM14.695 15.7919C14.9109 15.9024 15.1725 16.164 15.273 16.3701C15.4414 16.7152 15.4427 17.2088 15.2763 17.55C14.9647 18.1885 14.1993 18.451 13.5925 18.1274C13.3959 18.0224 13.1455 17.7491 13.039 17.5229C12.9084 17.2457 12.9096 16.6768 13.0413 16.4118C13.2051 16.0822 13.4931 15.8262 13.8277 15.7126C14.0187 15.6477 14.499 15.6917 14.695 15.7919Z" fill="#333333"/>
</svg>
