<svg width="193" height="204" viewBox="0 0 193 204" fill="none" xmlns="http://www.w3.org/2000/svg">
<path d="M175.082 45.4028H17.6582V195.366H175.082V45.4028Z" fill="#5D917E"/>
<path d="M158.732 132.477H102.358V195.366H158.732V132.477Z" fill="#4D7C69"/>
<path d="M179.405 189.47H108.189V199.47H179.405V189.47Z" fill="#3E6353"/>
<path d="M136.94 144.686H124.15V176.828H136.94V144.686Z" fill="#93D1CF"/>
<path d="M137.613 177.502H123.477V144.013H137.613V177.502ZM124.824 176.156H136.267V145.36H124.824V176.156Z" fill="#475454"/>
<path d="M136.94 160.084H124.15V161.43H136.94V160.084Z" fill="#475454"/>
<path d="M158.041 144.686H145.251V176.828H158.041V144.686Z" fill="#93D1CF"/>
<path d="M158.714 177.502H144.578V144.013H158.714V177.502ZM145.924 176.156H157.367V145.36H145.924V176.156Z" fill="#475454"/>
<path d="M158.041 160.084H145.251V161.43H158.041V160.084Z" fill="#475454"/>
<path d="M175.082 45.4028H17.3423V83.2128H175.082V45.4028Z" fill="#4D7C69"/>
<path d="M184.039 70.4796H7.74219L17.3422 31.1406H175.082L184.039 70.4796Z" fill="#475454"/>
<path d="M42.6011 53.4986L28.4961 31.1406H43.6181L42.6011 53.4986Z" fill="#363F3F"/>
<path d="M114.686 200.676H17.6582V103.096L66.1722 72.5527L114.686 103.096V200.676Z" fill="#7BB6A4"/>
<path d="M114.686 128.751H17.6582V144.662H114.686V128.751Z" fill="#6DA894"/>
<path d="M55.6982 109.137H40.9832V114.761H55.6982V109.137Z" fill="#4D7C69"/>
<path d="M83.4551 137.404H66.1721V143.028H83.4551V137.404Z" fill="#4D7C69"/>
<path d="M108.053 137.404H90.7703V143.028H108.053V137.404Z" fill="#4D7C69"/>
<path d="M73.5292 109.137H58.8142V114.761H73.5292V109.137Z" fill="#4D7C69"/>
<path d="M91.3612 109.137H76.6462V114.761H91.3612V109.137Z" fill="#4D7C69"/>
<path d="M66.1722 72.5527L17.6582 103.096V120.79L66.1722 90.2467L114.686 120.79V103.096L66.1722 72.5527Z" fill="#6DA894"/>
<path d="M66.1722 72.5527L7.74219 109.338V117.268L66.1722 80.4817L124.602 117.268V109.338L66.1722 72.5527Z" fill="#475454"/>
<path d="M54.1161 200.825H34.7241V157.789C34.7241 152.434 39.0651 148.093 44.4201 148.093C49.7751 148.093 54.1161 152.434 54.1161 157.789V200.825Z" fill="#637777"/>
<path d="M44.8282 148.093H44.0122V200.825H44.8282V148.093Z" fill="#475454"/>
<path d="M54.5541 158.51H34.2871V159.314H54.5541V158.51Z" fill="#475454"/>
<path d="M54.5541 168.886H34.2871V169.69H54.5541V168.886Z" fill="#475454"/>
<path d="M54.5541 179.262H34.2871V180.066H54.5541V179.262Z" fill="#475454"/>
<path d="M54.5541 189.639H34.2871V190.443H54.5541V189.639Z" fill="#475454"/>
<path d="M55.4081 200.706V158.227C55.4081 152.169 50.4791 147.241 44.4211 147.241C38.3621 147.241 33.4341 152.17 33.4341 158.227V200.706H35.1411V158.227C35.1411 153.11 39.3041 148.947 44.4221 148.947C49.5401 148.947 53.7031 153.11 53.7031 158.227V200.706H55.4081Z" fill="#475454"/>
<path d="M89.7431 53.499V17.382L66.1721 2.54297L42.6011 17.382V53.499H89.7431Z" fill="#7BB6A4"/>
<path d="M66.1721 2.54297L42.6011 17.382V25.979L66.1721 11.139L89.7431 25.979V17.382L66.1721 2.54297Z" fill="#6DA894"/>
<path d="M66.1722 0.923828L37.7842 18.7968V24.2678L66.1722 6.39483L94.5602 24.2678V18.7968L66.1722 0.923828Z" fill="#475454"/>
<path d="M163.259 130.397H154.206V200.675H163.259V130.397Z" fill="#7BB6A4"/>
<path d="M163.259 130.397H154.206V144.662H163.259V130.397Z" fill="#6DA894"/>
<path d="M168.928 124.109H11.5562V133.191H168.928V124.109Z" fill="#475454"/>
<path d="M71.9093 38.0676H60.4353V23.9346H66.1723H71.9093V38.0676Z" fill="#B2EAEA"/>
<path d="M72.5233 38.6818H59.8213V23.3208H72.5233V38.6818ZM61.0503 37.4528H71.2943V24.5498H61.0503V37.4528Z" fill="#475454"/>
<path d="M66.7873 23.9346H65.5583V38.0666H66.7873V23.9346Z" fill="#475454"/>
<path d="M71.4821 30.3867H60.8062V31.6157H71.4821V30.3867Z" fill="#475454"/>
<path d="M143.508 80.333H127.871V119.63H143.508V80.333Z" fill="#B2EAEA"/>
<path d="M144.33 120.453H127.047V79.5098H144.33V120.453ZM128.694 118.807H142.685V81.1558H128.694V118.807Z" fill="#475454"/>
<path d="M143.508 99.1577H127.871V100.804H143.508V99.1577Z" fill="#475454"/>
<path d="M168.106 80.333H152.469V119.63H168.106V80.333Z" fill="#B2EAEA"/>
<path d="M168.928 120.453H151.645V79.5098H168.928V120.453ZM153.292 118.807H167.283V81.1558H153.292V118.807Z" fill="#475454"/>
<path d="M168.106 99.1577H152.469V100.804H168.106V99.1577Z" fill="#475454"/>
<path d="M82.6321 148.062H66.9951V187.359H82.6321V148.062Z" fill="#B2EAEA"/>
<path d="M83.4551 188.184H66.1721V147.24H83.4551V188.184ZM67.8181 186.538H81.8091V148.887H67.8181V186.538Z" fill="#475454"/>
<path d="M82.6321 166.889H66.9951V168.535H82.6321V166.889Z" fill="#475454"/>
<path d="M107.23 148.062H91.5933V187.359H107.23V148.062Z" fill="#B2EAEA"/>
<path d="M108.053 188.184H90.7703V147.24H108.053V188.184ZM92.4163 186.538H106.407V148.887H92.4163V186.538Z" fill="#475454"/>
<path d="M107.23 166.889H91.5933V168.535H107.23V166.889Z" fill="#475454"/>
<path d="M192.504 203.572H0.960205C0.960205 200.942 3.0922 198.81 5.7222 198.81H187.743C190.372 198.81 192.504 200.942 192.504 203.572Z" fill="#83A152"/>
<path d="M56.9053 198.81H31.5303V203.572H56.9053V198.81Z" fill="#EFEFEF"/>
<path d="M56.9053 200H31.5303V201.191H56.9053V200Z" fill="#D6D6D6"/>
<path d="M56.9053 202.381H31.5303V203.572H56.9053V202.381Z" fill="#D6D6D6"/>
<path d="M80.8512 197.31C80.8652 196.926 80.7322 196.574 80.5082 196.296C80.6652 196.19 80.7772 196.022 80.7852 195.818C80.7902 195.681 80.7412 195.559 80.6692 195.454C80.7492 195.354 80.8072 195.236 80.8122 195.099C80.8242 194.76 80.5592 194.474 80.2202 194.462C80.1142 194.458 80.0182 194.489 79.9292 194.533C79.9342 194.505 79.9472 194.481 79.9482 194.452C79.9612 194.113 79.6952 193.827 79.3562 193.815C79.2192 193.81 79.0982 193.859 78.9932 193.931C79.0042 193.889 79.0222 193.849 79.0242 193.803C79.0292 193.675 78.9852 193.561 78.9212 193.46C79.0662 193.353 79.1672 193.19 79.1742 192.996C79.1872 192.657 78.9212 192.371 78.5822 192.359C78.4692 192.355 78.3672 192.39 78.2742 192.44C78.1112 192.015 77.7082 191.706 77.2242 191.689C76.9342 191.678 76.6722 191.786 76.4612 191.954C76.1982 191.251 75.5342 190.739 74.7372 190.71C73.7372 190.673 72.8962 191.414 72.7752 192.389C72.7222 192.376 72.6732 192.353 72.6162 192.351C72.3402 192.341 72.1022 192.476 71.9432 192.678C71.9212 192.675 71.9032 192.664 71.8812 192.663C71.5582 192.651 71.2872 192.903 71.2752 193.226C71.2722 193.299 71.2872 193.367 71.3092 193.432C71.2882 193.428 71.2702 193.418 71.2482 193.417C70.9732 193.407 70.7412 193.622 70.7312 193.897C70.7282 193.989 70.7572 194.073 70.7982 194.149C70.7442 194.136 70.6952 194.113 70.6372 194.11C70.1702 194.093 69.7772 194.458 69.7602 194.925C69.7522 195.134 69.8302 195.322 69.9502 195.475C69.8782 195.408 69.7862 195.362 69.6802 195.359C69.4442 195.35 69.2462 195.535 69.2372 195.77C69.2302 195.956 69.3462 196.115 69.5102 196.18C69.3102 196.295 69.1662 196.497 69.1562 196.744C69.1422 197.126 69.4402 197.446 69.8222 197.46C69.8252 197.46 69.8282 197.458 69.8322 197.458C69.8412 197.71 69.9822 197.927 70.1932 198.04C70.1812 198.42 70.4782 198.739 70.8582 198.753C70.8442 199.135 71.1422 199.455 71.5242 199.469C71.8652 199.482 72.1442 199.24 72.2132 198.918C72.3142 198.999 72.4342 199.058 72.5742 199.063C72.6862 199.067 72.7882 199.033 72.8802 198.985C72.9362 199.123 73.0682 199.224 73.2262 199.23C73.3312 199.234 73.4272 199.195 73.4992 199.13C73.5582 199.396 73.7802 199.603 74.0662 199.614C74.2972 199.622 74.4962 199.497 74.6082 199.312C74.8902 199.63 75.2942 199.838 75.7522 199.855C76.1832 199.871 76.5802 199.713 76.8792 199.448C77.0742 199.773 77.4072 200.008 77.8142 200.023C78.2922 200.041 78.7112 199.766 78.9042 199.36C79.0052 199.542 79.1872 199.674 79.4112 199.682C79.7502 199.694 80.0362 199.429 80.0482 199.09C80.0542 198.929 79.9942 198.783 79.8972 198.669C80.4382 198.449 80.8282 197.931 80.8512 197.31ZM74.4242 196.798C74.4162 196.79 74.4062 196.786 74.3972 196.779C74.4002 196.775 74.4042 196.771 74.4082 196.767C74.4132 196.778 74.4192 196.788 74.4242 196.798Z" fill="#6D8929"/>
<path d="M77.5032 189.517C77.5132 189.23 77.4142 188.967 77.2472 188.76C77.3642 188.681 77.4482 188.555 77.4542 188.403C77.4582 188.3 77.4212 188.209 77.3672 188.131C77.4272 188.057 77.4702 187.968 77.4742 187.866C77.4832 187.612 77.2852 187.399 77.0322 187.39C76.9532 187.387 76.8812 187.41 76.8142 187.443C76.8182 187.422 76.8282 187.404 76.8282 187.383C76.8372 187.129 76.6392 186.916 76.3862 186.907C76.2842 186.903 76.1932 186.94 76.1152 186.993C76.1232 186.961 76.1372 186.932 76.1382 186.898C76.1412 186.802 76.1082 186.717 76.0612 186.642C76.1692 186.562 76.2452 186.441 76.2502 186.296C76.2592 186.042 76.0612 185.829 75.8082 185.82C75.7232 185.817 75.6472 185.843 75.5782 185.881C75.4572 185.563 75.1552 185.333 74.7942 185.32C74.5772 185.312 74.3822 185.392 74.2242 185.518C74.0272 184.993 73.5312 184.611 72.9362 184.589C72.1892 184.562 71.5612 185.115 71.4712 185.843C71.4312 185.833 71.3942 185.816 71.3522 185.814C71.1462 185.806 70.9682 185.908 70.8492 186.059C70.8332 186.057 70.8192 186.049 70.8032 186.048C70.5622 186.039 70.3592 186.227 70.3502 186.468C70.3482 186.522 70.3592 186.573 70.3752 186.622C70.3592 186.619 70.3452 186.612 70.3292 186.611C70.1232 186.603 69.9512 186.764 69.9432 186.97C69.9402 187.039 69.9622 187.101 69.9932 187.158C69.9532 187.148 69.9162 187.131 69.8732 187.129C69.5242 187.116 69.2302 187.389 69.2182 187.738C69.2122 187.894 69.2702 188.035 69.3602 188.149C69.3062 188.099 69.2372 188.065 69.1582 188.062C68.9822 188.055 68.8342 188.193 68.8272 188.369C68.8222 188.508 68.9082 188.627 69.0312 188.675C68.8822 188.761 68.7742 188.912 68.7672 189.096C68.7572 189.381 68.9792 189.621 69.2642 189.631C69.2662 189.631 69.2692 189.63 69.2712 189.63C69.2782 189.818 69.3832 189.98 69.5412 190.065C69.5322 190.349 69.7542 190.587 70.0382 190.598C70.0282 190.883 70.2502 191.123 70.5352 191.133C70.7892 191.142 70.9982 190.962 71.0492 190.722C71.1252 190.783 71.2142 190.827 71.3192 190.831C71.4032 190.834 71.4782 190.809 71.5482 190.772C71.5902 190.875 71.6882 190.95 71.8072 190.955C71.8852 190.958 71.9572 190.929 72.0112 190.88C72.0552 191.079 72.2212 191.234 72.4342 191.241C72.6072 191.247 72.7552 191.154 72.8392 191.016C73.0502 191.253 73.3522 191.409 73.6942 191.421C74.0162 191.433 74.3122 191.315 74.5362 191.117C74.6822 191.36 74.9302 191.536 75.2342 191.547C75.5912 191.56 75.9042 191.355 76.0482 191.052C76.1242 191.188 76.2602 191.287 76.4272 191.293C76.6812 191.302 76.8942 191.104 76.9032 190.851C76.9072 190.731 76.8632 190.621 76.7902 190.537C77.1942 190.368 77.4862 189.981 77.5032 189.517ZM72.7022 189.135C72.6962 189.129 72.6882 189.126 72.6822 189.121C72.6852 189.118 72.6882 189.115 72.6902 189.112C72.6942 189.119 72.6982 189.127 72.7022 189.135Z" fill="#9CC142"/>
<path d="M75.6853 199.989C75.6993 199.599 75.5643 199.242 75.3373 198.961C75.4963 198.853 75.6103 198.683 75.6183 198.476C75.6233 198.337 75.5733 198.213 75.5003 198.106C75.5813 198.005 75.6402 197.885 75.6452 197.746C75.6582 197.402 75.3893 197.112 75.0443 197.1C74.9363 197.096 74.8392 197.127 74.7482 197.172C74.7532 197.144 74.7673 197.119 74.7683 197.09C74.7813 196.746 74.5122 196.456 74.1672 196.444C74.0282 196.439 73.9053 196.488 73.7993 196.561C73.8103 196.518 73.8282 196.478 73.8302 196.431C73.8352 196.301 73.7903 196.186 73.7263 196.083C73.8733 195.974 73.9763 195.809 73.9833 195.612C73.9963 195.268 73.7272 194.978 73.3832 194.966C73.2682 194.962 73.1653 194.997 73.0703 195.048C72.9053 194.617 72.4963 194.304 72.0053 194.286C71.7103 194.275 71.4452 194.384 71.2312 194.554C70.9642 193.841 70.2913 193.322 69.4833 193.292C68.4683 193.255 67.6163 194.006 67.4933 194.995C67.4393 194.982 67.3892 194.958 67.3312 194.956C67.0512 194.946 66.8092 195.083 66.6492 195.288C66.6272 195.285 66.6083 195.274 66.5863 195.273C66.2593 195.261 65.9833 195.517 65.9713 195.844C65.9683 195.918 65.9833 195.987 66.0053 196.053C65.9843 196.05 65.9652 196.039 65.9432 196.038C65.6642 196.028 65.4293 196.246 65.4193 196.525C65.4163 196.619 65.4453 196.703 65.4873 196.78C65.4323 196.767 65.3823 196.743 65.3243 196.741C64.8503 196.723 64.4512 197.094 64.4342 197.568C64.4262 197.78 64.5053 197.971 64.6273 198.126C64.5543 198.058 64.4603 198.012 64.3533 198.008C64.1143 197.999 63.9132 198.186 63.9042 198.425C63.8972 198.614 64.0143 198.775 64.1813 198.84C63.9783 198.957 63.8322 199.161 63.8222 199.412C63.8082 199.799 64.1103 200.124 64.4973 200.139C64.5013 200.139 64.5042 200.137 64.5072 200.137C64.5162 200.393 64.6592 200.613 64.8732 200.727C64.8612 201.112 65.1623 201.436 65.5483 201.45C65.5343 201.837 65.8362 202.162 66.2232 202.177C66.5682 202.19 66.8523 201.945 66.9223 201.618C67.0253 201.7 67.1472 201.76 67.2882 201.765C67.4022 201.769 67.5053 201.735 67.5993 201.686C67.6563 201.826 67.7893 201.928 67.9503 201.934C68.0573 201.938 68.1542 201.898 68.2272 201.833C68.2872 202.103 68.5123 202.313 68.8023 202.324C69.0363 202.333 69.2383 202.205 69.3513 202.018C69.6373 202.34 70.0472 202.551 70.5122 202.569C70.9502 202.585 71.3523 202.425 71.6553 202.156C71.8533 202.486 72.1903 202.724 72.6033 202.74C73.0873 202.758 73.5133 202.479 73.7083 202.067C73.8103 202.252 73.9952 202.386 74.2222 202.394C74.5662 202.407 74.8563 202.138 74.8683 201.793C74.8743 201.63 74.8132 201.481 74.7142 201.366C75.2652 201.144 75.6613 200.619 75.6853 199.989ZM69.1653 199.47C69.1573 199.462 69.1463 199.458 69.1383 199.45C69.1413 199.446 69.1462 199.442 69.1492 199.438C69.1542 199.449 69.1603 199.459 69.1653 199.47Z" fill="#739335"/>
<path d="M75.4902 190.877C75.3522 190.512 75.0892 190.235 74.7712 190.064C74.8762 189.903 74.9152 189.702 74.8422 189.508C74.7932 189.378 74.6992 189.283 74.5902 189.213C74.6262 189.089 74.6332 188.956 74.5842 188.825C74.4622 188.503 74.1022 188.34 73.7802 188.461C73.6792 188.499 73.6012 188.565 73.5352 188.642C73.5292 188.614 73.5322 188.586 73.5212 188.559C73.3992 188.237 73.0392 188.074 72.7172 188.195C72.5872 188.244 72.4932 188.337 72.4232 188.446C72.4172 188.402 72.4182 188.358 72.4022 188.314C72.3562 188.192 72.2702 188.103 72.1712 188.034C72.2642 187.877 72.2962 187.685 72.2262 187.501C72.1052 187.179 71.7452 187.016 71.4222 187.137C71.3142 187.178 71.2332 187.25 71.1662 187.334C70.8472 187 70.3482 186.87 69.8892 187.043C69.6132 187.147 69.4112 187.35 69.2792 187.59C68.7572 187.036 67.9352 186.818 67.1792 187.103C66.2292 187.461 65.7342 188.484 66.0032 189.444C65.9482 189.453 65.8932 189.45 65.8392 189.471C65.5772 189.57 65.4072 189.79 65.3392 190.041C65.3182 190.047 65.2962 190.044 65.2752 190.051C64.9682 190.167 64.8142 190.509 64.9292 190.815C64.9552 190.884 64.9962 190.942 65.0422 190.995C65.0212 191 65.0002 190.997 64.9792 191.005C64.7182 191.104 64.5862 191.395 64.6842 191.657C64.7172 191.745 64.7772 191.811 64.8452 191.866C64.7902 191.875 64.7342 191.872 64.6802 191.893C64.2362 192.06 64.0122 192.556 64.1792 193C64.2542 193.199 64.4002 193.344 64.5722 193.44C64.4782 193.406 64.3742 193.399 64.2742 193.437C64.0502 193.521 63.9372 193.772 64.0212 193.995C64.0882 194.172 64.2582 194.275 64.4372 194.271C64.2952 194.457 64.2392 194.703 64.3282 194.937C64.4652 195.3 64.8692 195.483 65.2322 195.346C65.2352 195.345 65.2372 195.342 65.2412 195.341C65.3482 195.573 65.5652 195.721 65.8072 195.744C65.9452 196.104 66.3482 196.286 66.7092 196.15C66.8462 196.513 67.2502 196.695 67.6132 196.559C67.9362 196.437 68.1032 196.102 68.0412 195.774C68.1672 195.81 68.3032 195.818 68.4362 195.768C68.5432 195.728 68.6242 195.656 68.6922 195.574C68.7982 195.681 68.9612 195.724 69.1122 195.667C69.2122 195.629 69.2862 195.555 69.3282 195.466C69.4882 195.692 69.7772 195.798 70.0482 195.696C70.2672 195.613 70.4042 195.418 70.4362 195.201C70.8252 195.387 71.2842 195.423 71.7202 195.259C72.1302 195.105 72.4382 194.801 72.6142 194.436C72.9242 194.664 73.3282 194.753 73.7142 194.607C74.1682 194.436 74.4522 194.014 74.4732 193.559C74.6392 193.69 74.8612 193.742 75.0742 193.662C75.3962 193.54 75.5592 193.181 75.4372 192.858C75.3792 192.705 75.2662 192.592 75.1302 192.524C75.5502 192.104 75.7122 191.466 75.4902 190.877ZM69.2772 192.921C69.2672 192.917 69.2552 192.917 69.2442 192.913C69.2452 192.908 69.2482 192.903 69.2492 192.897C69.2592 192.906 69.2682 192.913 69.2772 192.921Z" fill="#83A152"/>
<path d="M123.2 197.31C123.214 196.926 123.081 196.574 122.857 196.296C123.014 196.19 123.126 196.022 123.134 195.818C123.139 195.681 123.09 195.559 123.018 195.454C123.098 195.354 123.156 195.236 123.161 195.099C123.173 194.76 122.908 194.474 122.569 194.462C122.463 194.458 122.366 194.489 122.277 194.533C122.282 194.505 122.295 194.481 122.296 194.452C122.309 194.113 122.043 193.827 121.704 193.815C121.567 193.81 121.446 193.859 121.341 193.931C121.352 193.889 121.37 193.849 121.372 193.803C121.377 193.675 121.333 193.561 121.269 193.46C121.414 193.353 121.515 193.19 121.523 192.996C121.535 192.657 121.27 192.371 120.931 192.359C120.818 192.355 120.716 192.39 120.623 192.44C120.46 192.015 120.057 191.706 119.574 191.689C119.284 191.678 119.022 191.786 118.811 191.954C118.548 191.251 117.884 190.739 117.087 190.71C116.087 190.673 115.246 191.414 115.125 192.389C115.072 192.376 115.022 192.353 114.965 192.351C114.689 192.341 114.451 192.476 114.292 192.678C114.27 192.675 114.252 192.664 114.23 192.663C113.907 192.651 113.636 192.903 113.624 193.226C113.621 193.299 113.636 193.367 113.658 193.432C113.637 193.428 113.619 193.418 113.597 193.417C113.322 193.407 113.09 193.622 113.08 193.897C113.077 193.989 113.106 194.073 113.147 194.149C113.093 194.136 113.044 194.113 112.986 194.11C112.519 194.093 112.126 194.458 112.109 194.925C112.101 195.134 112.179 195.322 112.299 195.475C112.227 195.408 112.135 195.362 112.029 195.359C111.793 195.35 111.595 195.535 111.586 195.77C111.579 195.956 111.695 196.115 111.859 196.18C111.659 196.295 111.515 196.497 111.505 196.744C111.491 197.126 111.789 197.446 112.171 197.46C112.174 197.46 112.177 197.458 112.181 197.458C112.19 197.71 112.331 197.927 112.542 198.04C112.53 198.42 112.827 198.739 113.207 198.753C113.193 199.135 113.491 199.455 113.873 199.469C114.214 199.482 114.493 199.24 114.562 198.918C114.663 198.999 114.783 199.058 114.923 199.063C115.035 199.067 115.137 199.033 115.229 198.985C115.285 199.123 115.417 199.224 115.575 199.23C115.68 199.234 115.776 199.195 115.848 199.13C115.907 199.396 116.13 199.603 116.415 199.614C116.646 199.622 116.845 199.497 116.957 199.312C117.239 199.63 117.643 199.838 118.101 199.855C118.532 199.871 118.929 199.713 119.228 199.448C119.423 199.773 119.756 200.008 120.163 200.023C120.641 200.041 121.06 199.766 121.253 199.36C121.354 199.542 121.536 199.674 121.76 199.682C122.1 199.694 122.385 199.429 122.397 199.09C122.403 198.929 122.343 198.783 122.246 198.669C122.787 198.449 123.177 197.931 123.2 197.31ZM116.773 196.798C116.765 196.79 116.755 196.786 116.746 196.779C116.749 196.775 116.753 196.771 116.757 196.767C116.762 196.778 116.768 196.788 116.773 196.798Z" fill="#6D8929"/>
<path d="M119.852 189.517C119.862 189.23 119.763 188.967 119.596 188.76C119.713 188.681 119.797 188.555 119.803 188.403C119.807 188.3 119.77 188.209 119.716 188.131C119.776 188.057 119.819 187.968 119.823 187.866C119.832 187.612 119.634 187.399 119.381 187.39C119.302 187.387 119.23 187.41 119.163 187.443C119.167 187.422 119.177 187.404 119.177 187.383C119.186 187.129 118.988 186.916 118.735 186.907C118.633 186.903 118.542 186.94 118.464 186.993C118.472 186.961 118.486 186.932 118.487 186.898C118.49 186.802 118.457 186.717 118.41 186.642C118.518 186.562 118.594 186.441 118.599 186.296C118.608 186.042 118.41 185.829 118.157 185.82C118.072 185.817 117.996 185.843 117.927 185.881C117.806 185.563 117.504 185.333 117.143 185.32C116.926 185.312 116.731 185.392 116.573 185.518C116.377 184.993 115.88 184.611 115.285 184.589C114.538 184.562 113.91 185.115 113.82 185.843C113.78 185.833 113.743 185.816 113.701 185.814C113.495 185.806 113.317 185.908 113.199 186.059C113.183 186.057 113.169 186.049 113.152 186.048C112.911 186.039 112.708 186.227 112.699 186.468C112.697 186.522 112.708 186.573 112.724 186.622C112.708 186.619 112.695 186.612 112.678 186.611C112.472 186.603 112.3 186.764 112.292 186.97C112.29 187.039 112.311 187.101 112.342 187.158C112.302 187.148 112.265 187.131 112.222 187.129C111.873 187.116 111.579 187.389 111.567 187.738C111.561 187.894 111.619 188.035 111.709 188.149C111.655 188.099 111.586 188.065 111.507 188.062C111.331 188.055 111.183 188.193 111.176 188.369C111.171 188.508 111.257 188.627 111.38 188.675C111.231 188.761 111.123 188.912 111.116 189.096C111.106 189.381 111.328 189.621 111.613 189.631C111.616 189.631 111.618 189.63 111.62 189.63C111.627 189.818 111.732 189.98 111.89 190.065C111.881 190.349 112.103 190.587 112.387 190.598C112.377 190.883 112.599 191.123 112.884 191.133C113.138 191.142 113.347 190.962 113.398 190.722C113.474 190.783 113.563 190.827 113.668 190.831C113.752 190.834 113.827 190.809 113.897 190.772C113.939 190.875 114.037 190.95 114.156 190.955C114.234 190.958 114.306 190.929 114.36 190.88C114.404 191.079 114.57 191.234 114.783 191.241C114.956 191.247 115.104 191.154 115.188 191.016C115.399 191.253 115.701 191.409 116.043 191.421C116.365 191.433 116.661 191.315 116.885 191.117C117.031 191.36 117.279 191.536 117.583 191.547C117.94 191.56 118.253 191.355 118.397 191.052C118.473 191.188 118.609 191.287 118.776 191.293C119.029 191.302 119.243 191.104 119.252 190.851C119.256 190.731 119.212 190.621 119.139 190.537C119.543 190.368 119.835 189.981 119.852 189.517ZM115.051 189.135C115.045 189.129 115.037 189.126 115.031 189.121C115.034 189.118 115.037 189.115 115.039 189.112C115.043 189.119 115.047 189.127 115.051 189.135Z" fill="#9CC142"/>
<path d="M118.033 199.989C118.047 199.599 117.912 199.242 117.685 198.961C117.844 198.853 117.958 198.683 117.966 198.476C117.971 198.337 117.921 198.213 117.848 198.106C117.929 198.005 117.987 197.885 117.993 197.746C118.006 197.402 117.737 197.112 117.392 197.1C117.284 197.096 117.187 197.127 117.096 197.172C117.101 197.144 117.115 197.119 117.116 197.09C117.129 196.746 116.86 196.456 116.515 196.444C116.376 196.439 116.253 196.488 116.147 196.561C116.158 196.518 116.176 196.478 116.178 196.431C116.183 196.301 116.138 196.186 116.074 196.083C116.221 195.974 116.324 195.809 116.331 195.612C116.344 195.268 116.075 194.978 115.73 194.966C115.615 194.962 115.512 194.997 115.417 195.048C115.252 194.617 114.843 194.304 114.352 194.286C114.057 194.275 113.792 194.384 113.578 194.554C113.311 193.841 112.638 193.322 111.83 193.292C110.815 193.255 109.963 194.006 109.84 194.995C109.786 194.982 109.736 194.958 109.678 194.956C109.398 194.946 109.156 195.083 108.996 195.288C108.974 195.285 108.955 195.274 108.933 195.273C108.606 195.261 108.33 195.517 108.318 195.844C108.315 195.918 108.33 195.987 108.352 196.053C108.331 196.05 108.312 196.039 108.29 196.038C108.011 196.028 107.776 196.246 107.766 196.525C107.762 196.619 107.792 196.703 107.834 196.78C107.779 196.767 107.729 196.743 107.671 196.741C107.197 196.723 106.798 197.094 106.781 197.568C106.773 197.78 106.852 197.971 106.974 198.126C106.901 198.058 106.807 198.012 106.7 198.008C106.461 197.999 106.26 198.186 106.251 198.425C106.244 198.614 106.361 198.775 106.528 198.84C106.325 198.957 106.179 199.161 106.169 199.412C106.155 199.799 106.457 200.124 106.844 200.139C106.848 200.139 106.851 200.137 106.854 200.137C106.863 200.393 107.006 200.613 107.22 200.727C107.208 201.112 107.509 201.436 107.895 201.45C107.881 201.837 108.183 202.162 108.57 202.177C108.916 202.19 109.199 201.945 109.269 201.618C109.372 201.7 109.494 201.76 109.635 201.765C109.749 201.769 109.851 201.735 109.946 201.686C110.003 201.826 110.136 201.928 110.297 201.934C110.403 201.938 110.501 201.898 110.574 201.833C110.634 202.103 110.859 202.313 111.149 202.324C111.383 202.333 111.585 202.205 111.699 202.018C111.985 202.34 112.395 202.551 112.86 202.569C113.298 202.585 113.699 202.425 114.003 202.156C114.201 202.486 114.538 202.724 114.951 202.74C115.435 202.758 115.861 202.479 116.056 202.067C116.158 202.252 116.343 202.386 116.57 202.394C116.914 202.407 117.204 202.138 117.216 201.793C117.222 201.63 117.161 201.481 117.062 201.366C117.614 201.144 118.01 200.619 118.033 199.989ZM111.514 199.47C111.506 199.462 111.495 199.458 111.487 199.45C111.491 199.446 111.495 199.442 111.498 199.438C111.503 199.449 111.509 199.459 111.514 199.47Z" fill="#739335"/>
<path d="M117.839 190.877C117.701 190.512 117.438 190.235 117.12 190.064C117.225 189.903 117.264 189.702 117.191 189.508C117.142 189.378 117.048 189.283 116.939 189.213C116.974 189.089 116.982 188.956 116.933 188.825C116.812 188.503 116.451 188.34 116.129 188.461C116.028 188.499 115.95 188.565 115.884 188.642C115.878 188.614 115.881 188.586 115.87 188.559C115.748 188.237 115.388 188.074 115.066 188.195C114.936 188.244 114.842 188.337 114.772 188.446C114.766 188.402 114.767 188.358 114.751 188.314C114.705 188.192 114.619 188.103 114.52 188.034C114.613 187.877 114.645 187.685 114.575 187.501C114.453 187.179 114.094 187.016 113.771 187.137C113.663 187.178 113.582 187.25 113.515 187.334C113.196 187 112.697 186.87 112.238 187.043C111.962 187.147 111.76 187.35 111.629 187.59C111.107 187.036 110.285 186.818 109.529 187.103C108.579 187.461 108.084 188.484 108.353 189.444C108.298 189.453 108.243 189.45 108.189 189.471C107.927 189.57 107.757 189.79 107.688 190.041C107.667 190.047 107.645 190.044 107.624 190.051C107.317 190.167 107.163 190.509 107.278 190.815C107.304 190.884 107.345 190.942 107.391 190.995C107.37 191 107.349 190.997 107.328 191.005C107.067 191.104 106.935 191.395 107.033 191.657C107.066 191.745 107.126 191.811 107.194 191.866C107.139 191.875 107.083 191.872 107.029 191.893C106.585 192.06 106.361 192.556 106.528 193C106.603 193.199 106.749 193.344 106.921 193.44C106.827 193.406 106.723 193.399 106.623 193.437C106.399 193.521 106.286 193.772 106.37 193.995C106.437 194.172 106.607 194.275 106.786 194.271C106.644 194.457 106.588 194.703 106.677 194.937C106.814 195.3 107.218 195.483 107.581 195.346C107.584 195.345 107.586 195.342 107.589 195.341C107.696 195.573 107.913 195.721 108.156 195.744C108.294 196.104 108.697 196.286 109.058 196.15C109.195 196.513 109.599 196.695 109.962 196.559C110.286 196.437 110.452 196.102 110.39 195.774C110.516 195.81 110.652 195.818 110.785 195.768C110.892 195.728 110.973 195.656 111.041 195.574C111.148 195.681 111.31 195.724 111.461 195.667C111.561 195.629 111.635 195.555 111.677 195.466C111.837 195.692 112.126 195.798 112.397 195.696C112.616 195.613 112.753 195.418 112.785 195.201C113.174 195.387 113.633 195.423 114.068 195.259C114.478 195.105 114.786 194.801 114.962 194.436C115.272 194.664 115.676 194.753 116.062 194.607C116.516 194.436 116.8 194.014 116.821 193.559C116.987 193.69 117.209 193.742 117.421 193.662C117.743 193.54 117.906 193.181 117.785 192.858C117.727 192.705 117.614 192.592 117.478 192.524C117.899 192.104 118.061 191.466 117.839 190.877ZM111.626 192.921C111.616 192.917 111.604 192.917 111.593 192.913C111.594 192.908 111.597 192.903 111.598 192.897C111.607 192.906 111.617 192.913 111.626 192.921Z" fill="#83A152"/>
<path d="M160.16 197.31C160.174 196.926 160.041 196.574 159.817 196.296C159.974 196.19 160.086 196.022 160.094 195.818C160.099 195.681 160.05 195.559 159.978 195.454C160.058 195.354 160.116 195.236 160.121 195.099C160.133 194.76 159.868 194.474 159.529 194.462C159.423 194.458 159.326 194.489 159.237 194.533C159.242 194.505 159.255 194.481 159.257 194.452C159.269 194.113 159.004 193.827 158.665 193.815C158.528 193.81 158.407 193.859 158.302 193.931C158.313 193.889 158.331 193.849 158.333 193.803C158.338 193.675 158.294 193.561 158.23 193.46C158.375 193.353 158.477 193.19 158.484 192.996C158.497 192.657 158.231 192.371 157.892 192.359C157.779 192.355 157.677 192.39 157.584 192.44C157.421 192.015 157.018 191.706 156.535 191.689C156.245 191.678 155.983 191.786 155.772 191.954C155.509 191.251 154.845 190.739 154.048 190.71C153.047 190.673 152.207 191.414 152.086 192.389C152.033 192.376 151.983 192.353 151.927 192.351C151.651 192.341 151.413 192.476 151.254 192.678C151.232 192.675 151.214 192.664 151.192 192.663C150.869 192.651 150.598 192.903 150.586 193.226C150.583 193.299 150.598 193.367 150.62 193.432C150.599 193.428 150.581 193.418 150.559 193.417C150.284 193.407 150.052 193.622 150.042 193.897C150.039 193.989 150.068 194.073 150.109 194.149C150.055 194.136 150.006 194.113 149.949 194.11C149.482 194.093 149.089 194.458 149.071 194.925C149.063 195.134 149.141 195.322 149.261 195.475C149.189 195.408 149.097 195.362 148.991 195.359C148.755 195.35 148.557 195.535 148.548 195.77C148.541 195.956 148.657 196.115 148.821 196.18C148.621 196.295 148.476 196.497 148.467 196.744C148.453 197.126 148.751 197.446 149.133 197.46C149.136 197.46 149.139 197.458 149.143 197.458C149.152 197.71 149.293 197.927 149.504 198.04C149.492 198.42 149.789 198.739 150.169 198.753C150.155 199.135 150.453 199.455 150.835 199.469C151.176 199.482 151.455 199.24 151.524 198.918C151.625 198.999 151.745 199.058 151.885 199.063C151.997 199.067 152.099 199.033 152.191 198.985C152.247 199.123 152.379 199.224 152.537 199.23C152.642 199.234 152.738 199.195 152.81 199.13C152.869 199.396 153.091 199.603 153.377 199.614C153.608 199.622 153.807 199.497 153.919 199.312C154.201 199.63 154.605 199.838 155.063 199.855C155.495 199.871 155.891 199.713 156.19 199.448C156.385 199.773 156.718 200.008 157.125 200.023C157.603 200.041 158.022 199.766 158.215 199.36C158.316 199.542 158.498 199.674 158.722 199.682C159.061 199.694 159.347 199.429 159.359 199.09C159.365 198.929 159.305 198.783 159.208 198.669C159.746 198.449 160.137 197.931 160.16 197.31ZM153.733 196.798C153.725 196.79 153.715 196.786 153.706 196.779C153.709 196.775 153.713 196.771 153.717 196.767C153.721 196.778 153.728 196.788 153.733 196.798Z" fill="#6D8929"/>
<path d="M156.812 189.517C156.823 189.23 156.723 188.967 156.556 188.76C156.673 188.681 156.757 188.555 156.763 188.403C156.767 188.3 156.73 188.209 156.676 188.131C156.736 188.057 156.779 187.968 156.783 187.866C156.792 187.612 156.594 187.399 156.341 187.39C156.262 187.387 156.19 187.41 156.123 187.443C156.127 187.422 156.137 187.404 156.137 187.383C156.146 187.129 155.948 186.916 155.695 186.907C155.593 186.903 155.502 186.94 155.424 186.993C155.432 186.961 155.446 186.932 155.447 186.898C155.45 186.802 155.417 186.717 155.37 186.642C155.478 186.562 155.554 186.441 155.559 186.296C155.568 186.042 155.37 185.829 155.117 185.82C155.032 185.817 154.957 185.843 154.887 185.881C154.766 185.563 154.464 185.333 154.103 185.32C153.886 185.312 153.691 185.392 153.533 185.518C153.337 184.993 152.84 184.611 152.245 184.589C151.498 184.562 150.87 185.115 150.78 185.843C150.74 185.833 150.703 185.816 150.661 185.814C150.455 185.806 150.277 185.908 150.159 186.059C150.143 186.057 150.129 186.049 150.112 186.048C149.871 186.039 149.668 186.227 149.659 186.468C149.657 186.522 149.668 186.573 149.684 186.622C149.668 186.619 149.654 186.612 149.638 186.611C149.432 186.603 149.26 186.764 149.252 186.97C149.249 187.039 149.271 187.101 149.302 187.158C149.262 187.148 149.225 187.131 149.182 187.129C148.833 187.116 148.539 187.389 148.527 187.738C148.521 187.894 148.579 188.035 148.669 188.149C148.615 188.099 148.546 188.065 148.467 188.062C148.291 188.055 148.143 188.193 148.136 188.369C148.131 188.508 148.217 188.627 148.34 188.675C148.191 188.761 148.083 188.912 148.076 189.096C148.066 189.381 148.288 189.621 148.573 189.631C148.576 189.631 148.578 189.63 148.58 189.63C148.587 189.818 148.692 189.98 148.85 190.065C148.841 190.349 149.063 190.587 149.347 190.598C149.337 190.883 149.559 191.123 149.844 191.133C150.098 191.142 150.307 190.962 150.358 190.722C150.434 190.783 150.523 190.827 150.628 190.831C150.712 190.834 150.787 190.809 150.857 190.772C150.899 190.875 150.997 190.95 151.116 190.955C151.194 190.958 151.266 190.929 151.32 190.88C151.364 191.079 151.53 191.234 151.743 191.241C151.916 191.247 152.064 191.154 152.148 191.016C152.359 191.253 152.661 191.409 153.003 191.421C153.325 191.433 153.621 191.315 153.845 191.117C153.991 191.36 154.239 191.536 154.543 191.547C154.9 191.56 155.213 191.355 155.357 191.052C155.433 191.188 155.569 191.287 155.736 191.293C155.99 191.302 156.203 191.104 156.212 190.851C156.216 190.731 156.172 190.621 156.099 190.537C156.503 190.368 156.795 189.981 156.812 189.517ZM152.011 189.135C152.005 189.129 151.997 189.126 151.991 189.121C151.994 189.118 151.997 189.115 151.999 189.112C152.002 189.119 152.007 189.127 152.011 189.135Z" fill="#9CC142"/>
<path d="M154.993 199.989C155.007 199.599 154.872 199.242 154.645 198.961C154.804 198.853 154.918 198.683 154.926 198.476C154.931 198.337 154.881 198.213 154.808 198.106C154.889 198.005 154.948 197.885 154.953 197.746C154.966 197.402 154.697 197.112 154.353 197.1C154.245 197.096 154.147 197.127 154.057 197.172C154.062 197.144 154.076 197.119 154.077 197.09C154.09 196.746 153.821 196.456 153.476 196.444C153.337 196.439 153.214 196.488 153.108 196.561C153.119 196.518 153.137 196.478 153.139 196.431C153.144 196.301 153.099 196.186 153.035 196.083C153.182 195.974 153.285 195.809 153.292 195.612C153.305 195.268 153.036 194.978 152.692 194.966C152.577 194.962 152.474 194.997 152.38 195.048C152.215 194.617 151.806 194.304 151.315 194.286C151.02 194.275 150.755 194.384 150.541 194.554C150.274 193.841 149.601 193.322 148.793 193.292C147.778 193.255 146.926 194.006 146.803 194.995C146.749 194.982 146.699 194.958 146.641 194.956C146.361 194.946 146.119 195.083 145.959 195.288C145.937 195.285 145.918 195.274 145.896 195.273C145.569 195.261 145.293 195.517 145.281 195.844C145.278 195.918 145.293 195.987 145.315 196.053C145.294 196.05 145.275 196.039 145.253 196.038C144.974 196.028 144.739 196.246 144.729 196.525C144.726 196.619 144.755 196.703 144.797 196.78C144.742 196.767 144.692 196.743 144.634 196.741C144.16 196.723 143.761 197.094 143.744 197.568C143.736 197.78 143.815 197.971 143.937 198.126C143.864 198.058 143.77 198.012 143.663 198.008C143.424 197.999 143.223 198.186 143.214 198.425C143.207 198.614 143.324 198.775 143.491 198.84C143.288 198.957 143.142 199.161 143.132 199.412C143.118 199.799 143.42 200.124 143.807 200.139C143.811 200.139 143.813 200.137 143.817 200.137C143.826 200.393 143.969 200.613 144.183 200.727C144.171 201.112 144.472 201.436 144.858 201.45C144.844 201.837 145.146 202.162 145.533 202.177C145.878 202.19 146.162 201.945 146.232 201.618C146.334 201.7 146.457 201.76 146.598 201.765C146.712 201.769 146.815 201.735 146.909 201.686C146.966 201.826 147.099 201.928 147.26 201.934C147.366 201.938 147.464 201.898 147.537 201.833C147.597 202.103 147.822 202.313 148.112 202.324C148.346 202.333 148.548 202.205 148.661 202.018C148.947 202.34 149.357 202.551 149.822 202.569C150.26 202.585 150.661 202.425 150.965 202.156C151.163 202.486 151.5 202.724 151.913 202.74C152.397 202.758 152.823 202.479 153.018 202.067C153.121 202.252 153.305 202.386 153.532 202.394C153.876 202.407 154.166 202.138 154.178 201.793C154.184 201.63 154.123 201.481 154.025 201.366C154.574 201.144 154.97 200.619 154.993 199.989ZM148.474 199.47C148.466 199.462 148.455 199.458 148.447 199.45C148.45 199.446 148.455 199.442 148.458 199.438C148.462 199.449 148.469 199.459 148.474 199.47Z" fill="#739335"/>
<path d="M154.798 190.877C154.66 190.512 154.397 190.235 154.079 190.064C154.184 189.903 154.223 189.702 154.15 189.508C154.101 189.378 154.007 189.283 153.898 189.213C153.934 189.089 153.941 188.956 153.892 188.825C153.77 188.503 153.41 188.34 153.088 188.461C152.987 188.499 152.909 188.565 152.843 188.642C152.837 188.614 152.84 188.586 152.83 188.559C152.708 188.237 152.348 188.074 152.026 188.195C151.896 188.244 151.802 188.337 151.732 188.446C151.726 188.402 151.727 188.358 151.711 188.314C151.665 188.192 151.579 188.103 151.48 188.034C151.573 187.877 151.605 187.685 151.535 187.501C151.413 187.179 151.054 187.016 150.731 187.137C150.623 187.178 150.542 187.25 150.475 187.334C150.156 187 149.657 186.87 149.198 187.043C148.922 187.147 148.72 187.35 148.588 187.59C148.066 187.036 147.244 186.818 146.488 187.103C145.538 187.461 145.043 188.484 145.312 189.444C145.257 189.453 145.202 189.45 145.148 189.471C144.886 189.57 144.716 189.79 144.648 190.041C144.626 190.047 144.605 190.044 144.584 190.051C144.277 190.167 144.123 190.509 144.238 190.815C144.264 190.884 144.305 190.942 144.351 190.995C144.33 191 144.309 190.997 144.288 191.005C144.027 191.104 143.895 191.395 143.993 191.657C144.026 191.745 144.086 191.811 144.154 191.866C144.099 191.875 144.043 191.872 143.989 191.893C143.545 192.06 143.321 192.556 143.488 193C143.563 193.199 143.709 193.344 143.882 193.44C143.788 193.406 143.684 193.399 143.583 193.437C143.359 193.521 143.246 193.772 143.33 193.995C143.397 194.172 143.567 194.275 143.746 194.271C143.604 194.457 143.548 194.703 143.637 194.937C143.774 195.3 144.178 195.483 144.541 195.346C144.544 195.345 144.546 195.342 144.55 195.341C144.657 195.573 144.874 195.721 145.116 195.744C145.254 196.104 145.657 196.286 146.018 196.15C146.155 196.513 146.559 196.695 146.922 196.559C147.245 196.437 147.412 196.102 147.35 195.774C147.476 195.81 147.612 195.818 147.745 195.768C147.852 195.728 147.933 195.656 148.001 195.574C148.107 195.681 148.27 195.724 148.421 195.667C148.521 195.629 148.595 195.555 148.637 195.466C148.797 195.692 149.086 195.798 149.357 195.696C149.576 195.613 149.713 195.418 149.745 195.201C150.134 195.387 150.593 195.423 151.028 195.259C151.438 195.105 151.747 194.801 151.922 194.436C152.232 194.664 152.636 194.753 153.022 194.607C153.476 194.436 153.76 194.014 153.781 193.559C153.947 193.69 154.169 193.742 154.381 193.662C154.703 193.54 154.866 193.181 154.745 192.858C154.687 192.705 154.574 192.592 154.438 192.524C154.859 192.104 155.02 191.466 154.798 190.877ZM148.586 192.921C148.575 192.917 148.564 192.917 148.553 192.913C148.554 192.908 148.557 192.903 148.558 192.897C148.567 192.906 148.577 192.913 148.586 192.921Z" fill="#83A152"/>
<path d="M191.092 197.31C191.106 196.926 190.973 196.574 190.749 196.296C190.906 196.19 191.018 196.022 191.026 195.818C191.031 195.681 190.982 195.559 190.91 195.454C190.99 195.354 191.048 195.236 191.053 195.099C191.066 194.76 190.8 194.474 190.461 194.462C190.355 194.458 190.259 194.489 190.17 194.533C190.175 194.505 190.188 194.481 190.189 194.452C190.201 194.113 189.936 193.827 189.597 193.815C189.46 193.81 189.339 193.859 189.234 193.931C189.245 193.889 189.263 193.849 189.265 193.803C189.27 193.675 189.226 193.561 189.162 193.46C189.307 193.353 189.409 193.19 189.416 192.996C189.429 192.657 189.163 192.371 188.824 192.359C188.711 192.355 188.609 192.39 188.516 192.44C188.353 192.015 187.95 191.706 187.466 191.689C187.176 191.678 186.914 191.786 186.703 191.954C186.44 191.251 185.776 190.739 184.979 190.71C183.978 190.673 183.138 191.414 183.017 192.389C182.964 192.376 182.915 192.353 182.858 192.351C182.582 192.341 182.344 192.476 182.185 192.678C182.163 192.675 182.145 192.664 182.123 192.663C181.8 192.651 181.529 192.903 181.517 193.226C181.514 193.299 181.529 193.367 181.551 193.432C181.53 193.428 181.512 193.418 181.49 193.417C181.215 193.407 180.983 193.622 180.973 193.897C180.97 193.989 180.999 194.073 181.04 194.149C180.986 194.136 180.937 194.113 180.879 194.11C180.412 194.093 180.019 194.458 180.002 194.925C179.994 195.134 180.072 195.322 180.192 195.475C180.12 195.408 180.027 195.362 179.922 195.359C179.686 195.35 179.488 195.535 179.479 195.77C179.472 195.956 179.588 196.115 179.752 196.18C179.552 196.295 179.407 196.497 179.398 196.744C179.384 197.126 179.682 197.446 180.064 197.46C180.068 197.46 180.07 197.458 180.074 197.458C180.083 197.71 180.224 197.927 180.435 198.04C180.423 198.42 180.72 198.739 181.1 198.753C181.086 199.135 181.384 199.455 181.766 199.469C182.107 199.482 182.386 199.24 182.455 198.918C182.556 198.999 182.676 199.058 182.816 199.063C182.928 199.067 183.03 199.033 183.122 198.985C183.178 199.123 183.31 199.224 183.468 199.23C183.573 199.234 183.669 199.195 183.741 199.13C183.8 199.396 184.022 199.603 184.308 199.614C184.539 199.622 184.738 199.497 184.85 199.312C185.132 199.63 185.536 199.838 185.994 199.855C186.426 199.871 186.822 199.713 187.121 199.448C187.316 199.773 187.649 200.008 188.056 200.023C188.534 200.041 188.953 199.766 189.146 199.36C189.247 199.542 189.429 199.674 189.653 199.682C189.992 199.694 190.278 199.429 190.29 199.09C190.296 198.929 190.236 198.783 190.139 198.669C190.678 198.449 191.069 197.931 191.092 197.31ZM184.664 196.798C184.656 196.79 184.646 196.786 184.637 196.779C184.641 196.775 184.645 196.771 184.648 196.767C184.653 196.778 184.66 196.788 184.664 196.798Z" fill="#6D8929"/>
<path d="M187.743 189.517C187.754 189.23 187.654 188.967 187.487 188.76C187.604 188.681 187.688 188.555 187.694 188.403C187.698 188.3 187.661 188.209 187.607 188.131C187.667 188.057 187.71 187.968 187.714 187.866C187.723 187.612 187.525 187.399 187.272 187.39C187.193 187.387 187.121 187.41 187.054 187.443C187.058 187.422 187.068 187.404 187.068 187.383C187.077 187.129 186.879 186.916 186.626 186.907C186.524 186.903 186.433 186.94 186.355 186.993C186.363 186.961 186.377 186.932 186.378 186.898C186.382 186.802 186.348 186.717 186.301 186.642C186.409 186.562 186.485 186.441 186.49 186.296C186.499 186.042 186.301 185.829 186.048 185.82C185.963 185.817 185.888 185.843 185.818 185.881C185.697 185.563 185.395 185.333 185.034 185.32C184.817 185.312 184.622 185.392 184.464 185.518C184.268 184.993 183.772 184.611 183.177 184.589C182.43 184.562 181.802 185.115 181.712 185.843C181.672 185.833 181.635 185.816 181.593 185.814C181.387 185.806 181.209 185.908 181.091 186.059C181.075 186.057 181.061 186.049 181.044 186.048C180.803 186.039 180.6 186.227 180.591 186.468C180.589 186.522 180.6 186.573 180.616 186.622C180.6 186.619 180.587 186.612 180.57 186.611C180.364 186.603 180.192 186.764 180.184 186.97C180.181 187.039 180.203 187.101 180.234 187.158C180.194 187.148 180.157 187.131 180.114 187.129C179.765 187.116 179.471 187.389 179.459 187.738C179.453 187.894 179.511 188.035 179.601 188.149C179.547 188.099 179.478 188.065 179.399 188.062C179.223 188.055 179.075 188.193 179.068 188.369C179.063 188.508 179.149 188.627 179.272 188.675C179.123 188.761 179.015 188.912 179.008 189.096C178.998 189.381 179.22 189.621 179.505 189.631C179.508 189.631 179.51 189.63 179.512 189.63C179.519 189.818 179.624 189.98 179.782 190.065C179.773 190.349 179.995 190.587 180.279 190.598C180.269 190.883 180.491 191.123 180.776 191.133C181.03 191.142 181.239 190.962 181.29 190.722C181.366 190.783 181.455 190.827 181.56 190.831C181.644 190.834 181.72 190.809 181.789 190.772C181.831 190.875 181.929 190.95 182.048 190.955C182.126 190.958 182.198 190.929 182.252 190.88C182.296 191.079 182.462 191.234 182.675 191.241C182.848 191.247 182.996 191.154 183.08 191.016C183.291 191.253 183.593 191.409 183.935 191.421C184.257 191.433 184.553 191.315 184.777 191.117C184.923 191.36 185.171 191.536 185.475 191.547C185.832 191.56 186.145 191.355 186.289 191.052C186.365 191.188 186.501 191.287 186.667 191.293C186.921 191.302 187.134 191.104 187.143 190.851C187.147 190.731 187.103 190.621 187.03 190.537C187.435 190.368 187.726 189.981 187.743 189.517ZM182.943 189.135C182.937 189.129 182.929 189.126 182.923 189.121C182.926 189.118 182.929 189.115 182.931 189.112C182.934 189.119 182.939 189.127 182.943 189.135Z" fill="#9CC142"/>
<path d="M185.925 199.989C185.939 199.599 185.804 199.242 185.577 198.961C185.736 198.853 185.85 198.683 185.858 198.476C185.863 198.337 185.813 198.213 185.74 198.106C185.821 198.005 185.88 197.885 185.885 197.746C185.898 197.402 185.629 197.112 185.285 197.1C185.177 197.096 185.08 197.127 184.989 197.172C184.994 197.144 185.008 197.119 185.009 197.09C185.022 196.746 184.753 196.456 184.408 196.444C184.269 196.439 184.146 196.488 184.04 196.561C184.051 196.518 184.069 196.478 184.071 196.431C184.076 196.301 184.031 196.186 183.967 196.083C184.114 195.974 184.217 195.809 184.224 195.612C184.237 195.268 183.968 194.978 183.623 194.966C183.508 194.962 183.405 194.997 183.311 195.048C183.146 194.617 182.737 194.304 182.246 194.286C181.951 194.275 181.686 194.384 181.472 194.554C181.205 193.841 180.532 193.322 179.724 193.292C178.709 193.255 177.857 194.006 177.734 194.995C177.68 194.982 177.63 194.958 177.572 194.956C177.292 194.946 177.05 195.083 176.89 195.288C176.868 195.285 176.849 195.274 176.827 195.273C176.5 195.261 176.225 195.517 176.212 195.844C176.209 195.918 176.224 195.987 176.246 196.053C176.225 196.05 176.206 196.039 176.184 196.038C175.905 196.028 175.67 196.246 175.66 196.525C175.657 196.619 175.686 196.703 175.728 196.78C175.674 196.767 175.623 196.743 175.565 196.741C175.091 196.723 174.692 197.094 174.675 197.568C174.667 197.78 174.746 197.971 174.868 198.126C174.795 198.058 174.701 198.012 174.594 198.008C174.355 197.999 174.154 198.186 174.145 198.425C174.138 198.614 174.255 198.775 174.422 198.84C174.219 198.957 174.073 199.161 174.063 199.412C174.049 199.799 174.351 200.124 174.738 200.139C174.741 200.139 174.744 200.137 174.748 200.137C174.757 200.393 174.9 200.613 175.115 200.727C175.103 201.112 175.404 201.436 175.79 201.45C175.776 201.837 176.078 202.162 176.465 202.177C176.81 202.19 177.094 201.945 177.164 201.618C177.267 201.7 177.389 201.76 177.53 201.765C177.644 201.769 177.746 201.735 177.841 201.686C177.898 201.826 178.031 201.928 178.192 201.934C178.298 201.938 178.396 201.898 178.469 201.833C178.529 202.103 178.754 202.313 179.044 202.324C179.278 202.333 179.48 202.205 179.593 202.018C179.879 202.34 180.289 202.551 180.754 202.569C181.192 202.585 181.594 202.425 181.897 202.156C182.095 202.486 182.432 202.724 182.845 202.74C183.329 202.758 183.755 202.479 183.95 202.067C184.053 202.252 184.237 202.386 184.464 202.394C184.808 202.407 185.098 202.138 185.11 201.793C185.116 201.63 185.055 201.481 184.956 201.366C185.506 201.144 185.902 200.619 185.925 199.989ZM179.405 199.47C179.397 199.462 179.386 199.458 179.378 199.45C179.382 199.446 179.386 199.442 179.389 199.438C179.394 199.449 179.4 199.459 179.405 199.47Z" fill="#739335"/>
<path d="M185.73 190.877C185.592 190.512 185.329 190.235 185.011 190.064C185.116 189.903 185.155 189.702 185.082 189.508C185.033 189.378 184.939 189.283 184.83 189.213C184.865 189.089 184.873 188.956 184.824 188.825C184.702 188.503 184.343 188.34 184.02 188.461C183.919 188.499 183.841 188.565 183.775 188.642C183.769 188.614 183.772 188.586 183.761 188.559C183.639 188.237 183.279 188.074 182.957 188.195C182.827 188.244 182.733 188.337 182.663 188.446C182.657 188.402 182.658 188.358 182.642 188.314C182.596 188.192 182.51 188.103 182.411 188.034C182.504 187.877 182.536 187.685 182.466 187.501C182.344 187.179 181.984 187.016 181.662 187.137C181.554 187.178 181.473 187.25 181.406 187.334C181.087 187 180.588 186.87 180.129 187.043C179.853 187.147 179.651 187.35 179.519 187.59C178.997 187.036 178.175 186.818 177.419 187.103C176.469 187.461 175.974 188.484 176.243 189.444C176.188 189.453 176.133 189.45 176.079 189.471C175.817 189.57 175.647 189.79 175.579 190.041C175.557 190.047 175.536 190.044 175.515 190.051C175.208 190.167 175.054 190.509 175.169 190.815C175.195 190.884 175.236 190.942 175.282 190.995C175.261 191 175.24 190.997 175.219 191.005C174.958 191.104 174.826 191.395 174.924 191.657C174.957 191.745 175.017 191.811 175.085 191.866C175.03 191.875 174.974 191.872 174.92 191.893C174.476 192.06 174.252 192.556 174.419 193C174.494 193.199 174.64 193.344 174.813 193.44C174.719 193.406 174.615 193.399 174.515 193.437C174.291 193.521 174.178 193.772 174.262 193.995C174.329 194.172 174.499 194.275 174.678 194.271C174.536 194.457 174.48 194.703 174.569 194.937C174.706 195.3 175.11 195.483 175.473 195.346C175.476 195.345 175.478 195.342 175.482 195.341C175.589 195.573 175.806 195.721 176.048 195.744C176.186 196.104 176.589 196.286 176.95 196.15C177.087 196.513 177.491 196.695 177.854 196.559C178.177 196.437 178.344 196.102 178.282 195.774C178.408 195.81 178.544 195.818 178.677 195.768C178.784 195.728 178.865 195.656 178.933 195.574C179.039 195.681 179.202 195.724 179.353 195.667C179.453 195.629 179.527 195.555 179.57 195.466C179.73 195.692 180.019 195.798 180.29 195.696C180.51 195.613 180.646 195.418 180.678 195.201C181.067 195.387 181.526 195.423 181.961 195.259C182.371 195.105 182.679 194.801 182.855 194.436C183.165 194.664 183.569 194.753 183.955 194.607C184.409 194.436 184.693 194.014 184.714 193.559C184.88 193.69 185.103 193.742 185.314 193.662C185.636 193.54 185.799 193.181 185.678 192.858C185.62 192.705 185.507 192.592 185.371 192.524C185.79 192.104 185.952 191.466 185.73 190.877ZM179.518 192.921C179.508 192.917 179.496 192.917 179.485 192.913C179.486 192.908 179.489 192.903 179.49 192.897C179.499 192.906 179.509 192.913 179.518 192.921Z" fill="#83A152"/>
<path d="M3.30826 198.67C3.21126 198.783 3.15126 198.93 3.15726 199.091C3.16926 199.43 3.45525 199.696 3.79425 199.683C4.01725 199.675 4.20024 199.543 4.30124 199.361C4.49424 199.767 4.91323 200.042 5.39123 200.024C5.79823 200.009 6.13123 199.774 6.32623 199.449C6.62523 199.714 7.02225 199.872 7.45325 199.856C7.91125 199.839 8.31523 199.631 8.59723 199.313C8.70923 199.498 8.90825 199.623 9.13925 199.615C9.42425 199.605 9.64624 199.397 9.70624 199.131C9.77924 199.196 9.87425 199.235 9.97925 199.231C10.1382 199.225 10.2703 199.125 10.3253 198.986C10.4183 199.034 10.5193 199.069 10.6313 199.064C10.7713 199.059 10.8912 199 10.9922 198.919C11.0612 199.241 11.3402 199.482 11.6812 199.47C12.0632 199.456 12.3612 199.135 12.3472 198.754C12.7272 198.74 13.0242 198.421 13.0122 198.041C13.2242 197.928 13.3642 197.711 13.3732 197.459C13.3762 197.459 13.3792 197.461 13.3832 197.461C13.7652 197.447 14.0633 197.126 14.0493 196.745C14.0403 196.498 13.8953 196.296 13.6953 196.181C13.8603 196.117 13.9752 195.958 13.9682 195.771C13.9592 195.535 13.7612 195.351 13.5252 195.36C13.4192 195.364 13.3272 195.41 13.2552 195.476C13.3752 195.324 13.4533 195.135 13.4453 194.926C13.4283 194.459 13.0352 194.093 12.5682 194.111C12.5112 194.113 12.4613 194.137 12.4073 194.15C12.4483 194.074 12.4772 193.991 12.4742 193.898C12.4642 193.623 12.2332 193.408 11.9572 193.418C11.9352 193.419 11.9172 193.429 11.8962 193.433C11.9182 193.368 11.9322 193.299 11.9302 193.227C11.9182 192.904 11.6472 192.652 11.3242 192.664C11.3022 192.665 11.2832 192.676 11.2622 192.679C11.1042 192.477 10.8662 192.341 10.5892 192.352C10.5322 192.354 10.4832 192.377 10.4302 192.39C10.3092 191.415 9.46923 190.674 8.46823 190.711C7.67123 190.74 7.00723 191.252 6.74423 191.955C6.53323 191.787 6.27223 191.68 5.98123 191.69C5.49823 191.708 5.09425 192.017 4.93225 192.441C4.83925 192.391 4.73724 192.356 4.62424 192.36C4.28524 192.372 4.02026 192.658 4.03226 192.997C4.03926 193.191 4.14125 193.353 4.28625 193.461C4.22325 193.562 4.17826 193.676 4.18326 193.804C4.18526 193.85 4.20323 193.889 4.21423 193.932C4.10923 193.86 3.98726 193.811 3.85126 193.816C3.51226 193.828 3.24725 194.114 3.25925 194.453C3.26025 194.482 3.27426 194.506 3.27826 194.534C3.18926 194.49 3.09324 194.459 2.98724 194.463C2.64824 194.475 2.38323 194.761 2.39523 195.1C2.40023 195.237 2.45824 195.355 2.53824 195.455C2.46624 195.56 2.41724 195.682 2.42224 195.819C2.43024 196.023 2.54225 196.191 2.69925 196.297C2.47525 196.574 2.34223 196.927 2.35623 197.311C2.37723 197.931 2.76826 198.449 3.30826 198.67ZM8.79825 196.767C8.80125 196.771 8.80623 196.775 8.80923 196.779C8.80123 196.786 8.79026 196.791 8.78226 196.798C8.78726 196.788 8.79325 196.778 8.79825 196.767Z" fill="#6D8929"/>
<path d="M6.41519 190.533C6.34219 190.618 6.29818 190.727 6.30218 190.847C6.31118 191.1 6.5242 191.298 6.7782 191.289C6.9452 191.283 7.08119 191.184 7.15719 191.048C7.30119 191.351 7.61419 191.556 7.97119 191.543C8.27519 191.532 8.52419 191.356 8.66919 191.113C8.89319 191.311 9.18917 191.429 9.51117 191.417C9.85317 191.404 10.1552 191.249 10.3662 191.012C10.4502 191.15 10.5982 191.244 10.7712 191.237C10.9842 191.229 11.1502 191.075 11.1942 190.876C11.2482 190.924 11.3202 190.954 11.3982 190.951C11.5162 190.947 11.6152 190.872 11.6572 190.768C11.7262 190.804 11.8022 190.83 11.8862 190.827C11.9902 190.823 12.0802 190.779 12.1562 190.718C12.2082 190.959 12.4162 191.139 12.6712 191.129C12.9562 191.119 13.1792 190.879 13.1682 190.594C13.4522 190.584 13.6742 190.345 13.6652 190.061C13.8232 189.977 13.9282 189.814 13.9352 189.626C13.9382 189.626 13.9402 189.627 13.9422 189.627C14.2272 189.617 14.4502 189.377 14.4392 189.092C14.4322 188.907 14.3242 188.757 14.1752 188.671C14.2982 188.623 14.3842 188.505 14.3792 188.365C14.3732 188.189 14.2242 188.051 14.0482 188.058C13.9692 188.061 13.9002 188.095 13.8462 188.145C13.9362 188.031 13.9942 187.891 13.9882 187.734C13.9752 187.385 13.6822 187.112 13.3332 187.125C13.2902 187.127 13.2532 187.144 13.2132 187.154C13.2442 187.097 13.2662 187.035 13.2632 186.966C13.2552 186.76 13.0832 186.6 12.8772 186.607C12.8602 186.608 12.8472 186.615 12.8312 186.618C12.8472 186.569 12.8582 186.518 12.8562 186.464C12.8472 186.223 12.6442 186.035 12.4032 186.044C12.3862 186.045 12.3722 186.053 12.3562 186.055C12.2382 185.904 12.0602 185.803 11.8542 185.81C11.8112 185.812 11.7752 185.829 11.7352 185.839C11.6442 185.11 11.0172 184.557 10.2702 184.585C9.67517 184.607 9.17918 184.989 8.98318 185.514C8.82518 185.389 8.63018 185.308 8.41318 185.316C8.05218 185.329 7.75118 185.56 7.62918 185.877C7.55918 185.839 7.48317 185.813 7.39917 185.816C7.14517 185.825 6.94718 186.038 6.95718 186.292C6.96218 186.437 7.03818 186.558 7.14618 186.638C7.09918 186.713 7.06618 186.799 7.06918 186.894C7.07018 186.928 7.08419 186.958 7.09219 186.989C7.01419 186.936 6.9232 186.899 6.8212 186.903C6.5682 186.912 6.37018 187.125 6.37918 187.379C6.38018 187.401 6.39019 187.419 6.39419 187.439C6.32819 187.406 6.25618 187.383 6.17618 187.386C5.92218 187.395 5.72419 187.608 5.73419 187.862C5.73819 187.964 5.78119 188.053 5.84119 188.127C5.78719 188.205 5.75018 188.297 5.75418 188.399C5.76018 188.551 5.84318 188.677 5.96118 188.756C5.79418 188.963 5.69417 189.226 5.70517 189.513C5.72017 189.981 6.01219 190.368 6.41519 190.533ZM10.5162 189.111C10.5192 189.114 10.5222 189.117 10.5242 189.12C10.5182 189.125 10.5102 189.129 10.5042 189.134C10.5082 189.127 10.5122 189.119 10.5162 189.111Z" fill="#9CC142"/>
<path d="M8.4883 201.368C8.3893 201.483 8.32931 201.631 8.33431 201.795C8.34731 202.139 8.6363 202.408 8.9803 202.396C9.2073 202.388 9.39128 202.254 9.49428 202.069C9.68928 202.481 10.1153 202.759 10.5993 202.742C11.0123 202.727 11.3503 202.488 11.5473 202.158C11.8513 202.427 12.2533 202.587 12.6903 202.571C13.1553 202.554 13.5653 202.343 13.8513 202.02C13.9643 202.207 14.1663 202.335 14.4003 202.326C14.6903 202.315 14.9153 202.105 14.9753 201.835C15.0483 201.901 15.1463 201.94 15.2523 201.936C15.4133 201.93 15.5473 201.828 15.6033 201.688C15.6973 201.737 15.8003 201.772 15.9143 201.767C16.0563 201.762 16.1783 201.702 16.2803 201.62C16.3503 201.947 16.6333 202.191 16.9793 202.179C17.3663 202.165 17.6683 201.839 17.6543 201.452C18.0403 201.438 18.3413 201.114 18.3293 200.729C18.5443 200.614 18.6863 200.394 18.6963 200.139C18.7003 200.139 18.7023 200.141 18.7063 200.141C19.0933 200.127 19.3953 199.801 19.3813 199.414C19.3723 199.163 19.2253 198.958 19.0223 198.842C19.1893 198.777 19.3063 198.616 19.2993 198.427C19.2903 198.188 19.0893 198.001 18.8503 198.01C18.7433 198.014 18.6493 198.061 18.5763 198.128C18.6983 197.974 18.7773 197.782 18.7693 197.57C18.7523 197.096 18.3533 196.725 17.8793 196.743C17.8213 196.745 17.7713 196.769 17.7163 196.782C17.7583 196.705 17.7873 196.621 17.7843 196.527C17.7743 196.248 17.5393 196.03 17.2603 196.04C17.2383 196.041 17.2193 196.051 17.1983 196.055C17.2203 195.989 17.2353 195.92 17.2323 195.846C17.2203 195.519 16.9453 195.263 16.6173 195.275C16.5943 195.276 16.5763 195.287 16.5543 195.29C16.3933 195.085 16.1523 194.948 15.8723 194.958C15.8143 194.96 15.7643 194.984 15.7103 194.997C15.5873 194.008 14.7353 193.257 13.7203 193.294C12.9123 193.324 12.2383 193.843 11.9723 194.556C11.7583 194.386 11.4933 194.277 11.1983 194.288C10.7083 194.306 10.2983 194.619 10.1333 195.05C10.0393 194.999 9.93531 194.963 9.82131 194.968C9.47731 194.981 9.20829 195.27 9.22029 195.614C9.22729 195.811 9.33128 195.976 9.47728 196.085C9.41328 196.187 9.36828 196.303 9.37328 196.433C9.37528 196.479 9.39328 196.52 9.40428 196.563C9.29828 196.49 9.1743 196.441 9.0363 196.446C8.6923 196.459 8.42329 196.748 8.43529 197.092C8.43629 197.121 8.45028 197.146 8.45528 197.174C8.36528 197.129 8.26729 197.098 8.15929 197.102C7.81529 197.115 7.54628 197.404 7.55928 197.748C7.56428 197.887 7.6233 198.007 7.7043 198.108C7.6313 198.215 7.58129 198.338 7.58629 198.478C7.59429 198.685 7.7073 198.856 7.8673 198.963C7.6403 199.244 7.5053 199.602 7.5193 199.991C7.5443 200.619 7.9413 201.144 8.4883 201.368ZM14.0573 199.438C14.0613 199.442 14.0653 199.446 14.0683 199.45C14.0603 199.457 14.0493 199.462 14.0413 199.47C14.0463 199.459 14.0523 199.449 14.0573 199.438Z" fill="#739335"/>
<path d="M8.07425 192.523C7.93925 192.591 7.82524 192.704 7.76724 192.857C7.64524 193.179 7.80826 193.539 8.13126 193.661C8.34326 193.741 8.56523 193.689 8.73123 193.558C8.75223 194.013 9.03624 194.435 9.49024 194.606C9.87724 194.752 10.2802 194.663 10.5902 194.435C10.7662 194.801 11.0753 195.104 11.4843 195.258C11.9193 195.422 12.3792 195.386 12.7672 195.2C12.7992 195.417 12.9362 195.612 13.1552 195.695C13.4262 195.797 13.7152 195.691 13.8752 195.465C13.9172 195.554 13.9922 195.628 14.0912 195.666C14.2422 195.723 14.4052 195.68 14.5112 195.573C14.5792 195.655 14.6602 195.726 14.7672 195.767C14.9002 195.817 15.0352 195.809 15.1622 195.773C15.1002 196.101 15.2672 196.436 15.5902 196.558C15.9522 196.695 16.3572 196.512 16.4942 196.149C16.8552 196.285 17.2582 196.103 17.3962 195.743C17.6382 195.72 17.8553 195.572 17.9623 195.34C17.9653 195.341 17.9673 195.344 17.9713 195.345C18.3333 195.482 18.7382 195.299 18.8752 194.936C18.9642 194.701 18.9082 194.456 18.7662 194.27C18.9452 194.274 19.1163 194.171 19.1823 193.994C19.2663 193.77 19.1532 193.52 18.9292 193.436C18.8292 193.398 18.7243 193.405 18.6313 193.439C18.8033 193.344 18.9502 193.198 19.0252 192.999C19.1922 192.555 18.9682 192.059 18.5242 191.892C18.4692 191.871 18.4143 191.874 18.3593 191.865C18.4283 191.81 18.4872 191.744 18.5202 191.656C18.6192 191.395 18.4873 191.103 18.2253 191.004C18.2043 190.996 18.1832 190.999 18.1622 190.994C18.2082 190.942 18.2492 190.883 18.2752 190.814C18.3912 190.507 18.2362 190.165 17.9292 190.05C17.9082 190.042 17.8862 190.045 17.8652 190.04C17.7962 189.789 17.6272 189.569 17.3652 189.47C17.3112 189.45 17.2562 189.452 17.2012 189.443C17.4712 188.483 16.9752 187.461 16.0252 187.102C15.2692 186.817 14.4472 187.035 13.9252 187.589C13.7942 187.349 13.5912 187.146 13.3152 187.042C12.8562 186.869 12.3572 186.999 12.0382 187.333C11.9712 187.25 11.8893 187.177 11.7823 187.136C11.4603 187.014 11.1002 187.177 10.9782 187.5C10.9082 187.684 10.9402 187.876 11.0332 188.033C10.9342 188.102 10.8482 188.192 10.8022 188.313C10.7862 188.356 10.7873 188.4 10.7813 188.445C10.7113 188.337 10.6162 188.243 10.4872 188.194C10.1652 188.072 9.80526 188.235 9.68326 188.558C9.67326 188.585 9.67625 188.613 9.66925 188.641C9.60325 188.565 9.52526 188.498 9.42426 188.46C9.10226 188.338 8.74224 188.501 8.62024 188.824C8.57124 188.954 8.57926 189.088 8.61426 189.212C8.50526 189.282 8.41125 189.377 8.36225 189.507C8.28925 189.701 8.32826 189.902 8.43326 190.063C8.11526 190.235 7.85224 190.512 7.71424 190.876C7.49424 191.466 7.65625 192.104 8.07425 192.523ZM13.9562 192.898C13.9572 192.903 13.9602 192.908 13.9612 192.914C13.9502 192.918 13.9393 192.918 13.9283 192.922C13.9383 192.913 13.9472 192.906 13.9562 192.898Z" fill="#83A152"/>
</svg>
