<svg width="187" height="197" viewBox="0 0 187 197" fill="none" xmlns="http://www.w3.org/2000/svg">
<path d="M3.01611 109.867V104.683H17.8991V109.867H3.01611Z" fill="#DD9F47" stroke="black"/>
<path d="M157.166 109.867V104.683H172.049V109.867H157.166Z" fill="#DD9F47" stroke="black"/>
<path d="M129.103 49.1535V11.0615H147.032V49.1535H129.103Z" fill="#FFCE73" stroke="black"/>
<path d="M164.108 178.455H84.8682V5.55576L164.108 54.0488V178.455Z" fill="#F2B85A" stroke="black"/>
<path d="M164.108 63.3004L84.8682 14.8084V5.55576L164.108 54.0488V63.3004Z" fill="#DD9F47" stroke="black"/>
<path d="M174.121 63.2933L83.0852 6.71676V1.03615L174.121 57.6127V63.2933Z" fill="#9C5041" stroke="black"/>
<path d="M106.751 178.454V126.279H159.502V178.454H106.751Z" fill="#9C5041" stroke="black"/>
<path d="M113.638 178.224V126.279H114.529V178.224H113.638Z" fill="#7F4036" stroke="black"/>
<path d="M121.712 178.224V126.279H122.603V178.224H121.712Z" fill="#7F4036" stroke="black"/>
<path d="M129.786 178.224V126.279H130.677V178.224H129.786Z" fill="#7F4036" stroke="black"/>
<path d="M137.86 178.224V126.279H138.751V178.224H137.86Z" fill="#7F4036" stroke="black"/>
<path d="M145.934 178.224V126.279H146.825V178.224H145.934Z" fill="#7F4036" stroke="black"/>
<path d="M153.654 178.224V126.279H154.437V178.224H153.654Z" fill="#7F4036" stroke="black"/>
<path d="M127.8 12.7365V8.93555H148.678V12.7365H127.8Z" fill="#9C5041" stroke="black"/>
<path d="M68.2353 181.091C68.4828 178.972 70.2836 177.329 72.4683 177.329H181.91C184.095 177.329 185.896 178.972 186.143 181.091H68.2353Z" fill="#83A152" stroke="black"/>
<path d="M173.257 174.975C173.262 174.975 173.266 174.975 173.271 174.975H173.754L173.771 175.457C173.773 175.528 173.812 175.586 173.868 175.616L174.142 175.763L174.132 176.073C174.129 176.179 174.211 176.266 174.316 176.27L174.815 176.289L174.797 176.788C174.793 176.893 174.875 176.982 174.981 176.986C175.06 176.989 175.141 176.935 175.163 176.83L175.333 176.038L175.965 176.545C175.987 176.562 176.003 176.571 176.013 176.576C176.022 176.579 176.028 176.58 176.031 176.58L176.031 176.58L176.033 176.58C176.034 176.58 176.037 176.579 176.042 176.578C176.051 176.575 176.067 176.57 176.091 176.558L176.578 176.306L176.724 176.667L177.241 176.2L177.427 177.039C177.434 177.069 177.45 177.093 177.467 177.108C177.483 177.122 177.501 177.13 177.524 177.131C177.542 177.132 177.557 177.128 177.572 177.119C177.588 177.11 177.606 177.093 177.62 177.07L177.972 176.489L178.422 176.997C178.619 177.219 178.897 177.361 179.211 177.372C179.505 177.383 179.779 177.276 179.988 177.091L180.438 176.691L180.748 177.208C180.87 177.411 181.06 177.532 181.273 177.54L181.273 177.54C181.542 177.55 181.781 177.396 181.893 177.162L182.31 176.285L182.781 177.134C182.795 177.159 182.812 177.176 182.827 177.186C182.84 177.195 182.854 177.199 182.87 177.2C182.934 177.202 182.986 177.151 182.989 177.09L182.989 177.089C182.989 177.069 182.983 177.042 182.956 177.011L182.508 176.484L183.149 176.224C183.514 176.075 183.775 175.726 183.791 175.31L173.257 174.975ZM173.257 174.975C173.162 174.96 173.091 174.877 173.095 174.779L173.095 174.779C173.097 174.73 173.124 174.673 173.198 174.63L174.097 174.114L173.171 173.747L173.783 173.184C173.72 173.104 173.696 173.029 173.699 172.962L173.699 172.961C173.705 172.779 173.851 172.635 174.031 172.628L174.05 172.634C174.067 172.639 174.092 172.646 174.12 172.653L175.209 172.915L174.686 171.946L175.484 172.06L175.223 171.29C175.217 171.273 175.215 171.264 175.215 171.261C175.217 171.224 175.242 171.194 175.275 171.184C175.287 171.187 175.301 171.189 175.316 171.191L175.599 171.23L175.776 171.005C175.846 170.916 175.93 170.873 176.013 170.869L176.028 170.873C176.043 170.878 176.068 170.886 176.096 170.892L176.642 171.026L176.711 170.468C176.801 169.744 177.423 169.2 178.159 169.228C178.747 169.25 179.238 169.627 179.433 170.147L179.674 170.792L180.213 170.363C180.348 170.255 180.496 170.201 180.645 170.207L180.646 170.207C180.922 170.217 181.153 170.393 181.247 170.638L181.451 171.168L181.951 170.899C181.985 170.881 182.001 170.878 182.005 170.878C182.066 170.88 182.116 170.931 182.115 170.996C182.114 171.01 182.11 171.021 182.103 171.033C182.096 171.046 182.083 171.062 182.063 171.077L181.689 171.353L181.938 171.747C181.949 171.764 181.955 171.777 181.959 171.786C181.956 171.797 181.952 171.811 181.948 171.826L181.618 173.114L182.715 172.362C182.738 172.347 182.754 172.339 182.763 172.336C182.771 172.333 182.775 172.333 182.777 172.334L182.778 172.334C182.829 172.335 182.873 172.373 182.885 172.423C182.882 172.435 182.879 172.449 182.876 172.464L182.702 173.439L183.59 173C183.622 172.984 183.637 172.981 183.641 172.981L183.642 172.981C183.703 172.983 183.754 173.036 183.752 173.1L173.257 174.975ZM173.109 173.803L173.103 173.809L173.103 173.809L173.103 173.809L173.049 173.859C173.049 173.859 173.059 173.868 173.078 173.872L173.109 173.803ZM173.109 173.803L173.176 173.806C173.174 173.845 173.142 173.877 173.1 173.876M173.109 173.803L173.1 173.876M173.1 173.876L173.1 173.876C173.1 173.876 173.1 173.876 173.1 173.876ZM174.294 171.604C174.281 171.619 174.268 171.635 174.257 171.652C174.273 171.656 174.288 171.661 174.3 171.664C174.313 171.668 174.331 171.674 174.34 171.676C174.342 171.677 174.344 171.678 174.345 171.678C174.352 171.68 174.355 171.681 174.355 171.681C174.355 171.681 174.355 171.681 174.354 171.681L174.297 171.919L174.294 171.604ZM174.294 171.604L174.686 171.471L174.665 171.931L174.294 171.604ZM175.383 170.696C175.52 170.522 175.715 170.398 175.942 170.373L176.056 170.387L176.056 170.387L176.215 170.407L176.323 169.968C176.603 169.219 177.333 168.697 178.177 168.728L175.383 170.696ZM175.383 170.696C175.373 170.695 175.364 170.692 175.355 170.689C175.344 170.685 175.333 170.681 175.321 170.681L175.383 170.696ZM177.947 174.886L177.533 175.194C177.547 175.207 177.559 175.215 177.565 175.219L177.571 175.223L177.569 175.223L177.569 175.222C177.566 175.22 177.557 175.214 177.547 175.207C177.536 175.199 177.52 175.187 177.503 175.172L177.159 174.866L177.435 174.498C177.452 174.476 177.466 174.46 177.475 174.45C177.483 174.442 177.49 174.435 177.492 174.433L177.493 174.432L178.003 173.922L178.298 174.572L178.304 174.584C178.308 174.591 178.312 174.6 178.317 174.611L177.95 174.884M177.947 174.886L177.927 174.867L177.95 174.884M177.947 174.886L177.95 174.884M177.947 174.886L178.2 175.139C178.201 175.138 178.203 175.136 178.206 175.133C178.21 175.128 178.222 175.116 178.235 175.098L177.95 174.884M173.176 173.806L173.109 173.803L173.161 173.755C173.171 173.769 173.177 173.788 173.176 173.806ZM173.71 172.196C173.734 172.276 173.766 172.346 173.797 172.404L174.07 172.257L173.71 172.196ZM174.237 172.167L174.297 171.919L174.61 171.931L174.237 172.167ZM174.879 170.968L174.879 170.968L174.879 170.968ZM181.971 171.746L181.971 171.747L181.971 171.746Z" fill="#6D8929" stroke="black"/>
<path d="M180.442 167.517L180.441 167.518C180.432 167.776 180.271 167.996 180.036 168.094L179.613 168.271L179.451 167.982L179.036 168.856C178.974 168.987 178.841 169.072 178.691 169.066L178.691 169.066C178.583 169.062 178.478 169.001 178.404 168.878L178.094 168.363L177.644 168.761C177.51 168.88 177.337 168.947 177.152 168.94L177.151 168.94C176.954 168.933 176.778 168.844 176.652 168.702L176.202 168.198L175.912 168.675L175.751 167.95L175.337 168.326L175.239 168.088L174.779 168.334L174.167 167.843L173.998 168.637C173.996 168.645 173.992 168.65 173.99 168.652C173.988 168.652 173.986 168.652 173.985 168.651C173.984 168.65 173.982 168.649 173.981 168.647C173.979 168.646 173.978 168.643 173.977 168.642C173.976 168.64 173.976 168.638 173.976 168.634L173.993 168.135L173.494 168.117C173.486 168.117 173.479 168.11 173.479 168.101L173.489 167.791L173.216 167.645C173.213 167.643 173.212 167.641 173.211 167.64C173.21 167.639 173.209 167.637 173.209 167.631L173.191 167.15H172.714C172.713 167.149 172.711 167.148 172.71 167.146C172.708 167.145 172.707 167.142 172.706 167.141C172.706 167.14 172.705 167.139 172.705 167.139C172.708 167.136 172.712 167.132 172.719 167.128L173.621 166.608L172.749 166.267L173.191 165.859C173.159 165.819 173.155 165.792 173.156 165.777L173.156 165.775C173.158 165.713 173.204 165.661 173.265 165.65C173.277 165.654 173.292 165.659 173.31 165.663L174.414 165.939L174.005 165.187L174.55 165.289L174.321 164.586L174.505 164.609L174.68 164.387C174.699 164.363 174.718 164.349 174.733 164.341C174.738 164.339 174.742 164.337 174.747 164.336C174.758 164.339 174.772 164.343 174.788 164.347L175.336 164.484L175.405 163.923C175.464 163.447 175.874 163.09 176.356 163.108C176.742 163.122 177.066 163.37 177.194 163.712L177.435 164.358L177.974 163.928C178.056 163.862 178.137 163.836 178.214 163.839L178.214 163.839C178.367 163.844 178.497 163.942 178.549 164.078L178.754 164.615L178.844 164.565L179.064 164.908L178.75 166.162L179.738 165.491L179.573 166.354L180.277 166.007L180.181 166.126L180.365 166.392L179.954 166.669L180.296 167.093C180.394 167.215 180.447 167.361 180.442 167.517ZM176.681 169.333C176.689 169.321 176.697 169.308 176.705 169.295L176.278 169.035L176.066 169.224C176.007 169.25 175.942 169.263 175.873 169.261C175.834 169.259 175.796 169.253 175.761 169.242L176.681 169.333ZM172.572 166.431L172.583 166.42L172.577 166.582C172.555 166.581 172.535 166.576 172.518 166.57C172.49 166.561 172.47 166.547 172.458 166.536L172.572 166.431ZM172.579 166.582L172.585 166.419L172.603 166.402L172.765 166.409C172.761 166.508 172.677 166.585 172.579 166.582ZM172.765 166.407L172.604 166.401L172.727 166.287C172.751 166.319 172.767 166.36 172.765 166.407ZM173.48 164.751C173.422 164.814 173.385 164.897 173.381 164.99L173.48 164.751ZM180.266 165.402C180.272 165.239 180.193 165.094 180.069 165.007C180.066 165.03 180.062 165.05 180.058 165.067L180.266 165.402ZM180.059 165C180.02 164.975 179.977 164.955 179.932 164.943L180.059 165ZM175.787 167.507L176.214 167.232L176.474 167.492L176.479 167.487C176.482 167.484 176.487 167.479 176.493 167.473C176.503 167.462 176.523 167.439 176.544 167.407L176.248 167.21L176.608 166.978C176.6 166.956 176.592 166.938 176.586 166.926C176.583 166.921 176.581 166.917 176.579 166.913L176.216 166.097L175.738 166.814L175.413 167.139L175.767 167.492C175.792 167.518 175.816 167.537 175.832 167.548C175.84 167.554 175.847 167.559 175.852 167.562L175.859 167.566C175.858 167.566 175.857 167.565 175.857 167.565C175.854 167.563 175.849 167.56 175.843 167.555C175.83 167.546 175.809 167.53 175.787 167.507ZM175.672 167.329L175.718 167.312L175.673 167.332C175.673 167.331 175.672 167.33 175.672 167.329ZM175.696 167.383C175.696 167.383 175.696 167.382 175.695 167.38L175.695 167.381L175.696 167.383ZM175.767 166.785L175.766 166.786C175.767 166.785 175.768 166.784 175.767 166.785C175.767 166.785 175.767 166.785 175.767 166.785Z" fill="#9CC142" stroke="black"/>
<path d="M179.056 176.495L178.557 176.477L178.557 176.477C178.557 176.474 178.557 176.454 178.525 176.407L178.317 176.101L178.548 175.812C178.566 175.79 178.575 175.774 178.579 175.764C178.583 175.754 178.583 175.75 178.584 175.747L178.584 175.746C178.586 175.678 178.532 175.621 178.466 175.619L178.465 175.619L178.463 175.619C178.462 175.619 178.46 175.619 178.456 175.62C178.447 175.622 178.432 175.627 178.409 175.639L177.521 176.078L177.695 175.103C177.698 175.086 177.701 175.071 177.705 175.058C177.693 175.005 177.646 174.965 177.589 174.963L177.588 174.963C177.585 174.962 177.581 174.963 177.571 174.966C177.56 174.97 177.543 174.977 177.519 174.993L176.426 175.736L176.754 174.456C176.758 174.44 176.762 174.426 176.765 174.414C176.762 174.404 176.754 174.388 176.741 174.366L176.497 173.975L176.867 173.7C176.89 173.684 176.904 173.667 176.911 173.653C176.918 173.641 176.922 173.629 176.923 173.614L176.923 173.613C176.925 173.545 176.872 173.488 176.804 173.486L176.804 173.486L176.802 173.486C176.801 173.486 176.799 173.486 176.794 173.488C176.785 173.49 176.769 173.496 176.744 173.509L176.245 173.775L176.042 173.247C175.946 172.996 175.709 172.816 175.426 172.806L175.426 172.806C175.271 172.8 175.12 172.855 174.981 172.965L174.443 173.393L174.202 172.749C174.003 172.218 173.503 171.834 172.904 171.812C172.154 171.784 171.52 172.339 171.428 173.077L171.359 173.632L170.815 173.501C170.786 173.494 170.76 173.486 170.744 173.481L170.727 173.476L177.147 174.445L177.238 174.58L177.599 174.672L177.599 174.672L177.723 174.704C177.722 174.704 177.722 174.705 177.722 174.705C177.722 174.705 177.723 174.703 177.725 174.696C177.725 174.695 177.726 174.694 177.726 174.693C177.729 174.685 177.733 174.669 177.738 174.655C177.748 174.62 177.763 174.562 177.768 174.49C177.889 174.527 177.994 174.6 178.071 174.696C178.033 174.711 177.998 174.727 177.966 174.743L178.146 175.107L178.146 175.107L178.187 175.191L178.479 175.243L178.479 175.243L178.679 175.279C178.676 175.298 178.672 175.312 178.671 175.315C178.671 175.316 178.67 175.317 178.671 175.314L178.675 175.302L178.676 175.3C178.681 175.282 178.697 175.233 178.704 175.168C178.935 175.266 179.093 175.499 179.083 175.765C179.078 175.904 179.019 176.024 178.938 176.125C179.011 176.232 179.061 176.356 179.056 176.495ZM179.056 176.495C179.05 176.66 178.976 176.801 178.867 176.906L178.775 176.98L178.926 177.202C179.06 177.44 179.134 177.714 179.123 178.008M179.056 176.495L178.557 176.476C178.556 176.49 178.552 176.503 178.544 176.516C178.535 176.531 178.519 176.549 178.494 176.566L178.045 176.871L178.386 177.294C178.544 177.489 178.633 177.73 178.624 177.99M179.123 178.008L178.624 177.99C178.624 177.99 178.624 177.99 178.624 177.99M179.123 178.008L178.624 177.99M179.123 178.008L178.624 177.99M178.624 177.99C178.608 178.415 178.341 178.771 177.968 178.921L177.324 179.18L177.775 179.709C177.802 179.741 177.809 179.77 177.809 179.793L177.809 179.794C177.806 179.861 177.749 179.915 177.681 179.912L177.68 179.912C177.662 179.912 177.648 179.907 177.634 179.897C177.618 179.887 177.6 179.869 177.586 179.843L177.114 178.988L176.696 179.871C176.583 180.11 176.338 180.268 176.062 180.258C175.843 180.25 175.649 180.125 175.524 179.917L175.214 179.401L174.764 179.799C174.55 179.989 174.272 180.098 173.97 180.087C173.649 180.075 173.366 179.931 173.165 179.705L172.714 179.197L172.363 179.778C172.348 179.803 172.33 179.82 172.312 179.83C172.296 179.84 172.28 179.844 172.261 179.843L172.261 179.843C172.236 179.842 172.216 179.834 172.198 179.818C172.179 179.802 172.163 179.776 172.155 179.743L171.969 178.905L171.446 179.378L171.295 179.009L170.808 179.262C170.785 179.275 170.769 179.28 170.76 179.283C170.751 179.285 170.747 179.285 170.746 179.285L170.731 179.717L178.624 177.99ZM177.146 174.445L176.77 174.429C176.771 174.402 176.775 174.382 176.777 174.378L176.777 174.378L177.146 174.445ZM177.146 174.445L176.988 174.212L176.957 174.166C177.011 174.13 177.071 174.095 177.137 174.064C177.177 174.046 177.218 174.029 177.262 174.015C177.356 173.913 177.417 173.782 177.422 173.632C177.435 173.288 177.166 172.998 176.821 172.986C176.776 172.984 176.733 172.989 176.692 172.998L176.509 173.068L176.372 172.81C176.166 172.517 175.831 172.32 175.444 172.306C175.33 172.302 175.221 172.315 175.117 172.343C175.124 172.362 175.132 172.38 175.138 172.399L174.67 172.574L174.359 172.182C174.383 172.163 174.407 172.145 174.433 172.127C174.095 171.653 173.549 171.335 172.922 171.312L177.146 174.445ZM167.785 176.462L167.777 176.461L167.776 176.461L167.776 176.461L167.775 176.461L167.382 176.446L167.62 176.86L167.439 177.326C167.388 177.306 167.339 177.282 167.292 177.254C167.274 177.31 167.263 177.369 167.261 177.432L169.341 174.562L168.985 174.549L168.926 174.8L168.759 174.891L168.759 174.891L168.487 175.039C168.455 174.979 168.422 174.908 168.398 174.828C168.116 174.947 167.909 175.213 167.877 175.533C167.965 175.543 168.048 175.565 168.123 175.597C168.123 175.597 168.124 175.597 168.124 175.597C168.233 175.643 168.327 175.707 168.404 175.777L168.066 176.146L167.779 176.372L167.779 176.372L167.673 176.455C167.6 176.362 167.535 176.257 167.484 176.141C167.402 176.216 167.348 176.323 167.343 176.443C167.352 176.437 167.361 176.432 167.371 176.427L167.382 176.446L167.775 176.461L167.776 176.461L167.776 176.461L167.777 176.461L167.785 176.461M167.785 176.462L167.776 176.47L167.776 176.47L167.77 176.476L167.728 176.514M167.785 176.462L167.843 176.464C167.842 176.5 167.811 176.529 167.774 176.528C167.773 176.528 167.773 176.528 167.773 176.528C167.765 176.527 167.757 176.526 167.751 176.524C167.746 176.523 167.741 176.521 167.737 176.519C167.732 176.517 167.729 176.515 167.728 176.514M167.785 176.462L167.785 176.461M167.728 176.514C167.728 176.514 167.728 176.514 167.728 176.514L167.728 176.514ZM167.785 176.461L167.843 176.463C167.843 176.448 167.839 176.432 167.831 176.419L167.785 176.461ZM172.946 177.806C172.949 177.803 172.959 177.792 172.971 177.778C172.983 177.764 172.999 177.742 173.016 177.714L172.705 177.528L173.058 177.283C173.053 177.272 173.049 177.263 173.046 177.257L173.044 177.253L172.668 176.35L172.177 177.169C172.177 177.169 172.176 177.17 172.176 177.17L171.916 177.517L172.223 177.823C172.25 177.851 172.276 177.87 172.292 177.882C172.301 177.888 172.308 177.893 172.313 177.897L172.323 177.903C172.324 177.904 172.323 177.902 172.32 177.901C172.318 177.899 172.313 177.896 172.307 177.892C172.294 177.883 172.273 177.867 172.25 177.843L172.678 177.546L172.976 177.77C172.962 177.789 172.95 177.802 172.946 177.806L172.946 177.806ZM172.946 177.806C172.945 177.807 172.944 177.808 172.943 177.809L172.943 177.809L172.946 177.806ZM169.683 179.697C169.571 179.693 169.484 179.599 169.488 179.488L169.506 178.988L169.006 178.97C168.897 178.966 168.81 178.874 168.813 178.762L168.823 178.451L168.547 178.305C168.489 178.274 168.449 178.215 168.446 178.139L168.429 177.657H167.946C167.942 177.657 167.937 177.657 167.933 177.657C167.832 177.642 167.757 177.553 167.761 177.45L167.761 177.45C167.763 177.398 167.792 177.338 167.87 177.293L168.774 176.772L167.841 176.409L168.459 175.837C168.395 175.755 168.37 175.677 168.373 175.607L168.373 175.606C168.38 175.417 168.532 175.267 168.72 175.261L168.738 175.266C168.755 175.272 168.781 175.279 168.811 175.286L169.902 175.544L169.369 174.568L170.188 174.724L169.919 173.915C169.912 173.895 169.91 173.885 169.91 173.882L169.91 173.882L169.683 179.697ZM169.501 173.571C169.447 173.656 169.414 173.756 169.41 173.864L169.501 173.571ZM178.463 175.119L178.483 175.119L178.508 175.12L178.463 175.119ZM168.702 175.255C168.701 175.255 168.7 175.255 168.7 175.255L168.702 175.255Z" fill="#739335" stroke="black"/>
<path d="M178.46 169.072L178.46 169.072C178.369 168.83 178.194 168.642 177.972 168.523L177.493 168.266L177.79 167.81C177.807 167.785 177.814 167.762 177.817 167.745C177.819 167.73 177.817 167.717 177.812 167.703C177.811 167.701 177.809 167.696 177.803 167.689C177.795 167.68 177.781 167.668 177.758 167.653L177.446 167.452L177.547 167.096C177.562 167.042 177.555 167.022 177.554 167.02L177.554 167.02L178.46 169.072ZM178.46 169.072C178.61 169.47 178.503 169.904 178.216 170.193L177.73 170.683M178.46 169.072L177.73 170.683M172.382 173.137L172.687 172.506L173.176 173.198C173.196 173.226 173.221 173.243 173.244 173.25C173.266 173.258 173.288 173.258 173.311 173.249C173.33 173.242 173.343 173.232 173.354 173.217C173.367 173.201 173.377 173.178 173.381 173.149L173.48 172.478L174.092 172.771C174.365 172.901 174.682 172.925 174.984 172.812C175.266 172.705 175.48 172.497 175.604 172.24L175.865 171.697L176.35 172.054C176.546 172.198 176.774 172.237 176.977 172.16L176.978 172.16C177.237 172.063 177.401 171.821 177.414 171.557L177.459 170.584L178.223 171.187C178.246 171.206 178.27 171.216 178.289 171.219C178.306 171.222 178.322 171.221 178.338 171.215L172.382 173.137ZM172.382 173.137L172.098 172.851L171.746 173.276C171.728 173.298 171.716 173.309 171.708 173.315C171.704 173.318 171.702 173.319 171.701 173.32L171.7 173.32L171.7 173.321L171.7 173.321L171.699 173.321C171.694 173.323 171.672 173.33 171.617 173.314L170.838 173.092L170.989 173.888C171.01 173.998 170.953 174.083 170.876 174.112L171.052 174.58L170.877 174.112C170.771 174.151 170.655 174.098 170.616 173.994L170.439 173.527L169.972 173.703C169.869 173.742 169.753 173.69 169.713 173.586L169.602 173.296L169.293 173.267C169.226 173.261 169.165 173.22 169.134 173.152L168.961 172.776L168.559 172.877C168.529 172.884 168.502 172.894 168.478 172.904C168.378 172.932 168.272 172.879 168.235 172.781L168.235 172.781C168.216 172.731 168.22 172.664 168.274 172.594L168.905 171.768L167.905 171.79M172.382 173.137L167.905 171.79M167.905 171.79L168.254 171.023C168.163 170.972 168.11 170.911 168.085 170.844L167.852 170.931C167.77 170.931 167.685 170.942 167.599 170.968C167.505 170.66 167.593 170.335 167.807 170.116C167.861 170.181 167.918 170.233 167.969 170.275L168.164 170.034L168.165 170.032L168.283 169.886L168.242 169.632L168.585 169.504C168.588 169.503 168.591 169.503 168.594 169.502C168.595 169.502 168.595 169.501 168.596 169.501L168.601 169.5M167.905 171.79L167.479 171.987C167.472 171.996 167.466 172.005 167.46 172.013C167.418 171.901 167.426 171.782 167.472 171.681C167.564 171.768 167.665 171.84 167.769 171.897L167.834 171.779L167.835 171.777L168.011 171.46L168.181 170.99C168.083 170.954 167.971 170.931 167.853 170.931L168.085 170.844C168.018 170.665 168.102 170.468 168.271 170.39M168.601 169.5L169.465 170.199L168.364 170.379C168.333 170.384 168.306 170.387 168.289 170.389L168.271 170.39M168.601 169.5L169.398 169.31L168.858 168.687C168.842 168.669 168.836 168.66 168.834 168.657M168.601 169.5L168.834 168.657M168.271 170.39C168.279 170.387 168.286 170.384 168.294 170.381L168.294 170.381L168.299 170.379C168.298 170.38 168.296 170.38 168.294 170.381C168.269 170.39 168.251 170.392 168.251 170.392C168.251 170.392 168.252 170.392 168.254 170.392L168.267 170.391L168.271 170.39ZM168.834 168.657C168.821 168.619 168.834 168.578 168.864 168.553C168.873 168.552 168.883 168.55 168.893 168.547L169.182 168.478L169.26 168.192C169.29 168.081 169.353 168.006 169.432 167.968L169.447 167.967C169.465 167.965 169.492 167.962 169.522 167.957L170.073 167.867L169.923 167.329C169.722 166.612 170.092 165.855 170.793 165.591L170.794 165.591C171.354 165.38 171.964 165.54 172.353 165.953L172.824 166.453L173.155 165.851C173.241 165.695 173.359 165.585 173.503 165.531L173.503 165.531C173.768 165.431 174.057 165.505 174.243 165.699L174.638 166.113L174.995 165.666C175.012 165.645 175.023 165.634 175.029 165.629C175.032 165.627 175.034 165.626 175.034 165.626L175.036 165.625C175.1 165.601 175.172 165.633 175.197 165.698L175.197 165.699C175.202 165.711 175.203 165.723 175.201 165.738C175.199 165.754 175.193 165.775 175.179 165.799L174.942 166.199L175.323 166.464C175.342 166.477 175.354 166.488 175.361 166.495C175.362 166.506 175.364 166.519 175.366 166.533L175.549 167.877L176.282 166.736C176.297 166.712 176.309 166.699 176.317 166.692C176.324 166.686 176.328 166.684 176.331 166.683L176.332 166.682C176.385 166.662 176.445 166.682 176.477 166.728C176.479 166.739 176.481 166.752 176.484 166.766L176.696 167.753L177.353 166.986C177.369 166.968 177.38 166.958 177.386 166.953C177.389 166.951 177.391 166.949 177.392 166.949L177.394 166.948L168.834 168.657ZM177.73 170.683L178.348 170.992M177.73 170.683L178.348 170.992M178.348 170.992C178.384 171.01 178.402 171.033 178.41 171.055L178.348 170.992ZM173.152 171.103L173.152 171.103C173.153 171.1 173.158 171.087 173.163 171.071C173.168 171.054 173.175 171.029 173.18 170.999L172.835 170.942L173.069 170.587C173.056 170.574 173.044 170.564 173.036 170.557C173.028 170.55 173.021 170.544 173.018 170.542L173.017 170.541L172.344 169.935L172.199 170.803C172.197 170.813 172.194 170.823 172.192 170.835L172.108 171.256L172.511 171.403C172.541 171.414 172.566 171.42 172.583 171.423C172.591 171.425 172.598 171.427 172.603 171.428L172.612 171.429C172.613 171.429 172.611 171.429 172.609 171.429C172.606 171.428 172.601 171.427 172.595 171.426C172.588 171.424 172.579 171.422 172.568 171.419C172.557 171.415 172.544 171.411 172.529 171.405L172.822 170.961L173.172 171.031C173.167 171.06 173.159 171.082 173.156 171.092L173.152 171.103ZM173.152 171.103C173.152 171.104 173.151 171.104 173.151 171.104M173.152 171.103L173.152 171.104L173.151 171.104M173.151 171.104C173.151 171.105 173.151 171.105 173.151 171.104L173.151 171.104ZM167.869 171.868L167.873 171.86L167.928 171.839C167.941 171.872 167.925 171.91 167.891 171.924C167.89 171.924 167.89 171.925 167.89 171.925C167.889 171.925 167.889 171.925 167.889 171.925C167.882 171.928 167.875 171.929 167.868 171.93C167.862 171.931 167.857 171.931 167.852 171.931C167.846 171.931 167.842 171.93 167.841 171.93L167.867 171.873L167.868 171.87L167.869 171.868ZM167.928 171.838L167.874 171.858L167.899 171.802C167.912 171.811 167.922 171.824 167.928 171.838ZM168.378 172.962C168.378 172.963 168.379 172.962 168.38 172.961L168.379 172.962L168.378 172.962L168.378 172.962L168.378 172.962L168.378 172.962ZM175.358 166.456L175.358 166.457L175.358 166.456ZM169.41 167.97C169.41 167.97 169.411 167.97 169.412 167.97L169.41 167.97ZM168.582 169.504L168.242 169.632L168.582 169.504Z" fill="#83A152" stroke="black"/>
<path d="M100.044 109.867V104.683H114.927V109.867H100.044Z" fill="#DD9F47" stroke="black"/>
<path d="M106.985 193.176H10.9583V54.9607L58.9713 24.7315L106.985 54.9607V193.176Z" fill="#FFCE73" stroke="black"/>
<path d="M59.2376 41.4115L58.9712 41.2438L58.7049 41.4115L10.9583 71.473V54.9597L58.9713 24.7315L106.985 54.9597V71.473L59.2376 41.4115Z" fill="#EFB962" stroke="black"/>
<path d="M59.2376 31.6475L58.9712 31.4798L58.7048 31.6475L1.04224 67.951V61.2027L58.9712 24.7315L116.901 61.2027V67.951L59.2376 31.6475Z" fill="#9C5041" stroke="black"/>
<path d="M70.6351 193.324H47.3081V139.835C47.3081 133.394 52.5302 128.171 58.9721 128.171C65.414 128.171 70.6361 133.394 70.6361 139.835L70.6351 193.324Z" fill="#9C5041" stroke="black"/>
<path d="M58.9592 193.324V128.171H58.9832V193.324H58.9592Z" fill="#7F4036" stroke="black"/>
<path d="M46.7593 141.248V141.24H71.1843V141.248H46.7593Z" fill="#7F4036" stroke="black"/>
<path d="M46.7593 154.266V154.258H71.1843V154.266H46.7593Z" fill="#7F4036" stroke="black"/>
<path d="M46.7593 167.283V167.275H71.1843V167.283H46.7593Z" fill="#7F4036" stroke="black"/>
<path d="M46.7593 180.3V180.292H71.1843V180.3H46.7593Z" fill="#7F4036" stroke="black"/>
<path d="M46.8292 140.385V194.737H45.6882V140.385C45.6882 133.062 51.6473 127.103 58.9722 127.103C66.2971 127.103 72.2562 133.062 72.2562 140.385V194.737H71.1152V140.385C71.1152 133.69 65.6683 128.244 58.9722 128.244C52.2751 128.244 46.8292 133.689 46.8292 140.385Z" fill="#EFEFEF" stroke="black"/>
<path d="M70.6351 109.362H47.3081V69.4023C47.3081 62.9604 52.5302 57.7383 58.9721 57.7383C65.414 57.7383 70.6361 62.9604 70.6361 69.4023L70.6351 109.362Z" fill="#ACD6F6" stroke="black"/>
<path d="M58.9592 109.361V57.7383H58.9832V109.361H58.9592Z" fill="#EFEFEF" stroke="black"/>
<path d="M46.7593 70.8146V70.8066H71.1843V70.8146H46.7593Z" fill="#EFEFEF" stroke="black"/>
<path d="M46.7593 83.8317V83.8237H71.1843V83.8317H46.7593Z" fill="#EFEFEF" stroke="black"/>
<path d="M46.7593 96.8488V96.8408H71.1843V96.8488H46.7593Z" fill="#EFEFEF" stroke="black"/>
<path d="M46.7593 109.866V109.858H71.1843V109.866H46.7593Z" fill="#EFEFEF" stroke="black"/>
<path d="M46.8292 110.254L46.8292 110.754H47.3292H70.6142H71.1142V110.254V69.9514C71.1142 63.2562 65.6683 57.8104 58.9712 57.8104C52.2752 57.8104 46.8282 63.2562 46.8282 69.9514L46.8292 110.254ZM72.2552 111.895H45.6882V69.9514C45.6882 62.6286 51.6473 56.6694 58.9722 56.6694C66.2971 56.6694 72.2562 62.6286 72.2562 69.9514L72.2552 111.895Z" fill="#EFEFEF" stroke="black"/>
<path d="M19.2112 140.957V126.279H32.0442V140.957H19.2112Z" fill="#EFEFEF" stroke="black"/>
<path d="M20.8811 139.064V128.172H30.3741V139.064H20.8811Z" fill="#ACD6F6" stroke="black"/>
<path d="M19.2112 162.105V147.427H32.0442V162.105H19.2112Z" fill="#EFEFEF" stroke="black"/>
<path d="M20.8811 160.212V149.32H30.3741V160.212H20.8811Z" fill="#ACD6F6" stroke="black"/>
<path d="M19.2112 183.252V168.574H32.0442V183.252H19.2112Z" fill="#EFEFEF" stroke="black"/>
<path d="M20.8811 181.359V170.467H30.3741V181.359H20.8811Z" fill="#ACD6F6" stroke="black"/>
<path d="M84.8682 140.957V126.279H97.7012V140.957H84.8682Z" fill="#EFEFEF" stroke="black"/>
<path d="M86.5381 139.064V128.172H96.0311V139.064H86.5381Z" fill="#ACD6F6" stroke="black"/>
<path d="M84.8682 162.105V147.427H97.7012V162.105H84.8682Z" fill="#EFEFEF" stroke="black"/>
<path d="M86.5381 160.212V149.32H96.0311V160.212H86.5381Z" fill="#ACD6F6" stroke="black"/>
<path d="M84.8682 183.252V168.574H97.7012V183.252H84.8682Z" fill="#EFEFEF" stroke="black"/>
<path d="M86.5381 181.359V170.467H96.0311V181.359H86.5381Z" fill="#ACD6F6" stroke="black"/>
<path d="M14.0913 67.1624V64.6064H40.2493V67.1624H14.0913Z" fill="#DD9F47" stroke="black"/>
<path d="M14.0913 74.4666V71.9106H40.2493V74.4666H14.0913Z" fill="#DD9F47" stroke="black"/>
<path d="M14.0913 81.7704V79.2144H40.2493V81.7704H14.0913Z" fill="#DD9F47" stroke="black"/>
<path d="M14.0913 89.0746V86.5186H40.2493V89.0746H14.0913Z" fill="#DD9F47" stroke="black"/>
<path d="M14.0913 96.3783V93.8223H40.2493V96.3783H14.0913Z" fill="#DD9F47" stroke="black"/>
<path d="M14.0913 103.682V101.126H40.2493V103.682H14.0913Z" fill="#DD9F47" stroke="black"/>
<path d="M14.0913 110.987V108.431H40.2493V110.987H14.0913Z" fill="#DD9F47" stroke="black"/>
<path d="M14.0913 118.29V115.734H40.2493V118.29H14.0913Z" fill="#DD9F47" stroke="black"/>
<path d="M146.737 76.7649V62.0869H159.57V76.7649H146.737Z" fill="#EFEFEF" stroke="black"/>
<path d="M148.407 74.872V63.98H157.9V74.872H148.407Z" fill="#ACD6F6" stroke="black"/>
<path d="M146.737 97.9119V83.2339H159.57V97.9119H146.737Z" fill="#EFEFEF" stroke="black"/>
<path d="M148.407 96.019V85.127H157.9V96.019H148.407Z" fill="#ACD6F6" stroke="black"/>
<path d="M146.737 119.06V104.382H159.57V119.06H146.737Z" fill="#EFEFEF" stroke="black"/>
<path d="M148.407 117.167V106.275H157.9V117.167H148.407Z" fill="#ACD6F6" stroke="black"/>
<path d="M1.02413 196.072C1.27166 193.953 3.07241 192.31 5.25712 192.31H114.699C116.884 192.31 118.685 193.953 118.932 196.072H1.02413Z" fill="#83A152" stroke="black"/>
<path d="M116.579 190.292L116.579 190.291C116.589 190.037 116.502 189.801 116.347 189.609L116.005 189.185L116.456 188.881C116.479 188.865 116.494 188.849 116.502 188.835C116.509 188.823 116.513 188.812 116.513 188.798L117.013 188.817M116.579 190.292L114.792 185.858C114.792 185.858 114.792 185.858 114.792 185.858M116.579 190.292C116.565 190.707 116.304 191.056 115.937 191.205L115.297 191.466L115.745 191.992C115.772 192.024 115.778 192.05 115.777 192.071L115.777 192.072C115.775 192.133 115.722 192.184 115.658 192.182C115.642 192.181 115.628 192.177 115.616 192.168C115.601 192.159 115.584 192.142 115.57 192.117L115.099 191.267L114.681 192.145C114.57 192.379 114.331 192.533 114.062 192.523L114.061 192.523C113.849 192.515 113.659 192.393 113.537 192.19L113.227 191.674L112.776 192.073C112.568 192.258 112.295 192.366 112 192.355C111.684 192.343 111.406 192.201 111.21 191.98L110.76 191.472L110.408 192.052C110.394 192.076 110.376 192.092 110.36 192.101C110.345 192.11 110.33 192.114 110.312 192.114C110.289 192.113 110.27 192.104 110.255 192.091C110.238 192.076 110.222 192.052 110.215 192.021L110.029 191.183L109.512 191.65L109.365 191.289L108.879 191.54C108.854 191.553 108.839 191.558 108.829 191.561C108.825 191.562 108.822 191.562 108.821 191.563L108.82 191.563L108.82 191.563C108.816 191.563 108.811 191.562 108.802 191.558C108.792 191.554 108.776 191.545 108.754 191.527L108.122 191.02L107.952 191.813C107.929 191.919 107.847 191.972 107.771 191.969L107.77 191.969C107.664 191.965 107.582 191.876 107.586 191.771L107.604 191.271L107.104 191.253C107 191.249 106.917 191.161 106.921 191.055L106.931 190.745L106.657 190.599C106.601 190.568 106.562 190.511 106.56 190.439L106.542 189.957H106.06C106.055 189.957 106.05 189.957 106.046 189.958C105.951 189.943 105.881 189.86 105.884 189.763C105.886 189.711 105.915 189.654 105.987 189.613L106.886 189.096L105.959 188.729L106.571 188.166C106.509 188.086 106.485 188.011 106.488 187.943L106.488 187.943C106.494 187.761 106.641 187.616 106.82 187.609L106.839 187.615C106.856 187.62 106.88 187.628 106.909 187.634L107.998 187.897L107.476 186.929L108.285 187.083L108.011 186.271C108.005 186.255 108.003 186.246 108.003 186.243C108.005 186.206 108.029 186.176 108.062 186.166C108.074 186.168 108.087 186.17 108.1 186.172L108.386 186.213L108.564 185.987C108.634 185.897 108.719 185.854 108.802 185.85L108.806 185.852L108.817 185.855C108.833 185.86 108.857 185.867 108.885 185.874L109.431 186.008L109.5 185.45C109.59 184.726 110.212 184.182 110.948 184.209L110.948 184.209C111.536 184.23 112.027 184.607 112.222 185.129L112.463 185.773L113.001 185.344C113.137 185.236 113.285 185.182 113.434 185.188L113.435 185.188C113.709 185.198 113.941 185.373 114.035 185.618L114.239 186.149L114.739 185.88C114.773 185.861 114.789 185.858 114.792 185.858M116.579 190.292L114.792 185.858M117.013 188.817L116.513 188.799C116.513 188.797 116.513 188.793 116.51 188.784C116.507 188.774 116.5 188.758 116.485 188.736L116.275 188.43L116.507 188.141C116.524 188.119 116.532 188.104 116.536 188.094C116.54 188.086 116.54 188.082 116.54 188.08L117.04 188.098M117.013 188.817C117.018 188.68 116.969 188.558 116.897 188.453C116.977 188.353 117.035 188.235 117.04 188.098M117.013 188.817C117.007 188.979 116.935 189.119 116.827 189.222L116.736 189.295L116.888 189.52C117.018 189.754 117.089 190.023 117.079 190.309C117.063 190.749 116.863 191.138 116.555 191.405C116.539 191.384 116.523 191.364 116.507 191.344L116.126 191.668L116.277 192.038C116.278 192.055 116.278 192.072 116.277 192.089L116.672 187.512C116.896 187.61 117.049 187.839 117.04 188.098M117.04 188.098L116.54 188.081C116.543 188.016 116.492 187.963 116.43 187.961L116.43 187.961C116.429 187.961 116.414 187.963 116.378 187.981L115.49 188.42L115.664 187.444C115.667 187.429 115.67 187.415 115.672 187.403C115.661 187.353 115.617 187.316 115.565 187.314L115.565 187.314C115.563 187.314 115.559 187.314 115.551 187.317C115.541 187.32 115.526 187.327 115.503 187.343L114.396 188.101L114.736 186.804C114.74 186.79 114.744 186.778 114.747 186.767C114.743 186.758 114.736 186.743 114.724 186.724L114.479 186.332L114.851 186.057C114.871 186.042 114.884 186.027 114.891 186.014C114.898 186.002 114.902 185.99 114.902 185.976C114.904 185.912 114.853 185.86 114.792 185.858M114.792 185.858C114.793 185.858 114.793 185.858 114.793 185.858C114.793 185.858 114.793 185.858 114.792 185.858ZM113.416 192.795C113.591 192.929 113.804 193.014 114.043 193.022L113.416 192.795ZM113.416 192.795L113.108 192.447L112.679 192.705C112.682 192.709 112.685 192.714 112.688 192.718C112.472 192.814 112.233 192.864 111.981 192.854C111.704 192.844 111.446 192.764 111.224 192.632C111.238 192.612 111.251 192.591 111.264 192.57L110.836 192.311L110.55 192.565C110.472 192.599 110.386 192.617 110.294 192.613L113.416 192.795ZM110.718 189.848L111.099 189.574C111.095 189.566 111.092 189.559 111.089 189.554L111.087 189.551L110.793 188.903L110.282 189.413C110.281 189.414 110.274 189.422 110.265 189.431C110.257 189.44 110.242 189.456 110.225 189.478L109.93 189.871L110.318 190.173C110.337 190.188 110.354 190.199 110.363 190.205L110.374 190.211C110.376 190.213 110.375 190.212 110.375 190.212C110.374 190.211 110.364 190.205 110.351 190.196C110.342 190.189 110.332 190.181 110.32 190.171C110.313 190.165 110.306 190.158 110.298 190.151L110.382 190.091L110.718 189.848M110.718 189.848L110.717 189.847L110.718 189.848M110.718 189.848L110.718 189.848M110.718 189.848L111.025 190.078C111.011 190.096 111 190.109 110.995 190.114C110.993 190.117 110.991 190.119 110.99 190.12L110.718 189.848M105.896 188.787L105.897 188.786L105.965 188.788C105.963 188.826 105.933 188.857 105.894 188.858C105.893 188.858 105.892 188.858 105.891 188.858C105.89 188.858 105.89 188.858 105.889 188.858C105.881 188.857 105.874 188.856 105.867 188.854C105.861 188.853 105.856 188.851 105.851 188.849C105.841 188.844 105.837 188.84 105.837 188.84L105.892 188.791L105.892 188.79L105.896 188.787ZM105.965 188.788L105.897 188.786L105.95 188.737C105.95 188.737 105.95 188.737 105.95 188.737C105.959 188.751 105.965 188.769 105.965 188.788ZM114.361 185.177C114.158 184.892 113.83 184.702 113.453 184.688L114.361 185.177ZM114.751 186.784C114.751 186.784 114.751 186.784 114.751 186.783C114.751 186.784 114.751 186.784 114.751 186.784Z" fill="#6D8929" stroke="black"/>
<path d="M110.764 184.116C110.652 184.215 110.522 184.294 110.38 184.347L110.764 184.116ZM110.764 184.116C110.824 184.217 110.902 184.305 110.993 184.376L110.764 184.116ZM108.635 182.45L108.576 182.488C108.582 182.493 108.587 182.498 108.592 182.502C108.608 182.518 108.624 182.529 108.635 182.537C108.642 182.543 108.648 182.547 108.652 182.549L108.66 182.554L108.658 182.553L108.646 182.545C108.64 182.541 108.632 182.536 108.623 182.53C108.613 182.523 108.602 182.515 108.59 182.504L108.169 182.154L108.527 181.796L108.951 181.161L109.352 181.863L109.352 181.863L108.635 182.45ZM108.635 182.45L109.003 182.213L108.635 182.45ZM112.824 183.075L112.402 183.251L112.24 182.962L111.824 183.837C111.762 183.967 111.629 184.052 111.48 184.047L111.48 184.047C111.372 184.043 111.266 183.982 111.193 183.859L110.883 183.344L110.433 183.742C110.299 183.86 110.126 183.928 109.941 183.921L109.939 183.921C109.743 183.914 109.567 183.825 109.44 183.683L108.991 183.178L108.701 183.654L108.541 182.93L108.126 183.306L108.029 183.068L107.569 183.315L106.957 182.823L106.788 183.617C106.786 183.626 106.782 183.631 106.78 183.633C106.777 183.633 106.776 183.632 106.775 183.632C106.774 183.631 106.772 183.63 106.77 183.628C106.769 183.626 106.767 183.624 106.767 183.622C106.766 183.62 106.766 183.618 106.766 183.615L106.783 183.117L106.285 183.098C106.276 183.097 106.268 183.089 106.269 183.08L106.279 182.771L106.006 182.624C106.003 182.623 106.002 182.621 106.001 182.62C106 182.619 105.999 182.616 105.999 182.611L105.981 182.129H105.504C105.503 182.129 105.501 182.128 105.499 182.126C105.498 182.124 105.496 182.122 105.496 182.12C105.495 182.119 105.495 182.119 105.495 182.118C105.497 182.115 105.502 182.111 105.509 182.107L106.411 181.587L105.539 181.247L105.98 180.839C105.949 180.799 105.945 180.771 105.946 180.757L105.946 180.755C105.948 180.692 105.994 180.64 106.055 180.63C106.066 180.633 106.082 180.638 106.1 180.642L107.204 180.919L106.795 180.166L107.34 180.268L107.111 179.566L107.297 179.59L107.472 179.366C107.49 179.343 107.509 179.329 107.523 179.322C107.528 179.319 107.532 179.317 107.536 179.316C107.548 179.319 107.562 179.324 107.578 179.327L108.126 179.464L108.195 178.904C108.254 178.427 108.664 178.071 109.146 178.088C109.532 178.102 109.855 178.35 109.984 178.693L110.226 179.337L110.764 178.908C110.846 178.843 110.927 178.816 111.004 178.819L111.004 178.819C111.158 178.825 111.287 178.922 111.339 179.058L111.543 179.596L111.638 179.544L111.854 179.888L111.54 181.142L112.527 180.472L112.363 181.334L113.067 180.987L112.97 181.107L113.154 181.372L112.744 181.65L113.086 182.073C113.183 182.194 113.237 182.341 113.231 182.499C113.222 182.756 113.06 182.977 112.824 183.075ZM105.373 181.4L105.393 181.382L105.555 181.388C105.551 181.485 105.469 181.565 105.367 181.561C105.367 181.561 105.366 181.561 105.366 181.561C105.344 181.56 105.324 181.556 105.308 181.55C105.28 181.54 105.26 181.526 105.248 181.515L105.362 181.41L105.372 181.4L105.373 181.4ZM105.555 181.386L105.394 181.381L105.517 181.267C105.541 181.298 105.556 181.339 105.555 181.386ZM106.906 179.53L106.906 179.53L106.906 179.53ZM106.269 179.73C106.211 179.793 106.175 179.877 106.171 179.969L106.269 179.73ZM108.556 181.767L108.556 181.767L108.556 181.767ZM105.388 182.142L105.387 182.142L105.387 182.142C105.387 182.142 105.388 182.142 105.388 182.142Z" fill="#9CC142" stroke="black"/>
<path d="M110.835 191.852L111.284 191.547C111.309 191.53 111.325 191.511 111.334 191.497C111.342 191.483 111.346 191.471 111.346 191.456L111.846 191.475M110.835 191.852L102.7 188.862M110.835 191.852L111.176 192.275C111.334 192.47 111.423 192.71 111.413 192.97C111.398 193.395 111.131 193.751 110.757 193.902L110.112 194.164L110.566 194.692C110.593 194.722 110.6 194.751 110.599 194.774L110.599 194.775C110.597 194.843 110.54 194.896 110.472 194.894L110.471 194.894C110.454 194.893 110.44 194.888 110.425 194.879C110.409 194.868 110.391 194.85 110.376 194.823L109.903 193.974L109.487 194.852C109.374 195.091 109.129 195.25 108.853 195.24C108.634 195.231 108.44 195.106 108.315 194.898L108.005 194.381L107.554 194.781C107.342 194.97 107.064 195.08 106.762 195.069C106.44 195.056 106.156 194.911 105.956 194.685L105.507 194.18L105.155 194.757C105.139 194.783 105.12 194.801 105.102 194.811C105.086 194.82 105.07 194.824 105.051 194.824L105.051 194.824C105.026 194.823 105.005 194.814 104.988 194.799C104.969 194.782 104.952 194.756 104.945 194.724L104.76 193.893L104.236 194.359L104.085 193.988L103.598 194.242C103.554 194.265 103.538 194.265 103.536 194.265M110.835 191.852L103.536 194.265M111.846 191.475L111.346 191.457L111.346 191.457C111.346 191.455 111.347 191.434 111.315 191.387L111.106 191.081L111.338 190.793C111.355 190.772 111.364 190.756 111.368 190.745C111.372 190.736 111.373 190.73 111.373 190.725C111.375 190.657 111.322 190.601 111.256 190.599L111.254 190.599L111.253 190.599C111.252 190.599 111.249 190.6 111.245 190.601C111.237 190.603 111.222 190.608 111.199 190.62L110.311 191.059L110.485 190.083C110.488 190.067 110.491 190.052 110.494 190.039C110.482 189.986 110.436 189.945 110.379 189.943L110.378 189.943C110.374 189.943 110.369 189.943 110.36 189.946C110.35 189.95 110.334 189.957 110.312 189.972L109.213 190.729L109.544 189.436C109.548 189.421 109.552 189.406 109.555 189.395C109.551 189.384 109.544 189.368 109.53 189.346L109.287 188.955L109.657 188.681C109.679 188.664 109.693 188.648 109.701 188.634C109.708 188.621 109.712 188.608 109.712 188.594L109.712 188.592C109.715 188.524 109.661 188.467 109.595 188.465C109.595 188.465 109.595 188.465 109.595 188.465C109.594 188.465 109.591 188.465 109.583 188.467C109.574 188.47 109.559 188.475 109.536 188.488L109.035 188.757L108.832 188.226C108.736 187.975 108.499 187.795 108.216 187.785L108.215 187.785C108.062 187.779 107.909 187.835 107.771 187.945L107.233 188.372L106.992 187.729C106.793 187.198 106.292 186.813 105.694 186.791C104.944 186.764 104.31 187.318 104.218 188.056L104.149 188.611L103.605 188.48C103.575 188.473 103.55 188.466 103.533 188.46L103.517 188.455C103.43 188.46 103.343 188.505 103.272 188.595L103.095 188.822L102.81 188.783C102.795 188.781 102.781 188.778 102.768 188.775C102.73 188.786 102.701 188.821 102.7 188.862C102.7 188.862 102.7 188.862 102.7 188.862M111.846 191.475C111.851 191.336 111.801 191.212 111.728 191.105L111.565 191.96L111.656 191.887C111.766 191.781 111.84 191.64 111.846 191.475ZM102.7 188.862C102.7 188.865 102.702 188.874 102.708 188.894L102.964 189.662L102.163 189.547C102.162 189.547 102.16 189.547 102.159 189.547M102.7 188.862L102.159 189.547M102.159 189.547L102.692 190.524L101.601 190.266C101.571 190.259 101.545 190.251 101.528 190.246L101.509 190.24C101.323 190.246 101.169 190.396 101.163 190.585L101.163 190.586C101.16 190.657 101.185 190.735 101.249 190.816L100.628 191.388L101.563 191.752L100.66 192.273C100.582 192.318 100.553 192.377 100.551 192.429L100.551 192.429C100.547 192.533 100.622 192.621 100.722 192.637C100.727 192.636 100.731 192.636 100.736 192.636H101.219L101.236 193.119C101.238 193.194 101.278 193.253 101.337 193.285L101.612 193.431L101.603 193.742C101.599 193.853 101.686 193.946 101.796 193.95L102.296 193.968L102.278 194.467C102.274 194.578 102.36 194.672 102.472 194.677C102.554 194.68 102.639 194.623 102.663 194.513L102.832 193.723L103.463 194.226C103.51 194.264 103.532 194.265 103.536 194.265L103.536 194.265M102.159 189.547L103.536 194.265M110.052 188.995C110.008 189.009 109.967 189.026 109.927 189.044C109.86 189.075 109.799 189.111 109.744 189.149L109.776 189.194L109.935 189.425M110.052 188.995L109.566 189.359C109.565 189.363 109.561 189.382 109.559 189.409L109.935 189.425M110.052 188.995C110.023 189.027 109.99 189.056 109.955 189.082L110.052 188.995ZM109.935 189.425L110.059 189.43L109.935 189.426L109.935 189.425ZM100.082 192.233C100.064 192.289 100.053 192.349 100.051 192.411L100.082 192.233ZM100.082 192.233C100.129 192.261 100.178 192.285 100.229 192.305L100.41 191.839L100.082 192.233ZM102.363 188.57L102.363 188.57L102.363 188.57ZM101.49 190.234C101.49 190.234 101.491 190.234 101.491 190.235L101.49 190.234ZM100.57 191.441L100.619 191.396C100.619 191.396 100.619 191.396 100.619 191.396C100.628 191.409 100.633 191.427 100.633 191.443L100.57 191.441ZM100.57 191.441L100.633 191.443C100.631 191.479 100.601 191.508 100.563 191.507C100.563 191.507 100.563 191.507 100.563 191.507C100.555 191.507 100.548 191.505 100.541 191.503C100.536 191.502 100.532 191.501 100.528 191.499C100.52 191.495 100.516 191.492 100.515 191.491L100.562 191.448L100.566 191.445L100.566 191.445L100.57 191.441ZM100.274 191.121C100.325 191.237 100.39 191.342 100.463 191.435L100.569 191.351L100.569 191.351L100.856 191.125L101.197 190.759C101.118 190.686 101.023 190.622 100.915 190.577C100.915 190.577 100.914 190.576 100.914 190.576C100.838 190.545 100.755 190.522 100.667 190.513C100.699 190.192 100.905 189.926 101.188 189.807C101.212 189.888 101.244 189.959 101.277 190.019L101.548 189.871L101.549 189.871L101.716 189.779L101.775 189.529L102.13 189.542L100.274 191.121ZM102.051 189.52L102.051 189.52L102.051 189.52ZM103.497 188.449C103.497 188.449 103.497 188.449 103.498 188.449L103.497 188.449ZM105.039 192.823L105.453 192.536L105.72 192.803C105.72 192.802 105.728 192.794 105.736 192.786C105.745 192.776 105.76 192.76 105.777 192.737L105.482 192.516L105.848 192.262C105.843 192.251 105.839 192.242 105.835 192.235L105.829 192.223L105.483 191.462L104.995 192.113L104.659 192.449L105.012 192.803C105.04 192.83 105.065 192.85 105.082 192.862C105.091 192.868 105.098 192.873 105.103 192.876L105.113 192.882C105.114 192.883 105.112 192.882 105.11 192.881C105.108 192.879 105.103 192.876 105.096 192.871C105.084 192.862 105.063 192.846 105.039 192.823Z" fill="#739335" stroke="black"/>
<path d="M105.168 188.114L105.468 187.478L105.963 188.176C105.983 188.204 106.008 188.221 106.031 188.229C106.053 188.236 106.074 188.236 106.098 188.228C106.116 188.221 106.13 188.21 106.141 188.195C106.153 188.179 106.164 188.156 106.168 188.127L106.267 187.457L106.879 187.749C107.152 187.88 107.47 187.904 107.77 187.791L107.77 187.79C108.051 187.685 108.265 187.476 108.39 187.218L108.651 186.676L109.136 187.033C109.332 187.176 109.56 187.216 109.763 187.139L109.764 187.138C110.022 187.041 110.187 186.8 110.199 186.535L110.244 185.563L111.009 186.166C111.033 186.185 111.056 186.194 111.074 186.198C111.091 186.201 111.106 186.2 111.122 186.194L105.168 188.114ZM105.168 188.114L104.886 187.83L104.534 188.254C104.516 188.276 104.503 188.288 104.496 188.294C104.492 188.297 104.49 188.298 104.489 188.298L104.488 188.299L104.488 188.299L104.487 188.299C104.482 188.301 104.46 188.308 104.405 188.293L103.626 188.07L103.777 188.866C103.798 188.977 103.741 189.061 103.664 189.09L103.84 189.558L103.665 189.09C103.559 189.13 103.443 189.077 103.404 188.973L103.227 188.505L102.76 188.681C102.657 188.72 102.541 188.669 102.501 188.564L102.39 188.275L102.081 188.246C102.014 188.239 101.953 188.199 101.922 188.131L101.734 187.724L101.31 187.866C101.293 187.872 101.278 187.878 101.264 187.884C101.165 187.91 101.061 187.858 101.024 187.76L101.023 187.759C101.005 187.71 101.009 187.644 101.062 187.574L101.693 186.747L100.694 186.77M105.168 188.114L100.694 186.77M100.694 186.77L101.044 186.003C100.953 185.952 100.9 185.89 100.875 185.823L100.642 185.911C100.56 185.911 100.475 185.922 100.389 185.947C100.295 185.64 100.383 185.315 100.596 185.096C100.651 185.162 100.709 185.214 100.761 185.256L100.954 185.015L100.955 185.013L101.073 184.865L101.031 184.611L101.374 184.483C101.375 184.483 101.377 184.483 101.378 184.482C101.38 184.482 101.383 184.481 101.385 184.481L101.391 184.479M100.694 186.77L100.268 186.967C100.261 186.975 100.255 186.984 100.248 186.993C100.207 186.881 100.215 186.761 100.261 186.66C100.353 186.747 100.453 186.819 100.556 186.876L100.622 186.758L100.623 186.756L100.8 186.439L100.97 185.969C100.872 185.934 100.761 185.911 100.643 185.911L100.875 185.823C100.808 185.645 100.892 185.447 101.061 185.37M101.391 184.479L102.266 185.177L101.154 185.359C101.123 185.364 101.096 185.367 101.079 185.368L101.061 185.37M101.391 184.479L102.187 184.29L101.647 183.667C101.631 183.649 101.625 183.639 101.623 183.636M101.391 184.479L100.888 184.384M101.061 185.37C101.069 185.366 101.076 185.363 101.084 185.36L101.084 185.36L101.089 185.358C101.087 185.359 101.086 185.36 101.084 185.36C101.059 185.369 101.041 185.372 101.041 185.372C101.041 185.372 101.042 185.372 101.044 185.371L101.056 185.37L101.061 185.37ZM100.888 184.384C100.893 184.358 100.9 184.332 100.908 184.307L101.219 184.038L101.219 184.038L101.269 183.994L101.22 183.79L101.624 183.638C101.624 183.638 101.623 183.637 101.623 183.636M100.888 184.384C100.907 184.381 100.923 184.379 100.936 184.377C100.95 184.376 100.97 184.374 100.98 184.373C100.982 184.373 100.983 184.373 100.984 184.373C100.991 184.372 100.994 184.372 100.994 184.372C100.994 184.372 100.993 184.372 100.992 184.372L101.031 184.611L101.371 184.484C101.343 184.49 101.32 184.493 101.305 184.494C101.296 184.495 101.289 184.496 101.285 184.496L101.28 184.496L101.279 184.497L101.287 184.496C101.292 184.495 101.299 184.494 101.308 184.493C101.325 184.49 101.349 184.484 101.376 184.474C101.375 184.471 101.374 184.469 101.372 184.466C101.37 184.462 101.368 184.46 101.368 184.459C101.367 184.459 101.367 184.459 101.367 184.459C101.367 184.459 101.371 184.463 101.382 184.472C101.382 184.472 101.382 184.472 101.383 184.472C101.383 184.472 101.383 184.472 101.383 184.472C101.383 184.472 101.383 184.472 101.383 184.472C101.383 184.472 101.382 184.472 101.382 184.472L100.888 184.384ZM101.623 183.636C101.61 183.598 101.623 183.558 101.652 183.533M101.623 183.636L101.652 183.533M101.652 183.533C101.668 183.53 101.685 183.526 101.703 183.521L101.974 183.444L102.048 183.173C102.079 183.061 102.143 182.985 102.221 182.948L102.237 182.946C102.255 182.945 102.281 182.942 102.312 182.937L102.863 182.847L102.712 182.308C102.512 181.592 102.882 180.834 103.583 180.57L103.583 180.57C104.143 180.359 104.754 180.52 105.143 180.932L105.614 181.432L105.945 180.83C106.031 180.674 106.149 180.565 106.293 180.51L106.293 180.51C106.558 180.41 106.847 180.485 107.032 180.679L107.428 181.093L107.785 180.645C107.801 180.625 107.812 180.615 107.819 180.61C107.823 180.606 107.826 180.605 107.827 180.604C107.891 180.581 107.962 180.613 107.986 180.678L107.987 180.678C107.991 180.691 107.993 180.703 107.991 180.717C107.989 180.733 107.983 180.755 107.969 180.779L107.732 181.178L108.113 181.444C108.132 181.457 108.144 181.467 108.151 181.475C108.152 181.486 108.154 181.499 108.156 181.513L108.339 182.857L109.072 181.716C109.087 181.692 109.099 181.679 109.107 181.672C109.114 181.665 109.118 181.663 109.121 181.662L109.021 181.395L109.146 181.378L109.146 181.378C109.146 181.378 109.146 181.376 109.145 181.367C109.145 181.366 109.145 181.365 109.145 181.364C109.144 181.355 109.143 181.339 109.141 181.323C109.137 181.286 109.128 181.226 109.105 181.157C109.231 181.145 109.355 181.172 109.463 181.231C109.434 181.259 109.407 181.288 109.383 181.316L109.692 181.58L109.693 181.581L109.763 181.641L110.053 181.579L110.183 181.929C110.184 181.929 110.184 181.928 110.184 181.928M101.652 183.533L108.514 181.357L108.651 181.445L109.02 181.395L109.12 181.663C109.175 181.642 109.235 181.662 109.267 181.708M110.184 181.928L110.182 181.929C110.181 181.93 110.179 181.931 110.176 181.933C110.17 181.938 110.158 181.948 110.143 181.967L109.486 182.733L109.274 181.746C109.271 181.732 109.269 181.72 109.267 181.708M110.184 181.928L110.184 181.928L110.053 181.579L110.252 181.537C110.256 181.554 110.257 181.566 110.257 181.568L110.257 181.568C110.257 181.569 110.257 181.569 110.257 181.568C110.257 181.568 110.257 181.567 110.257 181.565L110.255 181.55C110.253 181.53 110.249 181.481 110.23 181.42M110.184 181.928C110.25 181.904 110.32 181.938 110.344 182L110.812 181.824M109.267 181.708C109.273 181.717 109.278 181.726 109.281 181.736L109.281 181.736L109.285 181.744L109.286 181.747C109.285 181.746 109.285 181.745 109.285 181.744C109.284 181.741 109.282 181.738 109.281 181.736C109.273 181.712 109.267 181.691 109.264 181.676C109.263 181.668 109.262 181.661 109.261 181.656L109.26 181.649C109.26 181.649 109.26 181.649 109.26 181.65L109.261 181.654L109.263 181.673C109.263 181.682 109.265 181.694 109.267 181.708ZM108.512 181.356L108.16 181.484C108.151 181.459 108.148 181.44 108.147 181.436L108.147 181.436L108.512 181.356ZM108.512 181.356L108.279 181.206L108.23 181.175C108.266 181.12 108.308 181.063 108.357 181.009C108.387 180.976 108.42 180.944 108.455 180.913C108.501 180.783 108.507 180.64 108.454 180.5C108.332 180.178 107.973 180.015 107.65 180.136C107.61 180.152 107.573 180.171 107.54 180.194L107.394 180.333L107.145 180.134C106.845 179.955 106.469 179.91 106.117 180.042C106.01 180.083 105.915 180.138 105.83 180.204C105.844 180.218 105.857 180.232 105.871 180.246L105.507 180.589L105.069 180.348C105.083 180.322 105.099 180.295 105.115 180.269C104.62 179.963 103.994 179.881 103.407 180.102L108.512 181.356ZM110.812 181.824C110.718 181.575 110.482 181.421 110.23 181.42M110.812 181.824L110.344 182C110.345 182.004 110.347 182.01 110.347 182.02C110.347 182.031 110.345 182.048 110.338 182.073L110.234 182.431L110.548 182.633C110.571 182.648 110.585 182.661 110.592 182.669L110.23 181.42M110.812 181.824L110.23 181.42M100.658 186.848L100.662 186.839L100.717 186.818C100.73 186.852 100.714 186.89 100.68 186.904C100.679 186.904 100.679 186.904 100.678 186.904C100.678 186.904 100.678 186.904 100.678 186.905C100.67 186.907 100.663 186.909 100.657 186.91C100.651 186.911 100.645 186.911 100.641 186.911C100.635 186.911 100.631 186.91 100.63 186.91L100.656 186.853L100.657 186.85L100.658 186.848ZM100.717 186.817L100.663 186.838L100.688 186.782C100.701 186.79 100.711 186.803 100.717 186.817ZM110.602 182.684C110.607 182.698 110.609 182.711 110.606 182.726C110.604 182.743 110.597 182.765 110.58 182.79L110.283 183.246L110.762 183.504C110.983 183.622 111.158 183.81 111.25 184.053C111.399 184.449 111.292 184.881 111.003 185.169L110.509 185.659L111.131 185.971C111.168 185.989 111.186 186.012 111.194 186.035L111.662 185.857L110.602 182.684ZM105.319 186.385L105.598 185.963L105.936 186.098L105.936 186.098C105.937 186.095 105.959 186.044 105.97 185.979L105.625 185.921L105.859 185.567C105.846 185.554 105.834 185.544 105.826 185.537C105.818 185.53 105.811 185.524 105.808 185.521L105.807 185.52L105.134 184.915L104.992 185.767L104.816 186.206L105.301 186.382C105.331 186.393 105.356 186.399 105.372 186.403C105.381 186.405 105.388 186.406 105.392 186.407L105.401 186.409C105.403 186.409 105.401 186.409 105.399 186.408C105.396 186.408 105.391 186.407 105.384 186.405C105.378 186.404 105.369 186.401 105.358 186.398C105.347 186.395 105.334 186.39 105.319 186.385ZM105.008 185.727L105.006 185.732C105.008 185.726 105.009 185.724 105.008 185.727Z" fill="#83A152" stroke="black"/>
<path d="M3.56617 185.996L4.06586 185.979C4.06357 185.914 4.11431 185.861 4.1757 185.859C4.17939 185.859 4.19517 185.862 4.2294 185.881L4.72923 186.149L4.93287 185.62C5.02669 185.376 5.25881 185.2 5.53403 185.189C5.68576 185.184 5.83305 185.238 5.96772 185.345L6.50626 185.774L6.74747 185.13C6.94239 184.608 7.43367 184.231 8.02135 184.21L8.02163 184.21C8.75695 184.183 9.37912 184.727 9.46897 185.451L9.53822 186.009L10.0843 185.875C10.1124 185.868 10.1369 185.861 10.1526 185.856L10.1675 185.851C10.25 185.855 10.3336 185.897 10.4033 185.986L10.5815 186.214L10.8679 186.173C10.8816 186.171 10.8943 186.169 10.9057 186.167C10.9387 186.177 10.9634 186.206 10.9654 186.243C10.9654 186.244 10.9654 186.244 10.9653 186.244C10.9645 186.249 10.9625 186.257 10.9576 186.272L10.6854 187.076L11.4938 186.929L10.9714 187.898L12.0602 187.635C12.0898 187.628 12.1154 187.621 12.132 187.615L12.1492 187.61C12.3274 187.616 12.4748 187.761 12.4815 187.943L12.4815 187.944C12.4841 188.012 12.4601 188.088 12.3987 188.165L13.0073 188.731L12.0752 189.092L12.9819 189.614C13.0561 189.656 13.0837 189.713 13.0855 189.763L13.0855 189.763C13.0891 189.86 13.0185 189.944 12.9234 189.959C12.9187 189.958 12.914 189.958 12.9092 189.958H12.4267L12.4095 190.44C12.4069 190.513 12.3688 190.569 12.313 190.599L12.0386 190.745L12.0484 191.056C12.0518 191.162 11.969 191.25 11.8648 191.254L11.3651 191.272L11.3835 191.772C11.3874 191.876 11.3053 191.965 11.1993 191.97C11.1208 191.972 11.0396 191.919 11.0171 191.814L10.8473 191.021L10.2153 191.528C10.1936 191.546 10.1774 191.555 10.1671 191.559C10.1579 191.563 10.1528 191.564 10.1493 191.564L10.1493 191.564L10.1465 191.564C10.1421 191.563 10.1255 191.559 10.0905 191.541L9.59952 191.288L9.45617 191.65L8.93994 191.184L8.75403 192.022C8.74715 192.053 8.73141 192.077 8.7141 192.092C8.69843 192.106 8.68059 192.114 8.65769 192.115C8.63953 192.115 8.62412 192.111 8.60918 192.102C8.59288 192.093 8.57515 192.077 8.56089 192.053L8.20939 191.473L7.75907 191.981C7.56258 192.202 7.28465 192.344 6.97062 192.356C6.67591 192.367 6.40254 192.259 6.1938 192.074L5.7432 191.675L5.43342 192.191C5.31138 192.394 5.12123 192.516 4.90875 192.524L4.90835 192.524C4.63906 192.534 4.39993 192.38 4.28874 192.146L3.87152 191.268L3.39998 192.118C3.38634 192.142 3.36949 192.159 3.35458 192.169C3.34106 192.178 3.32779 192.182 3.31224 192.183L3.31101 192.183C3.24887 192.185 3.19508 192.135 3.19286 192.073L3.19282 192.072C3.19202 192.05 3.19918 192.023 3.22356 191.995L3.675 191.469L3.03355 191.207C2.66626 191.056 2.4052 190.706 2.38982 190.292L1.89017 190.31M3.56617 185.996L4.06584 185.978C4.0663 185.991 4.06937 186.002 4.07605 186.013C4.08342 186.026 4.09684 186.043 4.11884 186.059L4.48805 186.334L4.2444 186.725C4.23231 186.744 4.22546 186.758 4.22161 186.768C4.22494 186.779 4.2288 186.793 4.23257 186.807L4.56214 188.096L3.4654 187.344C3.44265 187.328 3.42668 187.321 3.41731 187.318C3.40914 187.315 3.40545 187.315 3.4034 187.315L3.40285 187.315C3.35044 187.317 3.3072 187.355 3.29571 187.403C3.29972 187.42 3.3039 187.44 3.30714 187.463L3.44136 188.402L2.59058 187.982C2.55818 187.966 2.54314 187.962 2.53932 187.962L2.53886 187.962C2.47741 187.964 2.42657 188.017 2.42885 188.082L1.92917 188.099M3.56617 185.996C3.5713 186.139 3.6275 186.264 3.71428 186.363M3.56617 185.996C3.55417 185.657 3.81917 185.371 4.15817 185.359C4.20258 185.358 4.2453 185.362 4.28644 185.371L4.46617 185.44L4.60547 185.181C4.80909 184.895 5.13847 184.703 5.51617 184.689L3.71428 186.363M1.92917 188.099L2.42884 188.081C2.4289 188.083 2.42915 188.087 2.43272 188.095C2.43676 188.105 2.44533 188.12 2.4626 188.142L2.69414 188.431L2.48453 188.737C2.46936 188.759 2.46208 188.775 2.45875 188.785C2.45579 188.794 2.45576 188.798 2.45584 188.8L2.45588 188.801C2.45629 188.813 2.45934 188.824 2.46646 188.836C2.47445 188.849 2.48917 188.866 2.51295 188.882L2.96467 189.187L2.62195 189.611C2.46779 189.801 2.38057 190.038 2.38983 190.292L1.89017 190.31M1.92917 188.099C1.93417 188.236 1.99217 188.354 2.07217 188.454M1.92917 188.099L2.07217 188.454M1.89017 190.31C1.87975 190.025 1.95072 189.756 2.08001 189.523L2.46478 191.344C2.44774 191.363 2.43127 191.384 2.41545 191.405C2.10753 191.138 1.90646 190.75 1.89017 190.31ZM2.81217 187.533C2.72889 187.492 2.63949 187.462 2.54149 187.462L2.52118 187.463L2.496 187.464C2.42541 187.469 2.35833 187.486 2.29664 187.513C2.30356 187.577 2.31874 187.625 2.32395 187.641C2.32417 187.642 2.32437 187.643 2.32455 187.643C2.32835 187.655 2.32796 187.654 2.32731 187.652C2.32712 187.651 2.3269 187.65 2.32677 187.65C2.32505 187.644 2.32049 187.627 2.31719 187.604L2.52513 187.574L2.52539 187.574L2.81217 187.533ZM2.81217 187.533C2.81042 187.521 2.80678 187.51 2.80314 187.498C2.79843 187.483 2.79373 187.469 2.79317 187.452C2.78719 187.296 2.8402 187.152 2.93216 187.04C2.96866 187.054 3.00258 187.07 3.03376 187.085L2.85335 187.45L2.85323 187.45L2.81217 187.533ZM3.21875 186.844C3.22396 186.917 3.23957 186.975 3.24952 187.009C3.25351 187.023 3.25841 187.038 3.26077 187.046C3.26123 187.047 3.2616 187.048 3.26184 187.049C3.26357 187.055 3.26414 187.057 3.26414 187.057C3.26415 187.057 3.26399 187.056 3.26377 187.055L3.39249 187.022L3.39272 187.022L3.74817 186.931M3.21875 186.844L3.83921 186.799L3.74817 186.931M3.21875 186.844C3.25297 186.833 3.28852 186.825 3.32513 186.82C3.33273 186.819 3.34038 186.818 3.34808 186.818C3.36033 186.817 3.3727 186.816 3.38517 186.815C3.39549 186.815 3.40572 186.815 3.41586 186.815C3.42135 186.815 3.42681 186.815 3.43224 186.816C3.44421 186.816 3.45605 186.817 3.46776 186.819C3.48536 186.834 3.50329 186.848 3.5215 186.861L3.54231 186.833C3.61667 186.853 3.68529 186.888 3.74817 186.931M3.21875 186.844L3.74817 186.931M3.71428 186.363C3.74585 186.399 3.78148 186.431 3.82017 186.46L3.71428 186.363ZM9.96517 185.389L10.1248 185.37L10.1249 185.369L10.2395 185.355C10.2019 185.351 10.1634 185.35 10.1242 185.351C10.0856 185.353 10.0507 185.364 10.0158 185.375C9.99906 185.38 9.98232 185.385 9.96517 185.389ZM9.96517 185.389C9.94621 185.237 9.90961 185.09 9.85752 184.95L9.96517 185.389ZM2.07217 188.454C2.00017 188.559 1.95117 188.681 1.95617 188.818L2.07217 188.454ZM8.59794 190.21L8.60505 190.206C8.60688 190.205 8.60915 190.203 8.61175 190.201C8.61429 190.2 8.61714 190.198 8.62021 190.196C8.63214 190.188 8.65155 190.174 8.67342 190.155L9.07563 189.803L8.70647 189.434C8.70175 189.428 8.69503 189.421 8.68672 189.413L8.13158 188.858L7.86327 189.595C7.87192 189.572 7.88075 189.554 7.8853 189.546C7.88647 189.544 7.88759 189.542 7.88846 189.54L8.02505 189.654L8.25392 189.846L7.97961 190.12C7.97322 190.113 7.96833 190.108 7.96541 190.105C7.96474 190.104 7.96412 190.104 7.96358 190.103L7.97072 190.111C7.97545 190.116 7.98223 190.123 7.99062 190.132L8.26646 189.856L8.64642 190.174C8.62855 190.189 8.61352 190.2 8.60615 190.205L8.59794 190.21ZM8.59794 190.21L8.59762 190.211C8.5961 190.212 8.59686 190.211 8.59794 190.21ZM4.20907 186.728C4.20878 186.727 4.20885 186.727 4.20915 186.728L4.20907 186.728ZM13.0182 188.741L13.0674 188.787L13.0045 188.789C13.0039 188.773 13.0089 188.755 13.0182 188.741ZM13.0045 188.789L13.0677 188.787L13.0777 188.796L13.0778 188.796L13.0847 188.803L13.129 188.844C13.1298 188.843 13.1264 188.847 13.1176 188.85C13.1139 188.852 13.1097 188.854 13.105 188.855C13.0977 188.857 13.0893 188.859 13.0802 188.859C13.0802 188.859 13.0802 188.859 13.0802 188.859C13.0802 188.859 13.0801 188.859 13.0801 188.859C13.0801 188.859 13.0801 188.859 13.08 188.859C13.0393 188.86 13.006 188.828 13.0045 188.789ZM2.53885 187.962C2.53896 187.962 2.53908 187.962 2.53922 187.962C2.53908 187.962 2.53896 187.962 2.53885 187.962C2.53851 187.962 2.53833 187.962 2.53832 187.962C2.53831 187.962 2.53849 187.962 2.53885 187.962ZM3.29287 187.435L3.2928 187.433L3.29287 187.435ZM12.1692 187.604C12.1692 187.604 12.1686 187.604 12.1676 187.604L12.1692 187.604ZM10.1478 191.564C10.1478 191.564 10.1475 191.564 10.147 191.564L10.1478 191.564Z" fill="#6D8929" stroke="black"/>
<path d="M7.02788 178.824C6.99821 178.817 6.96737 178.814 6.93508 178.816C6.68108 178.825 6.48308 179.038 6.49308 179.292L7.02788 178.824ZM7.02788 178.824L7.16508 178.877L7.27355 178.677C7.42587 178.466 7.66948 178.326 7.94908 178.316C7.9861 178.314 8.02247 178.315 8.05813 178.319C8.05561 178.325 8.05312 178.332 8.05066 178.339L8.51908 178.514L8.8293 178.121C8.81173 178.107 8.79372 178.094 8.77528 178.081C9.02572 177.79 9.39191 177.6 9.80608 177.585C10.431 177.561 10.9727 177.944 11.1857 178.497L11.2711 178.839L11.3906 178.824L7.02788 178.824ZM11.3907 178.824L11.4133 179.309C11.4444 179.308 11.4668 179.302 11.4713 179.3L11.4717 179.3L11.3907 178.824ZM11.3907 178.824L11.4774 178.813C11.6462 178.833 11.7911 178.925 11.8921 179.054C11.8994 179.054 11.9061 179.051 11.9128 179.049C11.9208 179.047 11.9288 179.044 11.9381 179.044M11.3907 178.824L11.9544 179.48L11.9381 179.044M11.9381 179.044L11.9637 179.479L12.3376 179.465L12.2872 179.197C12.2034 179.099 12.0771 179.038 11.9381 179.044ZM12.2985 179.985C12.2985 179.986 12.2986 179.986 12.2986 179.987C12.3035 180.058 12.3635 180.108 12.4291 180.106L12.4248 179.982L12.4247 179.978L12.4247 179.978L12.4227 179.92L12.413 179.633L12.3661 179.618L12.3376 179.466L12.2984 179.984M12.2985 179.985C12.2984 179.985 12.2985 179.985 12.2984 179.984M12.2985 179.985L12.2986 179.987C12.2985 179.986 12.2985 179.985 12.2984 179.984M12.2985 179.985L12.2983 179.982L12.2984 179.982C12.2984 179.983 12.2984 179.984 12.2984 179.984M11.9898 184.088C12.0556 184.117 12.1288 184.132 12.2061 184.129L11.9898 184.088ZM11.9898 184.088L11.6921 183.718L11.4202 183.775L11.9898 184.088ZM7.03911 184.426C7.17574 184.505 7.33591 184.549 7.50608 184.543L7.03911 184.426ZM7.03911 184.426C7.07346 184.382 7.10382 184.336 7.12992 184.289L6.69208 184.048L7.03911 184.426ZM10.4518 181.809L9.99019 181.116L9.60764 181.881L9.6072 181.882C9.6055 181.885 9.60181 181.892 9.59763 181.9C9.59347 181.908 9.58719 181.921 9.5805 181.937L9.92636 182.194L9.63605 182.388C9.64678 182.404 9.65687 182.417 9.66487 182.427C9.67292 182.437 9.68006 182.445 9.68533 182.451C9.69061 182.456 9.69504 182.461 9.69772 182.464L9.69996 182.466C9.69801 182.464 9.6943 182.46 9.68971 182.455C9.68513 182.45 9.67864 182.443 9.6712 182.434C9.66381 182.425 9.65429 182.412 9.64406 182.397L9.93651 182.202L10.3602 182.518C10.3455 182.53 10.3335 182.538 10.3276 182.542L10.321 182.547M10.4518 181.809L10.3206 182.547C10.3195 182.548 10.3201 182.547 10.321 182.547M10.4518 181.809C10.4589 181.818 10.4673 181.829 10.4761 181.842L10.7253 182.216L10.3802 182.504C10.3625 182.518 10.3472 182.529 10.338 182.535L10.3263 182.543L10.321 182.547M10.4518 181.809L10.321 182.547M6.72513 182.952L6.56454 183.243L6.14053 183.07C5.91138 182.976 5.74877 182.758 5.73979 182.495L5.73971 182.493C5.73376 182.338 5.78701 182.191 5.88522 182.069L6.2284 181.644L5.81671 181.368L6.00059 181.103L5.90373 180.983L6.56528 181.309L6.43853 180.464L7.44344 181.147L7.11754 179.884L7.33478 179.538L7.42713 179.588L7.63172 179.056C7.68492 178.918 7.81482 178.821 7.96707 178.815L7.9675 178.815C8.04294 178.812 8.12461 178.839 8.20886 178.906L8.74735 179.332L8.9875 178.688C9.11535 178.346 9.43835 178.098 9.82455 178.084L9.82481 178.084C10.3061 178.066 10.7159 178.422 10.7748 178.9L10.8441 179.461L11.3923 179.324C11.4076 179.32 11.4215 179.316 11.4328 179.312C11.4376 179.314 11.4424 179.316 11.4473 179.318C11.4621 179.326 11.4805 179.34 11.4981 179.362L11.6727 179.586L11.858 179.563L11.6289 180.264L12.1742 180.162L11.7649 180.915L12.8693 180.639C12.8868 180.634 12.9025 180.63 12.9144 180.626C12.9739 180.637 13.021 180.688 13.0234 180.752L13.0234 180.753C13.0238 180.763 13.0224 180.773 13.0181 180.785C13.0134 180.797 13.0046 180.815 12.9886 180.835L13.4303 181.243L12.5585 181.583L13.4601 182.104C13.4675 182.108 13.4719 182.112 13.4743 182.114C13.4741 182.115 13.4739 182.116 13.4737 182.116C13.4731 182.118 13.472 182.12 13.4703 182.122C13.4691 182.123 13.4679 182.124 13.4668 182.125C13.4663 182.125 13.4659 182.125 13.4654 182.126H12.9884L12.9704 182.607C12.9702 182.613 12.9688 182.615 12.9681 182.616C12.9672 182.618 12.9663 182.619 12.9654 182.619L12.6905 182.765L12.7003 183.076C12.7004 183.08 12.6999 183.082 12.6994 183.083C12.6986 183.085 12.6974 183.087 12.6956 183.089C12.6937 183.091 12.6919 183.092 12.6906 183.093C12.6896 183.093 12.6882 183.094 12.6855 183.094L12.1841 183.111L12.2035 183.613C12.2036 183.616 12.2031 183.617 12.2027 183.618C12.2021 183.62 12.201 183.622 12.1993 183.624C12.1985 183.625 12.1977 183.625 12.1969 183.626C12.196 183.627 12.195 183.627 12.1942 183.628C12.193 183.628 12.1915 183.629 12.1885 183.629L12.1885 183.629L12.1882 183.629C12.1862 183.627 12.1829 183.622 12.1812 183.614L12.013 182.819L11.3995 183.311L10.9358 183.069L10.8407 183.305L10.4292 182.939L10.2679 183.652L9.97689 183.174L9.52764 183.679C9.40227 183.82 9.2261 183.909 9.02746 183.917C8.84212 183.924 8.66945 183.857 8.53522 183.738L8.08358 183.339L7.77471 183.856C7.70268 183.977 7.59696 184.039 7.488 184.043L7.48788 184.043C7.33858 184.048 7.2056 183.963 7.14368 183.833L6.72513 182.952ZM12.4137 179.633L12.6361 179.706L12.7019 179.969L12.7021 179.97L12.7481 180.154L12.8717 180.221L12.4137 179.633ZM13.4144 181.382C13.4129 181.335 13.4283 181.294 13.4522 181.263L13.5744 181.376L13.575 181.377L13.5959 181.396L13.5965 181.397L13.6069 181.406L13.7208 181.511C13.7092 181.522 13.6891 181.536 13.6615 181.546C13.6447 181.552 13.6251 181.556 13.6028 181.557C13.6028 181.557 13.6028 181.557 13.6028 181.557C13.6028 181.557 13.6027 181.557 13.6027 181.557C13.6025 181.557 13.6023 181.557 13.6021 181.557C13.5026 181.561 13.4183 181.483 13.4144 181.382C13.4144 181.382 13.4144 181.382 13.4144 181.382C13.4144 181.382 13.4144 181.382 13.4144 181.382C13.4144 181.382 13.4144 181.382 13.4144 181.382ZM13.5831 182.138C13.5834 182.138 13.5824 182.138 13.5816 182.138L13.5825 182.138L13.5831 182.138ZM12.0678 179.525C12.0679 179.525 12.0678 179.525 12.0677 179.525L12.0678 179.525ZM10.4983 182.334L10.4459 182.307L10.4997 182.33C10.4992 182.332 10.4987 182.333 10.4983 182.334ZM10.4842 182.363L10.4843 182.362L10.4842 182.363Z" fill="#9CC142" stroke="black"/>
<mask id="path-71-inside-1_34_149" fill="white">
<path d="M8.02419 194.367C7.92519 194.482 7.86419 194.63 7.87119 194.794C7.88419 195.138 8.17319 195.407 8.51719 195.395C8.74419 195.387 8.92819 195.253 9.03119 195.068C9.22619 195.48 9.65219 195.758 10.1362 195.741C10.5492 195.726 10.8872 195.487 11.0842 195.157C11.3882 195.426 11.7902 195.586 12.2272 195.57C12.6922 195.553 13.1022 195.342 13.3882 195.019C13.5012 195.206 13.7032 195.334 13.9372 195.325C14.2272 195.314 14.4522 195.104 14.5122 194.834C14.5862 194.9 14.6832 194.939 14.7892 194.935C14.9502 194.929 15.0842 194.827 15.1402 194.687C15.2342 194.736 15.3372 194.771 15.4512 194.766C15.5932 194.761 15.7152 194.701 15.8172 194.619C15.8872 194.946 16.1702 195.19 16.5162 195.178C16.9032 195.164 17.2052 194.838 17.1912 194.451C17.5772 194.437 17.8782 194.113 17.8662 193.728C18.0812 193.613 18.2232 193.393 18.2332 193.138C18.2372 193.138 18.2392 193.14 18.2432 193.14C18.6302 193.126 18.9322 192.8 18.9182 192.413C18.9092 192.162 18.7622 191.957 18.5592 191.841C18.7262 191.776 18.8432 191.615 18.8362 191.426C18.8272 191.187 18.6262 191 18.3872 191.009C18.2802 191.013 18.1862 191.06 18.1132 191.127C18.2352 190.973 18.3142 190.781 18.3062 190.569C18.2892 190.095 17.8902 189.724 17.4162 189.742C17.3582 189.744 17.3082 189.768 17.2532 189.781C17.2952 189.704 17.3242 189.62 17.3212 189.526C17.3112 189.247 17.0762 189.029 16.7972 189.039C16.7752 189.04 16.7562 189.05 16.7352 189.054C16.7572 188.988 16.7722 188.919 16.7692 188.845C16.7572 188.518 16.4822 188.262 16.1542 188.274C16.1312 188.275 16.1132 188.286 16.0912 188.289C15.9302 188.084 15.6892 187.947 15.4092 187.957C15.3512 187.959 15.3012 187.983 15.2472 187.996C15.1242 187.007 14.2722 186.256 13.2572 186.293C12.4492 186.323 11.7752 186.842 11.5092 187.555C11.2952 187.385 11.0302 187.276 10.7352 187.287C10.2452 187.305 9.83519 187.618 9.67019 188.049C9.57619 187.998 9.47319 187.962 9.35819 187.967C9.01419 187.98 8.74519 188.269 8.75719 188.613C8.76419 188.81 8.86719 188.975 9.01419 189.084C8.95019 189.186 8.90519 189.302 8.91019 189.432C8.91219 189.478 8.93019 189.519 8.94119 189.562C8.83519 189.489 8.71119 189.44 8.57319 189.445C8.22919 189.458 7.96019 189.747 7.97219 190.091C7.97319 190.12 7.98719 190.145 7.99219 190.173C7.90219 190.128 7.80419 190.097 7.69619 190.101C7.35219 190.114 7.08319 190.403 7.09519 190.747C7.10019 190.886 7.15919 191.006 7.24019 191.107C7.16719 191.214 7.11719 191.337 7.12219 191.477C7.13019 191.684 7.24319 191.855 7.40319 191.962C7.17619 192.243 7.04119 192.601 7.05519 192.99C7.08019 193.618 7.47719 194.143 8.02419 194.367ZM13.5932 192.437C13.5962 192.441 13.6012 192.445 13.6042 192.449C13.5962 192.456 13.5852 192.461 13.5772 192.469C13.5822 192.458 13.5882 192.448 13.5932 192.437Z"/>
</mask>
<path d="M8.02419 194.367C7.92519 194.482 7.86419 194.63 7.87119 194.794C7.88419 195.138 8.17319 195.407 8.51719 195.395C8.74419 195.387 8.92819 195.253 9.03119 195.068C9.22619 195.48 9.65219 195.758 10.1362 195.741C10.5492 195.726 10.8872 195.487 11.0842 195.157C11.3882 195.426 11.7902 195.586 12.2272 195.57C12.6922 195.553 13.1022 195.342 13.3882 195.019C13.5012 195.206 13.7032 195.334 13.9372 195.325C14.2272 195.314 14.4522 195.104 14.5122 194.834C14.5862 194.9 14.6832 194.939 14.7892 194.935C14.9502 194.929 15.0842 194.827 15.1402 194.687C15.2342 194.736 15.3372 194.771 15.4512 194.766C15.5932 194.761 15.7152 194.701 15.8172 194.619C15.8872 194.946 16.1702 195.19 16.5162 195.178C16.9032 195.164 17.2052 194.838 17.1912 194.451C17.5772 194.437 17.8782 194.113 17.8662 193.728C18.0812 193.613 18.2232 193.393 18.2332 193.138C18.2372 193.138 18.2392 193.14 18.2432 193.14C18.6302 193.126 18.9322 192.8 18.9182 192.413C18.9092 192.162 18.7622 191.957 18.5592 191.841C18.7262 191.776 18.8432 191.615 18.8362 191.426C18.8272 191.187 18.6262 191 18.3872 191.009C18.2802 191.013 18.1862 191.06 18.1132 191.127C18.2352 190.973 18.3142 190.781 18.3062 190.569C18.2892 190.095 17.8902 189.724 17.4162 189.742C17.3582 189.744 17.3082 189.768 17.2532 189.781C17.2952 189.704 17.3242 189.62 17.3212 189.526C17.3112 189.247 17.0762 189.029 16.7972 189.039C16.7752 189.04 16.7562 189.05 16.7352 189.054C16.7572 188.988 16.7722 188.919 16.7692 188.845C16.7572 188.518 16.4822 188.262 16.1542 188.274C16.1312 188.275 16.1132 188.286 16.0912 188.289C15.9302 188.084 15.6892 187.947 15.4092 187.957C15.3512 187.959 15.3012 187.983 15.2472 187.996C15.1242 187.007 14.2722 186.256 13.2572 186.293C12.4492 186.323 11.7752 186.842 11.5092 187.555C11.2952 187.385 11.0302 187.276 10.7352 187.287C10.2452 187.305 9.83519 187.618 9.67019 188.049C9.57619 187.998 9.47319 187.962 9.35819 187.967C9.01419 187.98 8.74519 188.269 8.75719 188.613C8.76419 188.81 8.86719 188.975 9.01419 189.084C8.95019 189.186 8.90519 189.302 8.91019 189.432C8.91219 189.478 8.93019 189.519 8.94119 189.562C8.83519 189.489 8.71119 189.44 8.57319 189.445C8.22919 189.458 7.96019 189.747 7.97219 190.091C7.97319 190.12 7.98719 190.145 7.99219 190.173C7.90219 190.128 7.80419 190.097 7.69619 190.101C7.35219 190.114 7.08319 190.403 7.09519 190.747C7.10019 190.886 7.15919 191.006 7.24019 191.107C7.16719 191.214 7.11719 191.337 7.12219 191.477C7.13019 191.684 7.24319 191.855 7.40319 191.962C7.17619 192.243 7.04119 192.601 7.05519 192.99C7.08019 193.618 7.47719 194.143 8.02419 194.367ZM13.5932 192.437C13.5962 192.441 13.6012 192.445 13.6042 192.449C13.5962 192.456 13.5852 192.461 13.5772 192.469C13.5822 192.458 13.5882 192.448 13.5932 192.437Z" fill="#739335"/>
<path d="M8.02419 194.367L8.78205 195.02L9.68756 193.968L8.40315 193.442L8.02419 194.367ZM7.87119 194.794L8.87049 194.757L8.87028 194.752L7.87119 194.794ZM8.51719 195.395L8.55205 196.395L8.55241 196.395L8.51719 195.395ZM9.03119 195.068L9.93506 194.64L9.10328 192.883L8.15748 194.582L9.03119 195.068ZM10.1362 195.741L10.1713 196.741L10.1725 196.741L10.1362 195.741ZM11.0842 195.157L11.7469 194.408L10.8437 193.609L10.2256 194.645L11.0842 195.157ZM12.2272 195.57L12.1907 194.571L12.1906 194.571L12.2272 195.57ZM13.3882 195.019L14.2441 194.502L13.5409 193.338L12.6395 194.356L13.3882 195.019ZM13.9372 195.325L13.8993 194.326L13.8988 194.326L13.9372 195.325ZM14.5122 194.834L15.1778 194.088L13.9058 192.953L13.536 194.617L14.5122 194.834ZM14.7892 194.935L14.752 193.936L14.7515 193.936L14.7892 194.935ZM15.1402 194.687L15.6024 193.801L14.6222 193.29L14.2117 194.316L15.1402 194.687ZM15.4512 194.766L15.416 193.767L15.4074 193.767L15.4512 194.766ZM15.8172 194.619L16.795 194.41L16.4554 192.823L15.1906 193.84L15.8172 194.619ZM16.5162 195.178L16.5509 196.178L16.5523 196.178L16.5162 195.178ZM17.1912 194.451L17.1549 193.452L16.1557 193.488L16.1918 194.487L17.1912 194.451ZM17.8662 193.728L17.3945 192.847L16.8473 193.139L16.8667 193.759L17.8662 193.728ZM18.2332 193.138V192.138H17.2716L17.234 193.099L18.2332 193.138ZM18.2432 193.14V194.14H18.2613L18.2793 194.14L18.2432 193.14ZM18.9182 192.413L17.9188 192.449L17.9188 192.449L18.9182 192.413ZM18.5592 191.841L18.1965 190.909L16.2432 191.67L18.0631 192.71L18.5592 191.841ZM18.8362 191.426L19.8355 191.389L19.8355 191.389L18.8362 191.426ZM18.3872 191.009L18.4246 192.009L18.4248 192.009L18.3872 191.009ZM18.1132 191.127L17.3294 190.506L18.7894 191.864L18.1132 191.127ZM18.3062 190.569L17.3068 190.605L17.3069 190.607L18.3062 190.569ZM17.4162 189.742L17.4507 190.742L17.4541 190.742L17.4162 189.742ZM17.2532 189.781L16.3753 189.302L15.3021 191.27L17.4832 190.754L17.2532 189.781ZM17.3212 189.526L18.3207 189.494L18.3205 189.49L17.3212 189.526ZM16.7972 189.039L16.7614 188.04L16.7518 188.04L16.7972 189.039ZM16.7352 189.054L15.7865 188.738L15.2473 190.356L16.9223 190.037L16.7352 189.054ZM16.7692 188.845L15.7699 188.882L15.77 188.886L16.7692 188.845ZM16.1542 188.274L16.1176 187.275L16.1108 187.275L16.1542 188.274ZM16.0912 188.289L15.3047 188.907L15.6586 189.358L16.2263 189.28L16.0912 188.289ZM15.4092 187.957L15.4437 188.957L15.4449 188.957L15.4092 187.957ZM15.2472 187.996L14.2548 188.12L14.393 189.231L15.4812 188.969L15.2472 187.996ZM13.2572 186.293L13.2208 185.294L13.2201 185.294L13.2572 186.293ZM11.5092 187.555L10.8872 188.338L11.965 189.194L12.4461 187.905L11.5092 187.555ZM10.7352 187.287L10.7719 188.287L10.7725 188.287L10.7352 187.287ZM9.67019 188.049L9.1933 188.928L10.1962 189.472L10.6041 188.407L9.67019 188.049ZM9.35819 187.967L9.39596 188.967L9.40163 188.966L9.35819 187.967ZM8.75719 188.613L7.7578 188.648L7.75782 188.649L8.75719 188.613ZM9.01419 189.084L9.86126 189.616L10.353 188.832L9.60981 188.281L9.01419 189.084ZM8.91019 189.432L7.91092 189.471L7.91114 189.476L8.91019 189.432ZM8.94119 189.562L8.37401 190.386L10.5712 191.899L9.91 189.314L8.94119 189.562ZM8.57319 189.445L8.53699 188.446L8.53543 188.446L8.57319 189.445ZM7.97219 190.091L8.9716 190.057L8.97158 190.056L7.97219 190.091ZM7.99219 190.173L7.54498 191.068L9.32682 191.959L8.97662 189.998L7.99219 190.173ZM7.69619 190.101L7.65918 189.102L7.65843 189.102L7.69619 190.101ZM7.09519 190.747L6.0958 190.782L6.09584 190.783L7.09519 190.747ZM7.24019 191.107L8.06626 191.671L8.48353 191.059L8.02031 190.482L7.24019 191.107ZM7.12219 191.477L6.12283 191.513L6.12294 191.516L7.12219 191.477ZM7.40319 191.962L8.18108 192.591L8.86878 191.739L7.95909 191.131L7.40319 191.962ZM7.05519 192.99L6.05583 193.026L6.05598 193.03L7.05519 192.99ZM13.5932 192.437L14.3932 191.837L13.3809 190.488L12.6828 192.023L13.5932 192.437ZM13.6042 192.449L14.2627 193.202L14.9606 192.591L14.4042 191.849L13.6042 192.449ZM13.5772 192.469L12.6668 192.055L14.2843 193.176L13.5772 192.469ZM7.26633 193.715C7.02289 193.998 6.85294 194.388 6.8721 194.837L8.87028 194.752C8.87544 194.873 8.82748 194.967 8.78205 195.02L7.26633 193.715ZM6.8719 194.832C6.90569 195.726 7.65663 196.426 8.55205 196.395L8.48233 194.396C8.68975 194.389 8.86269 194.55 8.87048 194.757L6.8719 194.832ZM8.55241 196.395C9.18087 196.373 9.65814 195.998 9.9049 195.555L8.15748 194.582C8.19824 194.509 8.30751 194.402 8.48197 194.396L8.55241 196.395ZM8.12732 195.496C8.48693 196.256 9.27397 196.772 10.1713 196.741L10.1011 194.742C10.0304 194.744 9.96545 194.705 9.93506 194.64L8.12732 195.496ZM10.1725 196.741C10.9755 196.711 11.6 196.244 11.9428 195.67L10.2256 194.645C10.2007 194.686 10.173 194.712 10.1522 194.725C10.1342 194.737 10.1189 194.741 10.0999 194.742L10.1725 196.741ZM10.4215 195.906C10.9055 196.335 11.5543 196.596 12.2638 196.57L12.1906 194.571C12.0261 194.577 11.8708 194.518 11.7469 194.408L10.4215 195.906ZM12.2637 196.57C13.0169 196.542 13.6795 196.199 14.1369 195.682L12.6395 194.356C12.5249 194.486 12.3675 194.564 12.1907 194.571L12.2637 196.57ZM12.5323 195.536C12.8092 195.995 13.3334 196.349 13.9756 196.325L13.8988 194.326C14.073 194.319 14.1932 194.418 14.2441 194.502L12.5323 195.536ZM13.9751 196.325C14.7599 196.295 15.3389 195.724 15.4884 195.051L13.536 194.617C13.5655 194.485 13.6945 194.334 13.8993 194.326L13.9751 196.325ZM13.8466 195.581C14.0995 195.806 14.4444 195.949 14.8269 195.935L14.7515 193.936C14.922 193.93 15.0729 193.994 15.1778 194.088L13.8466 195.581ZM14.8264 195.935C15.4004 195.913 15.8726 195.549 16.0687 195.059L14.2117 194.316C14.2958 194.106 14.5 193.945 14.752 193.936L14.8264 195.935ZM14.6779 195.574C14.8605 195.669 15.1425 195.781 15.495 195.765L15.4074 193.767C15.5319 193.762 15.6079 193.803 15.6024 193.801L14.6779 195.574ZM15.4864 195.766C15.903 195.751 16.2262 195.574 16.4438 195.399L15.1906 193.84C15.2042 193.829 15.2834 193.772 15.416 193.767L15.4864 195.766ZM14.8393 194.829C15.0024 195.59 15.6813 196.208 16.5509 196.178L16.4815 194.179C16.6591 194.173 16.772 194.302 16.795 194.41L14.8393 194.829ZM16.5523 196.178C17.4936 196.144 18.2244 195.352 18.1905 194.415L16.1918 194.487C16.186 194.325 16.3127 194.185 16.48 194.179L16.5523 196.178ZM17.2274 195.451C18.166 195.417 18.8948 194.63 18.8657 193.697L16.8667 193.759C16.8616 193.597 16.9884 193.458 17.1549 193.452L17.2274 195.451ZM18.3378 194.61C18.8635 194.329 19.2084 193.79 19.2324 193.177L17.234 193.099C17.238 192.997 17.2989 192.898 17.3945 192.847L18.3378 194.61ZM18.2332 194.138C18.1916 194.138 18.1513 194.136 18.1127 194.131C18.0743 194.126 18.0401 194.12 18.011 194.113C17.9823 194.106 17.9592 194.1 17.9443 194.095C17.9368 194.093 17.9308 194.091 17.9272 194.09C17.924 194.089 17.9212 194.088 17.9219 194.088C17.9219 194.088 17.9221 194.088 17.9224 194.088C17.9227 194.088 17.9231 194.088 17.9236 194.089C17.9247 194.089 17.9263 194.089 17.9283 194.09C17.9323 194.091 17.9387 194.093 17.9465 194.096C17.9623 194.101 17.9862 194.108 18.0156 194.114C18.0456 194.121 18.0806 194.128 18.1199 194.133C18.1594 194.138 18.2006 194.14 18.2432 194.14V192.14C18.2848 192.14 18.3251 192.143 18.3636 192.148C18.4021 192.152 18.4362 192.159 18.4654 192.166C18.494 192.172 18.5171 192.179 18.5321 192.183C18.5396 192.186 18.5455 192.188 18.5492 192.189C18.5524 192.19 18.5552 192.191 18.5545 192.191C18.5545 192.191 18.5543 192.191 18.554 192.19C18.5537 192.19 18.5533 192.19 18.5528 192.19C18.5517 192.19 18.5501 192.189 18.548 192.189C18.544 192.187 18.5377 192.185 18.5299 192.183C18.5141 192.178 18.4902 192.171 18.4608 192.164C18.4308 192.157 18.3958 192.151 18.3565 192.146C18.317 192.141 18.2758 192.138 18.2332 192.138V194.138ZM18.2793 194.14C19.2206 194.106 19.9514 193.314 19.9175 192.377L17.9188 192.449C17.913 192.287 18.0397 192.147 18.207 192.141L18.2793 194.14ZM19.9175 192.377C19.8944 191.731 19.5131 191.235 19.0553 190.973L18.0631 192.71C18.0113 192.68 17.924 192.594 17.9188 192.449L19.9175 192.377ZM18.9219 192.773C19.457 192.565 19.8594 192.034 19.8355 191.389L17.8369 191.463C17.827 191.197 17.9954 190.988 18.1965 190.909L18.9219 192.773ZM19.8355 191.389C19.8058 190.6 19.1423 189.98 18.3496 190.01L18.4248 192.009C18.1101 192.02 17.8486 191.775 17.8369 191.464L19.8355 191.389ZM18.3498 190.01C17.9626 190.024 17.6505 190.195 17.437 190.391L18.7894 191.864C18.7218 191.926 18.5978 192.002 18.4246 192.009L18.3498 190.01ZM18.897 191.748C19.1378 191.444 19.3241 191.025 19.3055 190.532L17.3069 190.607C17.3057 190.575 17.3115 190.548 17.3184 190.529C17.3247 190.512 17.3306 190.505 17.3294 190.506L18.897 191.748ZM19.3055 190.533C19.2687 189.507 18.4056 188.704 17.3782 188.743L17.4541 190.742C17.3748 190.745 17.3096 190.683 17.3068 190.605L19.3055 190.533ZM17.3817 188.743C17.2268 188.748 17.1047 188.783 17.0499 188.799C17.0356 188.803 17.0229 188.807 17.015 188.809C17.0047 188.813 17.0031 188.813 16.9991 188.814C16.9931 188.816 17.0045 188.813 17.0232 188.808L17.4832 190.754C17.507 190.749 17.528 190.743 17.5453 190.738C17.5626 190.733 17.5775 190.729 17.5883 190.726C17.5938 190.724 17.5988 190.722 17.6027 190.721C17.608 190.719 17.6086 190.719 17.6123 190.718C17.6176 190.716 17.6182 190.716 17.6172 190.717C17.6153 190.717 17.597 190.723 17.5697 190.728C17.5411 190.734 17.5004 190.74 17.4507 190.742L17.3817 188.743ZM18.1311 190.26C18.2262 190.086 18.3312 189.823 18.3207 189.494L16.3217 189.558C16.3172 189.417 16.3642 189.323 16.3753 189.302L18.1311 190.26ZM18.3205 189.49C18.2907 188.658 17.5903 188.01 16.7614 188.04L16.833 190.039C16.562 190.048 16.3317 189.837 16.3218 189.562L18.3205 189.49ZM16.7518 188.04C16.6077 188.047 16.4968 188.082 16.4709 188.09C16.4668 188.091 16.4632 188.093 16.461 188.093C16.4598 188.094 16.4588 188.094 16.4581 188.094C16.4573 188.094 16.457 188.095 16.4566 188.095C16.4549 188.095 16.4589 188.094 16.4646 188.092C16.4759 188.089 16.5067 188.08 16.5481 188.072L16.9223 190.037C16.9742 190.027 17.0152 190.015 17.0366 190.009C17.0475 190.005 17.0565 190.003 17.0598 190.001C17.0654 190 17.0626 190.001 17.0607 190.001C17.0559 190.003 17.0303 190.011 16.9953 190.018C16.9586 190.026 16.9063 190.035 16.8426 190.038L16.7518 188.04ZM17.6839 189.371C17.7283 189.237 17.778 189.041 17.7684 188.805L15.77 188.886C15.7664 188.797 15.7861 188.739 15.7865 188.738L17.6839 189.371ZM17.7685 188.809C17.7363 187.93 16.9974 187.243 16.1176 187.275L16.1908 189.274C15.967 189.282 15.7781 189.107 15.7699 188.882L17.7685 188.809ZM16.1108 187.275C16.0304 187.279 15.9628 187.291 15.9122 187.302C15.8647 187.313 15.8272 187.326 15.8167 187.329C15.8137 187.33 15.8108 187.331 15.8102 187.331C15.8089 187.331 15.8096 187.331 15.8106 187.331C15.8127 187.33 15.821 187.328 15.8324 187.324C15.8552 187.318 15.8991 187.306 15.9561 187.298L16.2263 189.28C16.2943 189.271 16.3487 189.257 16.3818 189.247C16.3983 189.243 16.4117 189.238 16.4188 189.236C16.4224 189.235 16.4256 189.234 16.4269 189.234C16.4288 189.233 16.4284 189.233 16.428 189.233C16.427 189.234 16.4196 189.236 16.4093 189.239C16.3987 189.242 16.3829 189.246 16.3632 189.251C16.3232 189.26 16.2665 189.27 16.1976 189.273L16.1108 187.275ZM16.8776 187.672C16.5532 187.259 16.0239 186.935 15.3735 186.958L15.4449 188.957C15.4073 188.958 15.3701 188.949 15.3418 188.934C15.3164 188.921 15.3062 188.909 15.3047 188.907L16.8776 187.672ZM15.3747 186.958C15.2198 186.963 15.0976 186.998 15.0418 187.014C15.0272 187.018 15.0144 187.022 15.0062 187.025C14.9952 187.029 14.9944 187.029 14.9896 187.03C14.983 187.032 14.9945 187.029 15.0131 187.024L15.4812 188.969C15.5048 188.963 15.5256 188.957 15.5426 188.952C15.5595 188.947 15.5742 188.943 15.5846 188.94C15.5899 188.938 15.5948 188.937 15.5985 188.935C15.6029 188.934 15.6047 188.933 15.6076 188.932C15.6125 188.931 15.6129 188.931 15.6116 188.931C15.6091 188.932 15.5905 188.938 15.5629 188.943C15.5342 188.949 15.4934 188.955 15.4437 188.957L15.3747 186.958ZM16.2395 187.873C16.0541 186.382 14.7664 185.238 13.2208 185.294L13.2936 187.293C13.778 187.275 14.1943 187.633 14.2548 188.12L16.2395 187.873ZM13.2201 185.294C11.9947 185.339 10.9746 186.127 10.5723 187.206L12.4461 187.905C12.5758 187.557 12.9037 187.307 13.2943 187.293L13.2201 185.294ZM12.1312 186.772C11.7663 186.482 11.2737 186.267 10.6979 186.288L10.7725 188.287C10.7835 188.286 10.7952 188.288 10.8115 188.293C10.8293 188.3 10.8555 188.313 10.8872 188.338L12.1312 186.772ZM10.6985 186.288C9.79374 186.321 9.03954 186.9 8.73629 187.692L10.6041 188.407C10.6308 188.337 10.6966 188.289 10.7719 188.287L10.6985 186.288ZM10.1471 187.17C9.96029 187.069 9.67396 186.953 9.31476 186.968L9.40163 188.966C9.33959 188.969 9.28681 188.96 9.24856 188.949C9.23025 188.944 9.21636 188.939 9.20734 188.935C9.19841 188.931 9.19356 188.928 9.1933 188.928L10.1471 187.17ZM9.32043 186.968C8.4263 187.002 7.72656 187.753 7.7578 188.648L9.75658 188.578C9.76382 188.786 9.60209 188.959 9.39596 188.967L9.32043 186.968ZM7.75782 188.649C7.7772 189.194 8.06515 189.626 8.41857 189.888L9.60981 188.281C9.66923 188.325 9.75119 188.427 9.75656 188.578L7.75782 188.649ZM8.16713 188.553C8.03611 188.762 7.89575 189.076 7.91093 189.471L9.90945 189.394C9.91463 189.529 9.86427 189.611 9.86126 189.616L8.16713 188.553ZM7.91114 189.476C7.91713 189.614 7.94628 189.723 7.96101 189.774C7.96762 189.797 7.97581 189.823 7.97624 189.825C7.97869 189.832 7.97593 189.824 7.97239 189.81L9.91 189.314C9.90096 189.279 9.89182 189.249 9.88774 189.236C9.88665 189.233 9.88553 189.229 9.88485 189.227C9.88405 189.224 9.88359 189.223 9.88321 189.221C9.88244 189.219 9.8828 189.22 9.88363 189.223C9.88519 189.228 9.89057 189.248 9.89587 189.275C9.90132 189.303 9.90719 189.342 9.90925 189.389L7.91114 189.476ZM9.50838 188.739C9.27699 188.579 8.94495 188.431 8.53699 188.446L8.6094 190.445C8.47743 190.449 8.39339 190.399 8.37401 190.386L9.50838 188.739ZM8.53543 188.446C7.6413 188.48 6.94156 189.231 6.9728 190.126L8.97158 190.056C8.97882 190.264 8.81709 190.437 8.61096 190.445L8.53543 188.446ZM6.97279 190.126C6.97828 190.285 7.01906 190.408 7.02765 190.436C7.02906 190.44 7.0303 190.444 7.03108 190.446C7.03246 190.45 7.03184 190.449 7.03256 190.451C7.03309 190.452 7.03167 190.448 7.0297 190.442C7.02585 190.429 7.01594 190.395 7.00776 190.349L8.97662 189.998C8.96595 189.938 8.95241 189.89 8.94449 189.864C8.9405 189.851 8.93693 189.84 8.9353 189.835C8.93486 189.833 8.93445 189.832 8.93417 189.831C8.93384 189.83 8.93369 189.83 8.93353 189.829C8.93322 189.828 8.93338 189.829 8.93373 189.83C8.93439 189.832 8.93673 189.839 8.93967 189.85C8.94266 189.86 8.94678 189.876 8.95101 189.895C8.95953 189.933 8.96924 189.988 8.9716 190.057L6.97279 190.126ZM8.43941 189.279C8.25577 189.187 7.98822 189.09 7.65918 189.102L7.7332 191.101C7.62016 191.105 7.54862 191.07 7.54498 191.068L8.43941 189.279ZM7.65843 189.102C6.76428 189.136 6.06456 189.887 6.0958 190.782L8.09458 190.712C8.10182 190.92 7.9401 191.093 7.73395 191.101L7.65843 189.102ZM6.09584 190.783C6.11073 191.197 6.2876 191.518 6.46008 191.733L8.02031 190.482C8.03079 190.495 8.08965 190.575 8.09455 190.711L6.09584 190.783ZM6.41413 190.544C6.2607 190.769 6.10804 191.099 6.12283 191.513L8.12156 191.442C8.12635 191.576 8.07369 191.66 8.06626 191.671L6.41413 190.544ZM6.12294 191.516C6.14503 192.088 6.4607 192.535 6.84729 192.794L7.95909 191.131C8.02569 191.176 8.11535 191.281 8.12145 191.439L6.12294 191.516ZM6.6253 191.334C6.25917 191.787 6.03249 192.377 6.05584 193.026L8.05454 192.954C8.0499 192.825 8.09322 192.699 8.18108 192.591L6.6253 191.334ZM6.05598 193.03C6.0973 194.068 6.75353 194.928 7.64523 195.293L8.40315 193.442C8.20085 193.359 8.06309 193.169 8.0544 192.951L6.05598 193.03ZM12.7932 193.037C12.8094 193.059 12.8242 193.077 12.8361 193.091C12.8481 193.105 12.8586 193.116 12.8665 193.125C12.8743 193.133 12.8809 193.14 12.8849 193.144C12.8886 193.147 12.8919 193.151 12.8919 193.151C12.8929 193.152 12.8906 193.149 12.8879 193.147C12.8849 193.144 12.8793 193.138 12.8724 193.131C12.8654 193.123 12.8558 193.113 12.8447 193.1C12.8336 193.087 12.8196 193.07 12.8042 193.049L14.4042 191.849C14.388 191.828 14.3732 191.81 14.3613 191.796C14.3493 191.782 14.3388 191.77 14.3309 191.762C14.323 191.754 14.3165 191.747 14.3125 191.743C14.3088 191.739 14.3055 191.736 14.3054 191.736C14.3045 191.735 14.3068 191.737 14.3095 191.74C14.3125 191.743 14.3181 191.749 14.325 191.756C14.332 191.763 14.3416 191.774 14.3527 191.787C14.3637 191.8 14.3778 191.817 14.3932 191.837L12.7932 193.037ZM12.9457 191.697C12.9831 191.664 13.0147 191.642 13.0287 191.632C13.0362 191.627 13.042 191.623 13.0436 191.622C13.0444 191.621 13.045 191.621 13.0444 191.621C13.0442 191.621 13.0426 191.622 13.041 191.624C13.0355 191.627 13.0126 191.642 12.9853 191.663C12.9571 191.684 12.9155 191.717 12.8701 191.762L14.2843 193.176C14.2429 193.218 14.2057 193.247 14.182 193.265C14.1698 193.274 14.1597 193.281 14.153 193.286C14.1464 193.29 14.1414 193.294 14.1404 193.294C14.14 193.295 14.1395 193.295 14.1405 193.294C14.1411 193.294 14.1429 193.293 14.1449 193.291C14.1489 193.289 14.1569 193.283 14.1667 193.277C14.1767 193.27 14.1904 193.26 14.2062 193.248C14.222 193.236 14.2414 193.221 14.2627 193.202L12.9457 191.697ZM14.4876 192.883C14.4814 192.897 14.4762 192.907 14.4734 192.913C14.471 192.917 14.4691 192.921 14.471 192.917C14.4719 192.916 14.4765 192.907 14.4816 192.897C14.4871 192.886 14.4949 192.87 14.5036 192.851L12.6828 192.023C12.689 192.01 12.6942 191.999 12.697 191.994C12.6994 191.989 12.7013 191.986 12.6994 191.989C12.6985 191.991 12.6939 192 12.6888 192.01C12.6833 192.021 12.6755 192.036 12.6668 192.055L14.4876 192.883Z" fill="black" mask="url(#path-71-inside-1_34_149)"/>
<path d="M8.45358 185.66L7.83389 185.97C7.79745 185.988 7.77951 186.011 7.77084 186.034L8.45358 185.66ZM8.45358 185.66L7.96425 185.169M8.45358 185.66L7.96425 185.169M7.96425 185.169C7.67838 184.883 7.57046 184.45 7.71917 184.052L7.96425 185.169ZM9.70264 181.706C9.70012 181.722 9.69654 181.741 9.69135 181.762L9.45844 182.693L8.82876 181.968C8.80199 181.937 8.7881 181.929 8.78509 181.927L8.78412 181.927C8.72177 181.903 8.64985 181.934 8.62503 182L8.15728 181.823L8.62515 182L8.62514 182C8.62444 182.002 8.61709 182.021 8.63248 182.076L8.73308 182.432L8.42146 182.632C8.39799 182.647 8.38428 182.66 8.3768 182.668C8.37007 182.676 8.36809 182.68 8.36714 182.683L9.70264 181.706ZM9.70264 181.706C9.73478 181.66 9.79438 181.641 9.84712 181.661L9.94789 181.395L9.70264 181.706ZM17.5187 188.348C17.8783 188.478 18.2775 188.295 18.4133 187.935C18.4354 187.877 18.4486 187.818 18.4537 187.759C18.4006 187.767 18.3468 187.77 18.2931 187.769L18.3043 187.269L18.6837 186.98L18.6837 186.98L18.7017 186.966C18.7082 186.975 18.7146 186.983 18.7209 186.992C18.7627 186.879 18.7546 186.76 18.7078 186.659C18.6156 186.746 18.514 186.819 18.41 186.876L18.3457 186.76L18.3455 186.759L18.1683 186.438L17.9982 185.968C18.097 185.932 18.2086 185.91 18.3266 185.91L17.5187 188.348ZM17.5187 188.348L17.5096 188.344L17.5095 188.344L17.5018 188.34L17.5187 188.348ZM9.82266 181.378L9.82266 181.378L9.82266 181.378ZM11.1405 180.602L11.1426 180.603C11.144 180.604 11.1465 180.606 11.1502 180.609C11.158 180.615 11.17 180.626 11.1862 180.646L11.5437 181.089L11.9369 180.678C12.1222 180.484 12.4111 180.409 12.6759 180.509L12.676 180.509C12.8212 180.564 12.9394 180.674 13.0234 180.828L13.3536 181.433L13.8262 180.931C14.2149 180.519 14.8246 180.358 15.3858 180.569C16.0878 180.835 16.4583 181.591 16.257 182.307L16.1055 182.846L16.6575 182.936C16.6865 182.941 16.7122 182.943 16.7291 182.945L16.7484 182.947C16.8261 182.984 16.8891 183.059 16.9202 183.172L16.9986 183.457L17.2865 183.526C17.2971 183.528 17.3071 183.53 17.3164 183.532C17.3463 183.556 17.359 183.597 17.3449 183.636C17.3438 183.638 17.3389 183.646 17.3248 183.662L16.7723 184.287L17.5782 184.479L16.714 185.178L17.8155 185.358C17.8461 185.363 17.8731 185.366 17.8904 185.367L17.908 185.369C18.0775 185.446 18.1613 185.644 18.0944 185.822C18.069 185.889 18.0154 185.952 17.9265 186.001L18.2749 186.769L17.2759 186.746L17.9069 187.573C17.9603 187.643 17.9646 187.708 17.9457 187.758L17.9455 187.759C17.908 187.858 17.8015 187.91 17.7028 187.882C17.6894 187.876 17.6746 187.87 17.6584 187.865L17.2337 187.723L17.0462 188.13C17.0149 188.198 16.9544 188.238 16.887 188.245L16.5784 188.274L16.4674 188.563C16.4275 188.668 16.3112 188.719 16.2085 188.681L15.7409 188.504L15.5645 188.972C15.5248 189.077 15.4082 189.129 15.3053 189.09L15.3049 189.09C15.2275 189.06 15.1709 188.975 15.1916 188.865L15.3417 188.071L14.5639 188.291C14.5352 188.299 14.5155 188.302 14.5031 188.302C14.4933 188.302 14.4873 188.3 14.4828 188.299C14.4784 188.297 14.4632 188.288 14.4342 188.253L14.0822 187.829L13.8004 188.113L13.5 187.477L13.0052 188.175C12.9857 188.203 12.9604 188.22 12.9369 188.228C12.9155 188.235 12.8938 188.235 12.87 188.227C12.8519 188.22 12.8383 188.209 12.8271 188.194C12.8148 188.178 12.8042 188.155 12.7999 188.126L12.7011 187.456L12.0896 187.748C11.8162 187.879 11.4977 187.903 11.1977 187.79L11.1975 187.789C10.9162 187.684 10.7016 187.475 10.5779 187.218L10.3166 186.674L9.83103 187.032C9.63562 187.175 9.40857 187.215 9.20377 187.138L9.20352 187.137C8.94479 187.04 8.77996 186.799 8.76775 186.534L8.72302 185.565L7.95968 186.164C7.93491 186.183 7.91084 186.193 7.89212 186.197L11.1405 180.602ZM18.58 185.946C18.494 185.921 18.409 185.91 18.3271 185.91L16.8959 182.487L17.0071 182.518C17.2098 182.631 17.343 182.824 17.4023 183.039C17.4111 183.042 17.4202 183.042 17.4292 183.043C17.4417 183.044 17.4541 183.045 17.4663 183.049C17.6724 183.127 17.8099 183.306 17.843 183.509C17.8098 183.502 17.7846 183.5 17.7737 183.499L17.7722 183.499L17.7656 183.498L17.7625 183.498C17.7613 183.498 17.7634 183.498 17.7668 183.499C17.7736 183.499 17.7916 183.501 17.8151 183.507L17.7479 183.789L17.7479 183.789L17.6993 183.993L17.7492 184.038L17.7493 184.038L18.0631 184.315C18.0705 184.337 18.0764 184.36 18.0808 184.383C18.0622 184.38 18.046 184.378 18.0331 184.376C18.0166 184.375 17.9927 184.372 17.9861 184.372L17.9849 184.372C17.978 184.371 17.9754 184.371 17.9754 184.371C17.9754 184.371 17.976 184.371 17.977 184.371L17.9378 184.611L17.9378 184.611L17.8963 184.864L18.0148 185.011L18.0158 185.012L18.2107 185.253C18.2618 185.212 18.3187 185.16 18.3725 185.094C18.5864 185.313 18.6741 185.638 18.58 185.946ZM16.7383 182.442L16.8957 182.487L12.8523 180.041C12.959 180.082 13.0547 180.137 13.1396 180.203C13.1257 180.217 13.112 180.231 13.0984 180.246L13.4623 180.588L13.9012 180.349C13.8864 180.322 13.8708 180.295 13.8545 180.268C14.3493 179.962 14.9751 179.88 15.5623 180.101C16.3701 180.407 16.8497 181.191 16.8091 182.01L16.7383 182.442ZM18.2521 186.818C18.258 186.803 18.2688 186.79 18.2806 186.781L18.3064 186.838L18.3069 186.839L18.3115 186.849L18.3118 186.85L18.3136 186.854L18.3383 186.909C18.337 186.909 18.3333 186.91 18.3275 186.91C18.323 186.91 18.3178 186.91 18.3123 186.909C18.3058 186.908 18.2988 186.906 18.2917 186.904C18.2917 186.904 18.2917 186.904 18.2917 186.904C18.2916 186.904 18.2915 186.903 18.2914 186.903C18.2913 186.903 18.2913 186.903 18.2912 186.903C18.2562 186.89 18.2399 186.852 18.2518 186.819C18.2519 186.819 18.2519 186.818 18.252 186.818C18.252 186.818 18.2521 186.818 18.2521 186.818ZM17.9285 185.371C17.9285 185.371 17.928 185.371 17.9269 185.371L17.9285 185.371ZM17.5843 184.471L17.5855 184.471L17.5843 184.471ZM13.9905 185.831C13.9866 185.808 13.9817 185.788 13.9772 185.772L13.8116 184.945L13.1651 185.519L13.1622 185.522L13.1622 185.522C13.1546 185.528 13.1338 185.545 13.1107 185.568L13.34 185.928L13.002 185.995C13.0052 186.012 13.0088 186.026 13.0121 186.037C13.0153 186.048 13.0184 186.058 13.0208 186.064C13.0215 186.067 13.0223 186.069 13.023 186.071C13.0243 186.074 13.0254 186.078 13.0261 186.079L13.0273 186.083L13.025 186.076C13.0245 186.075 13.024 186.073 13.0234 186.072C13.0222 186.068 13.0208 186.064 13.0193 186.059C13.0147 186.045 13.0086 186.023 13.0041 185.996L13.3468 185.938L13.6352 186.391C13.6128 186.399 13.5944 186.404 13.5833 186.407L13.5714 186.409C13.5707 186.409 13.57 186.409 13.5696 186.409C13.5691 186.41 13.569 186.41 13.5701 186.409L13.5796 186.408C13.5845 186.407 13.5915 186.405 13.5998 186.403C13.6164 186.4 13.6403 186.393 13.6682 186.383L14.0588 186.241L13.9905 185.831ZM13.7944 186.296C13.7943 186.297 13.7942 186.297 13.7944 186.296L13.7944 186.296ZM7.84381 186.193C7.77822 186.168 7.74726 186.096 7.77081 186.034L7.84381 186.193Z" fill="#83A152" stroke="black"/>
</svg>
